<svg width="200" height="200" viewBox="0 0 200 200" fill="none" xmlns="http://www.w3.org/2000/svg">
<path d="M26.25 18.75H27.5V20H26.25V18.75Z" fill="#2589EE"/>
<path d="M30 27.5H32.5V28.75H30V27.5Z" fill="#2589EE"/>
<path d="M26.25 35H28.75V36.25H26.25V35Z" fill="#2589EE"/>
<path d="M30 38.75H31.25V41.25H30V40V38.75Z" fill="#2589EE"/>
<path d="M32.5 40H33.75V41.25H32.5V40Z" fill="#2589EE"/>
<path d="M37.5 40H38.75V42.5H37.5V41.25V40Z" fill="#2589EE"/>
<path d="M67.5 40H68.75V41.25H67.5V40Z" fill="#2589EE"/>
<path d="M35 41.25H36.25V42.5H35V41.25Z" fill="#2589EE"/>
<path d="M123.75 43.75H125V45H123.75V43.75Z" fill="#2589EE"/>
<path d="M36.25 45H37.5V46.25H36.25V45Z" fill="#2589EE"/>
<path d="M125 46.25H126.25V47.5H125V46.25Z" fill="#2589EE"/>
<path d="M40 47.5H41.25V48.75H40V47.5Z" fill="#2589EE"/>
<path d="M38.75 48.75H40V50H38.75V48.75Z" fill="#2589EE"/>
<path d="M42.5 50H43.75V51.25H42.5V50Z" fill="#2589EE"/>
<path d="M43.75 51.25H45V52.5H43.75V51.25Z" fill="#2589EE"/>
<path d="M45 52.5H46.25V53.75H45V52.5Z" fill="#2589EE"/>
<path d="M43.75 53.75H45V55H43.75V53.75Z" fill="#2589EE"/>
<path d="M46.25 53.75H47.5V55H46.25V53.75Z" fill="#2589EE"/>
<path d="M45 55H46.25V56.25H45V55Z" fill="#2589EE"/>
<path d="M46.25 56.25H47.5V57.5H46.25V56.25Z" fill="#2589EE"/>
<path d="M47.5 57.5H48.75V58.75H47.5V57.5Z" fill="#2589EE"/>
<path d="M121.25 57.5H122.5V58.75H121.25V57.5Z" fill="#2589EE"/>
<path d="M46.25 58.75H47.5V60H48.75V61.25H46.25V60V58.75Z" fill="#2589EE"/>
<path d="M48.75 58.75H51.25V60H52.5V61.25H50V60H48.75V58.75Z" fill="#2589EE"/>
<path d="M172.5 60H173.75V61.25H172.5V60Z" fill="#2589EE"/>
<path d="M52.5 61.25H53.75V62.5H52.5V61.25Z" fill="#2589EE"/>
<path d="M55 61.25H56.25V62.5H55V61.25Z" fill="#2589EE"/>
<path d="M171.25 61.25H172.5V62.5H171.25V61.25Z" fill="#2589EE"/>
<path d="M173.75 61.25H175V62.5H173.75V61.25Z" fill="#2589EE"/>
<path d="M76.25 62.5H77.5V63.75H76.25V62.5Z" fill="#2589EE"/>
<path d="M56.25 63.75H57.5V65H56.25V63.75Z" fill="#2589EE"/>
<path d="M93.75 63.75H95V65H93.75V63.75Z" fill="#2589EE"/>
<path d="M57.5 65H58.75V66.25H60V67.5H56.25V66.25H57.5V65Z" fill="#2589EE"/>
<path d="M166.25 65H167.5V66.25H166.25V65Z" fill="#2589EE"/>
<path d="M92.5 66.25H93.75V67.5H92.5V66.25Z" fill="#2589EE"/>
<path d="M108.75 68.75H110V70H108.75V68.75Z" fill="#2589EE"/>
<path d="M116.25 68.75H117.5V70H116.25V68.75Z" fill="#2589EE"/>
<path d="M82.5 70H83.75V71.25H82.5V70Z" fill="#2589EE"/>
<path d="M163.75 70H165V71.25H163.75V70Z" fill="#2589EE"/>
<path d="M83.75 71.25H85V72.5H83.75V71.25Z" fill="#2589EE"/>
<path d="M87.5 71.25H88.75V72.5H87.5V71.25Z" fill="#2589EE"/>
<path d="M62.5 72.5H63.75V73.75H62.5V72.5Z" fill="#2589EE"/>
<path d="M92.5 75H93.75V76.25H92.5V75Z" fill="#2589EE"/>
<path d="M115 75H116.25V76.25H115V75Z" fill="#2589EE"/>
<path d="M156.25 75H157.5V76.25H156.25V75Z" fill="#2589EE"/>
<path d="M78.75 76.25H80V77.5H78.75V76.25Z" fill="#2589EE"/>
<path d="M93.75 77.5H95V78.75H93.75V77.5Z" fill="#2589EE"/>
<path d="M107.5 80H108.75V81.25H107.5V80Z" fill="#2589EE"/>
<path d="M73.75 81.25H75V82.5H73.75V81.25Z" fill="#2589EE"/>
<path d="M76.25 81.25H77.5V82.5H76.25V81.25Z" fill="#2589EE"/>
<path d="M78.75 81.25H80V82.5H78.75V81.25Z" fill="#2589EE"/>
<path d="M110 81.25H111.25V83.75H110V82.5V81.25Z" fill="#2589EE"/>
<path d="M71.25 82.5H72.5V83.75H71.25V82.5Z" fill="#2589EE"/>
<path d="M113.75 82.5H115V85H113.75V83.75V82.5Z" fill="#2589EE"/>
<path d="M78.75 83.75H80V85H78.75V83.75Z" fill="#2589EE"/>
<path d="M105 83.75H106.25V85H105V83.75Z" fill="#2589EE"/>
<path d="M108.75 83.75H110V85H108.75V83.75Z" fill="#2589EE"/>
<path d="M160 83.75H161.25V85H160V83.75Z" fill="#2589EE"/>
<path d="M26.25 85H27.5V86.25H26.25V85Z" fill="#2589EE"/>
<path d="M71.25 85H72.5V86.25H71.25V85Z" fill="#2589EE"/>
<path d="M77.5 85H78.75V86.25H77.5V85Z" fill="#2589EE"/>
<path d="M97.5 85H98.75V86.25H97.5V85Z" fill="#2589EE"/>
<path d="M103.75 85H105V87.5H103.75V86.25V85Z" fill="#2589EE"/>
<path d="M107.5 85H108.75V86.25H107.5V85Z" fill="#2589EE"/>
<path d="M27.5 86.25H28.75V87.5H27.5V86.25Z" fill="#2589EE"/>
<path d="M43.75 86.25H45V87.5H43.75V86.25Z" fill="#2589EE"/>
<path d="M70 86.25H71.25V87.5H70V86.25Z" fill="#2589EE"/>
<path d="M73.75 86.25H75V87.5H73.75V86.25Z" fill="#2589EE"/>
<path d="M116.25 86.25H117.5V87.5H116.25V86.25Z" fill="#2589EE"/>
<path d="M41.25 87.5H42.5V88.75H41.25V87.5Z" fill="#2589EE"/>
<path d="M66.25 87.5H67.5V90H66.25V88.75V87.5Z" fill="#2589EE"/>
<path d="M98.75 87.5H100V88.75H98.75V87.5Z" fill="#2589EE"/>
<path d="M112.5 87.5H113.75V88.75H112.5V87.5Z" fill="#2589EE"/>
<path d="M71.25 88.75H72.5V91.25H71.25V90V88.75Z" fill="#2589EE"/>
<path d="M75 88.75H76.25V90H75V88.75Z" fill="#2589EE"/>
<path d="M108.75 88.75H110V90H108.75V88.75Z" fill="#2589EE"/>
<path d="M35 90H36.25V91.25H35V90Z" fill="#2589EE"/>
<path d="M77.5 90H78.75V91.25H77.5V90Z" fill="#2589EE"/>
<path d="M120 90H121.25V92.5H118.75V91.25H120V90Z" fill="#2589EE"/>
<path d="M140 90H141.25V91.25H140V90Z" fill="#2589EE"/>
<path d="M57.5 91.25H58.75V93.75H57.5V92.5V91.25Z" fill="#2589EE"/>
<path d="M110 91.25H111.25V92.5H110V91.25Z" fill="#2589EE"/>
<path d="M135 91.25H136.25V92.5H135V91.25Z" fill="#2589EE"/>
<path d="M73.75 92.5H75V93.75H73.75V92.5Z" fill="#2589EE"/>
<path d="M123.75 92.5H125V93.75H123.75V92.5Z" fill="#2589EE"/>
<path d="M126.25 92.5H127.5V95H126.25V93.75V92.5Z" fill="#2589EE"/>
<path d="M133.75 92.5H135V93.75H136.25V95H133.75V93.75V92.5Z" fill="#2589EE"/>
<path d="M137.5 92.5H138.75V93.75H137.5V92.5Z" fill="#2589EE"/>
<path d="M40 93.75H41.25V95H40V93.75Z" fill="#2589EE"/>
<path d="M75 93.75H77.5V95H75V93.75Z" fill="#2589EE"/>
<path d="M57.5 95H58.75V96.25H57.5V95Z" fill="#2589EE"/>
<path d="M67.5 95H68.75V96.25H67.5V95Z" fill="#2589EE"/>
<path d="M113.75 95H115V96.25H113.75V95Z" fill="#2589EE"/>
<path d="M127.5 95H128.75V96.25H127.5V95Z" fill="#2589EE"/>
<path d="M56.25 96.25H57.5V97.5H56.25V96.25Z" fill="#2589EE"/>
<path d="M58.75 96.25H60V97.5H58.75V96.25Z" fill="#2589EE"/>
<path d="M62.5 96.25H63.75V98.75H62.5V97.5V96.25Z" fill="#2589EE"/>
<path d="M120 96.25H121.25V97.5H120V96.25Z" fill="#2589EE"/>
<path d="M126.25 96.25H127.5V97.5H126.25V96.25Z" fill="#2589EE"/>
<path d="M183.75 96.25H186.25V97.5H183.75V96.25Z" fill="#2589EE"/>
<path d="M111.25 97.5H112.5V98.75H111.25V97.5Z" fill="#2589EE"/>
<path d="M121.25 97.5H122.5V98.75H121.25V97.5Z" fill="#2589EE"/>
<path d="M123.75 97.5H125V98.75H123.75V97.5Z" fill="#2589EE"/>
<path d="M188.75 97.5H190V98.75H188.75V97.5Z" fill="#2589EE"/>
<path d="M167.5 98.75H168.75V100H167.5V98.75Z" fill="#2589EE"/>
<path d="M66.25 100H67.5V102.5H66.25V101.25V100Z" fill="#2589EE"/>
<path d="M102.5 100H103.75V101.25H102.5V100Z" fill="#2589EE"/>
<path d="M106.25 100H107.5V101.25H106.25V100Z" fill="#2589EE"/>
<path d="M127.5 100H128.75V101.25H127.5V100Z" fill="#2589EE"/>
<path d="M65 102.5H66.25V103.75H65V102.5Z" fill="#2589EE"/>
<path d="M98.75 102.5H101.25V103.75H98.75V102.5Z" fill="#2589EE"/>
<path d="M153.75 102.5H155V103.75H153.75V102.5Z" fill="#2589EE"/>
<path d="M132.5 103.75H133.75V105H132.5V103.75Z" fill="#2589EE"/>
<path d="M152.5 103.75H153.75V105H152.5V103.75Z" fill="#2589EE"/>
<path d="M160 103.75H161.25V105H160V103.75Z" fill="#2589EE"/>
<path d="M146.25 106.25H147.5V107.5H146.25V106.25Z" fill="#2589EE"/>
<path d="M160 106.25H161.25V107.5H160V106.25Z" fill="#2589EE"/>
<path d="M73.75 107.5H75V108.75H73.75V107.5Z" fill="#2589EE"/>
<path d="M125 107.5H126.25V108.75H125V107.5Z" fill="#2589EE"/>
<path d="M133.75 108.75H135V110H133.75V108.75Z" fill="#2589EE"/>
<path d="M141.25 108.75H142.5V110H141.25V108.75Z" fill="#2589EE"/>
<path d="M146.25 108.75H147.5V110H146.25V108.75Z" fill="#2589EE"/>
<path d="M155 108.75H156.25V110H155V108.75Z" fill="#2589EE"/>
<path d="M157.5 108.75H158.75V110H157.5V108.75Z" fill="#2589EE"/>
<path d="M75 110H76.25V111.25H75V110Z" fill="#2589EE"/>
<path d="M126.25 110H127.5V111.25H126.25V110Z" fill="#2589EE"/>
<path d="M135 111.25H136.25V112.5H135V111.25Z" fill="#2589EE"/>
<path d="M156.25 111.25H157.5V112.5H156.25V111.25Z" fill="#2589EE"/>
<path d="M136.25 112.5H137.5V113.75H136.25V112.5Z" fill="#2589EE"/>
<path d="M72.5 113.75H73.75V115H72.5V113.75Z" fill="#2589EE"/>
<path d="M77.5 113.75H78.75V115H77.5V113.75Z" fill="#2589EE"/>
<path d="M145 113.75H146.25V115H145V113.75Z" fill="#2589EE"/>
<path d="M76.25 115H77.5V116.25H76.25V115Z" fill="#2589EE"/>
<path d="M138.75 115H140V117.5H138.75V116.25V115Z" fill="#2589EE"/>
<path d="M142.5 115H143.75V116.25H142.5V115Z" fill="#2589EE"/>
<path d="M73.75 116.25H75V118.75H73.75V117.5V116.25Z" fill="#2589EE"/>
<path d="M141.25 117.5H142.5V118.75H141.25V117.5Z" fill="#2589EE"/>
<path d="M10 118.75H11.25V120H10V118.75Z" fill="#2589EE"/>
<path d="M143.75 120H145V121.25H143.75V120Z" fill="#2589EE"/>
<path d="M41.25 121.25H43.75V122.5H42.5V123.75H41.25V122.5V121.25Z" fill="#2589EE"/>
<path d="M51.25 121.25H52.5V122.5H51.25V121.25Z" fill="#2589EE"/>
<path d="M145 121.25H146.25V122.5H145V121.25Z" fill="#2589EE"/>
<path d="M35 122.5H36.25V123.75H35V122.5Z" fill="#2589EE"/>
<path d="M140 122.5H142.5V123.75H140V122.5Z" fill="#2589EE"/>
<path d="M77.5 123.75H78.75V126.25H77.5V125V123.75Z" fill="#2589EE"/>
<path d="M137.5 123.75H138.75V125H137.5V123.75Z" fill="#2589EE"/>
<path d="M102.5 125H103.75V126.25H102.5V125Z" fill="#2589EE"/>
<path d="M122.5 125H123.75V126.25H122.5V125Z" fill="#2589EE"/>
<path d="M138.75 125H140V126.25H138.75V125Z" fill="#2589EE"/>
<path d="M76.25 126.25H77.5V127.5H76.25V126.25Z" fill="#2589EE"/>
<path d="M163.75 126.25H165V127.5H163.75V126.25Z" fill="#2589EE"/>
<path d="M166.25 126.25H167.5V127.5H166.25V126.25Z" fill="#2589EE"/>
<path d="M70 127.5H71.25V128.75H70V127.5Z" fill="#2589EE"/>
<path d="M75 127.5H76.25V128.75H75V127.5Z" fill="#2589EE"/>
<path d="M102.5 127.5H103.75V128.75H102.5V127.5Z" fill="#2589EE"/>
<path d="M76.25 128.75H77.5V131.25H76.25V130V128.75Z" fill="#2589EE"/>
<path d="M92.5 128.75H95V131.25H92.5V130V128.75Z" fill="#2589EE"/>
<path d="M107.5 128.75H108.75V130H107.5V128.75Z" fill="#2589EE"/>
<path d="M120 128.75H121.25V131.25H120V130V128.75Z" fill="#2589EE"/>
<path d="M165 128.75H166.25V130H165V128.75Z" fill="#2589EE"/>
<path d="M137.5 130H140V131.25H137.5V130Z" fill="#2589EE"/>
<path d="M78.75 131.25H82.5V132.5H83.75V133.75H81.25V132.5H78.75V131.25Z" fill="#2589EE"/>
<path d="M108.75 131.25H110V132.5H108.75V131.25Z" fill="#2589EE"/>
<path d="M173.75 132.5H176.25V133.75H173.75V132.5Z" fill="#2589EE"/>
<path d="M77.5 135H78.75V136.25H77.5V135Z" fill="#2589EE"/>
<path d="M80 135H81.25V136.25H80V135Z" fill="#2589EE"/>
<path d="M115 135H116.25V136.25H117.5V137.5H115V136.25V135Z" fill="#2589EE"/>
<path d="M81.25 136.25H82.5V137.5H81.25V136.25Z" fill="#2589EE"/>
<path d="M102.5 136.25H103.75V137.5H102.5V136.25Z" fill="#2589EE"/>
<path d="M77.5 137.5H78.75V141.25H77.5V138.75V137.5Z" fill="#2589EE"/>
<path d="M113.75 137.5H115V138.75H113.75V137.5Z" fill="#2589EE"/>
<path d="M172.5 137.5H173.75V138.75H172.5V137.5Z" fill="#2589EE"/>
<path d="M101.25 138.75H102.5V140H101.25V138.75Z" fill="#2589EE"/>
<path d="M116.25 138.75H117.5V140H116.25V138.75Z" fill="#2589EE"/>
<path d="M80 140H81.25V141.25H80V140Z" fill="#2589EE"/>
<path d="M113.75 140H115V141.25H113.75V140Z" fill="#2589EE"/>
<path d="M93.75 141.25H95V143.75H93.75V142.5V141.25Z" fill="#2589EE"/>
<path d="M96.25 141.25H97.5V142.5H96.25V141.25Z" fill="#2589EE"/>
<path d="M130 141.25H131.25V142.5H130V141.25Z" fill="#2589EE"/>
<path d="M100 142.5H101.25V143.75H100V142.5Z" fill="#2589EE"/>
<path d="M143.75 142.5H145V143.75H143.75V142.5Z" fill="#2589EE"/>
<path d="M78.75 143.75H80V145H78.75V143.75Z" fill="#2589EE"/>
<path d="M91.25 143.75H92.5V145H91.25V143.75Z" fill="#2589EE"/>
<path d="M108.75 143.75H110V145H108.75V143.75Z" fill="#2589EE"/>
<path d="M113.75 143.75H115V145H113.75V143.75Z" fill="#2589EE"/>
<path d="M83.75 145H85V146.25H83.75V145Z" fill="#2589EE"/>
<path d="M86.25 145H87.5V146.25H86.25V145Z" fill="#2589EE"/>
<path d="M66.25 146.25H67.5V147.5H66.25V146.25Z" fill="#2589EE"/>
<path d="M98.75 146.25H100V150H98.75V147.5V146.25Z" fill="#2589EE"/>
<path d="M108.75 146.25H110V147.5H108.75V146.25Z" fill="#2589EE"/>
<path d="M152.5 146.25H153.75V147.5H152.5V146.25Z" fill="#2589EE"/>
<path d="M103.75 147.5H105V148.75H103.75V147.5Z" fill="#2589EE"/>
<path d="M65 150H66.25V151.25H65V150Z" fill="#2589EE"/>
<path d="M87.5 150H90V151.25H88.75V152.5H87.5V151.25V150Z" fill="#2589EE"/>
<path d="M100 150H101.25V151.25H100V150Z" fill="#2589EE"/>
<path d="M57.5 151.25H58.75V152.5H57.5V151.25Z" fill="#2589EE"/>
<path d="M141.25 152.5H142.5V155H141.25V153.75V152.5Z" fill="#2589EE"/>
<path d="M62.5 153.75H63.75V155H62.5V153.75Z" fill="#2589EE"/>
<path d="M103.75 153.75H105V155H103.75V153.75Z" fill="#2589EE"/>
<path d="M122.5 160H123.75V161.25H122.5V160Z" fill="#2589EE"/>
<path d="M98.75 162.5H100V163.75H98.75V162.5Z" fill="#2589EE"/>
<path d="M127.5 162.5H128.75V163.75H127.5V162.5Z" fill="#2589EE"/>
<path d="M142.5 162.5H145V163.75H142.5V162.5Z" fill="#2589EE"/>
<path d="M121.25 163.75H122.5V165H121.25V163.75Z" fill="#2589EE"/>
<path d="M122.5 165H123.75V166.25H122.5V165Z" fill="#2589EE"/>
<path d="M61.25 167.5H62.5V168.75H61.25V167.5Z" fill="#2589EE"/>
<path d="M141.25 167.5H142.5V168.75H141.25V167.5Z" fill="#2589EE"/>
<path d="M120 168.75H121.25V170H120V168.75Z" fill="#2589EE"/>
<path d="M142.5 168.75H143.75V170H142.5V168.75Z" fill="#2589EE"/>
<path d="M143.75 170H145V171.25H143.75V170Z" fill="#2589EE"/>
<path d="M145 171.25H146.25V172.5H145V171.25Z" fill="#2589EE"/>
<path d="M150 171.25H151.25V172.5H150V171.25Z" fill="#2589EE"/>
<path d="M146.25 172.5H147.5V173.75H146.25V172.5Z" fill="#2589EE"/>
<path d="M151.25 172.5H152.5V173.75H151.25V172.5Z" fill="#2589EE"/>
<path d="M147.5 175H148.75V177.5H147.5V176.25V175Z" fill="#2589EE"/>
<path d="M155 177.5H156.25V178.75H155V177.5Z" fill="#2589EE"/>
<path d="M157.5 187.5H158.75V188.75H157.5V187.5Z" fill="#2589EE"/>
<path d="M27.5 18.75H28.75V20H27.5V18.75Z" fill="#2589EE"/>
<path d="M30 26.25H32.5V27.5H30V26.25Z" fill="#2589EE"/>
<path d="M26.25 33.75H27.5V35H26.25V33.75Z" fill="#2589EE"/>
<path d="M31.25 40H32.5V41.25H35V42.5H36.25V45H33.75V43.75H32.5V42.5H31.25V41.25V40Z" fill="#2589EE"/>
<path d="M125 45H126.25V46.25H125V45Z" fill="#2589EE"/>
<path d="M38.75 47.5H40V48.75H38.75V47.5Z" fill="#2589EE"/>
<path d="M40 48.75H42.5V51.25H38.75V50H40V48.75Z" fill="#2589EE"/>
<path d="M42.5 51.25H43.75V52.5H42.5V51.25Z" fill="#2589EE"/>
<path d="M43.75 52.5H45V53.75H43.75V52.5Z" fill="#2589EE"/>
<path d="M45 53.75H46.25V55H45V53.75Z" fill="#2589EE"/>
<path d="M46.25 55H47.5V56.25H46.25V55Z" fill="#2589EE"/>
<path d="M47.5 56.25H48.75V57.5H47.5V56.25Z" fill="#2589EE"/>
<path d="M43.75 57.5H45V58.75H43.75V57.5Z" fill="#2589EE"/>
<path d="M48.75 57.5H50V58.75H48.75V57.5Z" fill="#2589EE"/>
<path d="M122.5 57.5H123.75V58.75H122.5V57.5Z" fill="#2589EE"/>
<path d="M45 58.75H46.25V60H45V58.75Z" fill="#2589EE"/>
<path d="M51.25 61.25H52.5V62.5H51.25V61.25Z" fill="#2589EE"/>
<path d="M53.75 61.25H55V62.5H56.25V65H57.5V66.25H55V65H53.75V63.75H52.5V62.5H53.75V61.25Z" fill="#2589EE"/>
<path d="M172.5 61.25H173.75V62.5H172.5V61.25Z" fill="#2589EE"/>
<path d="M115 68.75H116.25V70H117.5V71.25H115V70V68.75Z" fill="#2589EE"/>
<path d="M88.75 70H90V71.25H88.75V70ZM88.75 71.25H91.25V72.5H88.75V71.25ZM81.25 71.25H83.75V72.5H81.25V71.25ZM81.25 72.5H91.25V73.75H81.25V72.5ZM81.25 73.75H92.5V75H81.25V73.75ZM80 75H92.5V76.25H80V75ZM80 76.25H93.75V77.5H80V76.25ZM78.75 77.5H93.75V78.75H78.75V77.5ZM78.75 78.75H95V80H78.75V78.75ZM78.75 80H96.25V81.25H78.75V80ZM80 81.25H96.25V82.5H80V81.25ZM80 82.5H97.5V83.75H80V82.5ZM80 83.75H97.5V85H80V83.75ZM78.75 85H97.5V86.25H78.75V85ZM72.5 81.25H73.75V82.5H72.5V81.25ZM72.5 82.5H76.25V83.75H72.5V82.5ZM72.5 83.75H76.25V85H72.5V83.75ZM72.5 85H77.5V86.25H72.5V85ZM75 86.25H98.75V87.5H75V86.25ZM76.25 87.5H98.75V88.75H76.25V87.5ZM77.5 88.75H100V90H77.5V88.75ZM78.75 90H100V91.25H78.75V90ZM78.75 91.25H101.25V92.5H78.75V91.25ZM77.5 92.5H101.25V93.75H77.5V92.5ZM77.5 93.75H102.5V95H77.5V93.75ZM71.25 86.25H72.5V87.5H71.25V86.25ZM67.5 87.5H72.5V88.75H67.5V87.5ZM67.5 88.75H71.25V90H67.5V88.75ZM65 90H71.25V91.25H65V90ZM65 91.25H72.5V92.5H65V91.25ZM62.5 92.5H73.75V93.75H62.5V92.5ZM58.75 93.75H75V95H58.75V93.75ZM58.75 95H67.5V96.25H58.75V95ZM68.75 95H102.5V96.25H68.75V95ZM63.75 96.25H102.5V97.5H63.75V96.25ZM63.75 97.5H102.5V98.75H63.75V97.5ZM62.5 98.75H102.5V100H62.5V98.75ZM62.5 100H65V101.25H62.5V100ZM67.5 100H102.5V101.25H67.5V100ZM63.75 101.25H66.25V102.5H63.75V101.25ZM67.5 101.25H107.5V102.5H67.5V101.25ZM115 95H120V96.25H115V95ZM112.5 96.25H120V97.5H112.5V96.25ZM112.5 97.5H121.25V98.75H112.5V97.5ZM108.75 98.75H115V100H108.75V98.75ZM116.25 98.75H125V100H116.25V98.75ZM128.75 95H130V96.25H128.75V95ZM127.5 96.25H132.5V97.5H127.5V96.25ZM125 97.5H130V98.75H125V97.5ZM125 98.75H128.75V100H125V98.75ZM107.5 100H127.5V101.25H107.5V100ZM107.5 101.25H132.5V102.5H107.5V101.25ZM66.25 102.5H98.75V103.75H66.25V102.5ZM101.25 102.5H132.5V103.75H101.25V102.5ZM67.5 103.75H132.5V105H67.5V103.75ZM70 105H71.25V106.25H70V105ZM72.5 105H133.75V106.25H72.5V105ZM72.5 106.25H132.5V107.5H72.5V106.25ZM75 107.5H125V108.75H75V107.5ZM126.25 107.5H131.25V108.75H126.25V107.5ZM75 108.75H123.75V110H75V108.75ZM127.5 108.75H131.25V110H127.5V108.75ZM76.25 110H125V111.25H76.25V110ZM127.5 110H135V111.25H127.5V110ZM135 108.75H141.25V110H135V108.75ZM135 110H141.25V111.25H135V110ZM76.25 111.25H135V112.5H76.25V111.25ZM138.75 111.25H141.25V112.5H138.75V111.25ZM77.5 112.5H135V113.75H77.5V112.5ZM137.5 112.5H142.5V113.75H137.5V112.5ZM78.75 113.75H145V115H78.75V113.75ZM77.5 115H138.75V116.25H77.5V115ZM140 115H142.5V116.25H140V115ZM75 116.25H138.75V117.5H75V116.25ZM77.5 117.5H141.25V118.75H77.5V117.5ZM77.5 118.75H142.5V120H77.5V118.75ZM142.5 117.5H143.75V118.75H142.5V117.5ZM142.5 118.75H143.75V120H142.5V118.75ZM78.75 120H143.75V121.25H78.75V120ZM78.75 121.25H145V122.5H78.75V121.25ZM78.75 122.5H140V123.75H78.75V122.5ZM142.5 122.5H146.25V123.75H142.5V122.5ZM78.75 123.75H103.75V125H78.75V123.75ZM107.5 123.75H137.5V125H107.5V123.75ZM78.75 125H102.5V126.25H78.75V125ZM107.5 125H122.5V126.25H107.5V125ZM123.75 125H138.75V126.25H123.75V125ZM77.5 126.25H102.5V127.5H77.5V126.25ZM107.5 126.25H120V127.5H107.5V126.25ZM76.25 127.5H92.5V128.75H76.25V127.5ZM95 127.5H102.5V128.75H95V127.5ZM107.5 127.5H120V128.75H107.5V127.5ZM77.5 128.75H92.5V130H77.5V128.75ZM95 128.75H103.75V130H95V128.75ZM108.75 128.75H120V130H108.75V128.75ZM77.5 130H92.5V131.25H77.5V130ZM95 130H103.75V131.25H95V130ZM108.75 130H120V131.25H108.75V130ZM76.25 131.25H78.75V132.5H76.25V131.25ZM83.75 131.25H103.75V132.5H83.75V131.25ZM110 131.25H120V132.5H110V131.25ZM76.25 132.5H81.25V133.75H76.25V132.5ZM83.75 132.5H103.75V133.75H83.75V132.5ZM110 132.5H117.5V133.75H110V132.5ZM76.25 133.75H103.75V135H76.25V133.75ZM111.25 133.75H116.25V135H111.25V133.75ZM76.25 135H77.5V136.25H76.25V135ZM81.25 135H103.75V136.25H81.25V135ZM111.25 135H115V136.25H111.25V135ZM76.25 136.25H77.5V137.5H76.25V136.25ZM82.5 136.25H102.5V137.5H82.5V136.25ZM112.5 136.25H115V137.5H112.5V136.25ZM76.25 137.5H77.5V138.75H76.25V137.5ZM82.5 137.5H102.5V138.75H82.5V137.5ZM112.5 137.5H113.75V138.75H112.5V137.5ZM76.25 138.75H77.5V140H76.25V138.75ZM82.5 138.75H101.25V140H82.5V138.75ZM112.5 138.75H113.75V140H112.5V138.75ZM76.25 140H77.5V141.25H76.25V140ZM82.5 140H95V141.25H82.5V140ZM96.25 140H100V141.25H96.25V140ZM112.5 140H113.75V141.25H112.5V140ZM78.75 141.25H92.5V142.5H78.75V141.25ZM97.5 141.25H100V142.5H97.5V141.25ZM111.25 141.25H115V142.5H111.25V141.25ZM77.5 142.5H92.5V143.75H77.5V142.5ZM97.5 142.5H100V143.75H97.5V142.5ZM111.25 142.5H115V143.75H111.25V142.5ZM80 143.75H91.25V145H80V143.75ZM97.5 143.75H101.25V145H97.5V143.75ZM111.25 143.75H113.75V145H111.25V143.75ZM80 145H83.75V146.25H80V145ZM85 145H86.25V146.25H85V145ZM88.75 145H91.25V146.25H88.75V145ZM98.75 145H101.25V146.25H98.75V145ZM108.75 145H112.5V146.25H108.75V145ZM80 146.25H83.75V147.5H80V146.25ZM88.75 146.25H90V147.5H88.75V146.25ZM100 146.25H101.25V147.5H100V146.25ZM88.75 147.5H91.25V148.75H88.75V147.5ZM100 147.5H102.5V148.75H100V147.5ZM88.75 148.75H90V150H88.75V148.75ZM100 148.75H105V150H100V148.75ZM101.25 150H105V151.25H101.25V150ZM102.5 151.25H105V152.5H102.5V151.25ZM103.75 152.5H105V153.75H103.75V152.5Z" fill="#2589EE"/>
<path d="M155 73.75H157.5V75H155V73.75Z" fill="#2589EE"/>
<path d="M138.75 77.5H140V78.75H138.75V77.5Z" fill="#2589EE"/>
<path d="M108.75 80H110V83.75H108.75V85H107.5V86.25H105V85H106.25V82.5H107.5V81.25H108.75V80Z" fill="#2589EE"/>
<path d="M25 83.75H26.25V85H25V83.75Z" fill="#2589EE"/>
<path d="M112.5 83.75H113.75V85H112.5V83.75Z" fill="#2589EE"/>
<path d="M42.5 86.25H43.75V90H41.25V88.75H42.5V87.5V86.25Z" fill="#2589EE"/>
<path d="M115 86.25H116.25V87.5H117.5V88.75H116.25V90H113.75V91.25H108.75V90H110V88.75H113.75V87.5H115V86.25Z" fill="#2589EE"/>
<path d="M73.75 88.75H75V90H73.75V88.75Z" fill="#2589EE"/>
<path d="M36.25 90H37.5V91.25H36.25V90Z" fill="#2589EE"/>
<path d="M137.5 90H140V91.25H141.25V92.5H137.5V93.75H135V92.5H136.25V91.25H137.5V90Z" fill="#2589EE"/>
<path d="M40 92.5H42.5V95H41.25V93.75H40V92.5Z" fill="#2589EE"/>
<path d="M125 92.5H126.25V93.75H125V92.5Z" fill="#2589EE"/>
<path d="M127.5 93.75H128.75V95H127.5V93.75Z" fill="#2589EE"/>
<path d="M57.5 96.25H58.75V97.5H57.5V96.25Z" fill="#2589EE"/>
<path d="M186.25 97.5H188.75V98.75H186.25V97.5Z" fill="#2589EE"/>
<path d="M165 98.75H167.5V100H171.25V101.25H165V100V98.75Z" fill="#2589EE"/>
<path d="M180 101.25H182.5V102.5H180V101.25Z" fill="#2589EE"/>
<path d="M155 102.5H158.75V103.75H160V105H161.25V106.25H160V108.75H157.5V111.25H156.25V108.75H153.75V107.5H152.5V105H153.75V103.75H155V102.5Z" fill="#2589EE"/>
<path d="M15 105H16.25V106.25H15V105Z" fill="#2589EE"/>
<path d="M143.75 106.25H146.25V107.5H147.5V108.75H146.25V110H143.75V108.75H142.5V107.5H143.75V106.25Z" fill="#2589EE"/>
<path d="M52.5 120H55V122.5H52.5V121.25V120Z" fill="#2589EE"/>
<path d="M40 122.5H41.25V123.75H40V122.5Z" fill="#2589EE"/>
<path d="M165 126.25H166.25V127.5H167.5V128.75H163.75V127.5H165V126.25Z" fill="#2589EE"/>
<path d="M68.75 128.75H71.25V130H68.75V128.75Z" fill="#2589EE"/>
<path d="M173.75 133.75H176.25V135H173.75V133.75Z" fill="#2589EE"/>
<path d="M116.25 137.5H117.5V138.75H116.25V137.5Z" fill="#2589EE"/>
<path d="M117.5 138.75H118.75V141.25H117.5V140V138.75Z" fill="#2589EE"/>
<path d="M145 142.5H146.25V143.75H145V142.5Z" fill="#2589EE"/>
<path d="M70 145H73.75V146.25H72.5V147.5H70V148.75H67.5V150H65V152.5H63.75V153.75H62.5V155H58.75V148.75H61.25V147.5H67.5V146.25H70V145Z" fill="#2589EE"/>
<path d="M107.5 146.25H108.75V148.75H107.5V147.5V146.25Z" fill="#2589EE"/>
<path d="M123.75 160H126.25V161.25H127.5V165H126.25V166.25H123.75V165H122.5V163.75H121.25V162.5H122.5V161.25H123.75V160Z" fill="#2589EE"/>
<path d="M97.5 163.75H98.75V165H97.5V163.75Z" fill="#2589EE"/>
<path d="M142.5 163.75H146.25V165H147.5V166.25H148.75V170H150V172.5H151.25V173.75H152.5V175H153.75V176.25H155V178.75H156.25V181.25H155V182.5H152.5V181.25H151.25V180H150V178.75H148.75V175H147.5V172.5H146.25V171.25H145V170H143.75V168.75H142.5V167.5H141.25V166.25H142.5V165V163.75Z" fill="#2589EE"/>
<path d="M120 167.5H122.5V168.75H120V167.5Z" fill="#2589EE"/>
<path d="M28.75 18.75H30V20H28.75V18.75Z" fill="#2589EE"/>
<path d="M27.5 20H28.75V21.25H27.5V20Z" fill="#2589EE"/>
<path d="M31.25 25H32.5V26.25H31.25V25Z" fill="#2589EE"/>
<path d="M55 32.5H56.25V33.75H55V32.5Z" fill="#2589EE"/>
<path d="M27.5 36.25H30V38.75H28.75V37.5H27.5V36.25Z" fill="#2589EE"/>
<path d="M126.25 38.75H127.5V40H126.25V38.75Z" fill="#2589EE"/>
<path d="M38.75 40H40V42.5H38.75V41.25V40Z" fill="#2589EE"/>
<path d="M68.75 41.25H70V42.5H68.75V41.25Z" fill="#2589EE"/>
<path d="M31.25 42.5H32.5V43.75H31.25V42.5Z" fill="#2589EE"/>
<path d="M122.5 42.5H123.75V43.75H122.5V42.5Z" fill="#2589EE"/>
<path d="M32.5 43.75H33.75V45H32.5V43.75Z" fill="#2589EE"/>
<path d="M36.25 43.75H37.5V45H36.25V43.75Z" fill="#2589EE"/>
<path d="M125 43.75H126.25V45H125V43.75Z" fill="#2589EE"/>
<path d="M123.75 45H125V46.25H123.75V45Z" fill="#2589EE"/>
<path d="M37.5 46.25H40V47.5H37.5V46.25Z" fill="#2589EE"/>
<path d="M41.25 51.25H42.5V52.5H41.25V51.25Z" fill="#2589EE"/>
<path d="M42.5 52.5H43.75V53.75H42.5V52.5Z" fill="#2589EE"/>
<path d="M47.5 55H48.75V56.25H47.5V55Z" fill="#2589EE"/>
<path d="M121.25 56.25H122.5V57.5H121.25V56.25Z" fill="#2589EE"/>
<path d="M171.25 60H172.5V61.25H171.25V60Z" fill="#2589EE"/>
<path d="M173.75 60H175V61.25H173.75V60Z" fill="#2589EE"/>
<path d="M50 61.25H51.25V62.5H50V61.25Z" fill="#2589EE"/>
<path d="M106.25 62.5H107.5V63.75H106.25V62.5Z" fill="#2589EE"/>
<path d="M153.75 62.5H155V63.75H153.75V62.5Z" fill="#2589EE"/>
<path d="M52.5 63.75H53.75V65H52.5V63.75Z" fill="#2589EE"/>
<path d="M92.5 63.75H93.75V66.25H92.5V65V63.75Z" fill="#2589EE"/>
<path d="M95 63.75H96.25V65H95V63.75Z" fill="#2589EE"/>
<path d="M166.25 63.75H167.5V65H166.25V63.75Z" fill="#2589EE"/>
<path d="M53.75 65H55V66.25H53.75V65Z" fill="#2589EE"/>
<path d="M158.75 66.25H160V67.5H158.75V66.25Z" fill="#2589EE"/>
<path d="M58.75 67.5H60V68.75H58.75V67.5Z" fill="#2589EE"/>
<path d="M92.5 67.5H95V70H93.75V68.75H92.5V67.5Z" fill="#2589EE"/>
<path d="M113.75 68.75H115V70H113.75V68.75Z" fill="#2589EE"/>
<path d="M138.75 68.75H140V70H138.75V68.75Z" fill="#2589EE"/>
<path d="M165 70H166.25V71.25H165V70Z" fill="#2589EE"/>
<path d="M86.25 71.25H87.5V72.5H86.25V71.25Z" fill="#2589EE"/>
<path d="M115 71.25H117.5V72.5H115V71.25Z" fill="#2589EE"/>
<path d="M63.75 72.5H65V73.75H63.75V72.5Z" fill="#2589EE"/>
<path d="M80 72.5H81.25V75H80V73.75V72.5Z" fill="#2589EE"/>
<path d="M91.25 72.5H92.5V73.75H91.25V72.5Z" fill="#2589EE"/>
<path d="M155 72.5H157.5V73.75H155V72.5Z" fill="#2589EE"/>
<path d="M76.25 73.75H77.5V75H76.25V73.75Z" fill="#2589EE"/>
<path d="M153.75 73.75H155V75H153.75V73.75Z" fill="#2589EE"/>
<path d="M78.75 75H80V76.25H78.75V75Z" fill="#2589EE"/>
<path d="M155 75H156.25V76.25H155V75Z" fill="#2589EE"/>
<path d="M137.5 77.5H138.75V78.75H137.5V77.5Z" fill="#2589EE"/>
<path d="M95 78.75H96.25V80H95V78.75Z" fill="#2589EE"/>
<path d="M138.75 78.75H140V80H138.75V78.75Z" fill="#2589EE"/>
<path d="M110 80H111.25V81.25H110V80Z" fill="#2589EE"/>
<path d="M71.25 81.25H72.5V82.5H71.25V81.25Z" fill="#2589EE"/>
<path d="M75 81.25H76.25V82.5H75V81.25Z" fill="#2589EE"/>
<path d="M96.25 81.25H97.5V82.5H96.25V81.25Z" fill="#2589EE"/>
<path d="M106.25 81.25H107.5V82.5H106.25V81.25Z" fill="#2589EE"/>
<path d="M23.75 82.5H25V83.75H23.75V82.5Z" fill="#2589EE"/>
<path d="M76.25 82.5H77.5V85H76.25V83.75V82.5Z" fill="#2589EE"/>
<path d="M78.75 82.5H80V83.75H78.75V82.5Z" fill="#2589EE"/>
<path d="M71.25 83.75H72.5V85H71.25V83.75Z" fill="#2589EE"/>
<path d="M97.5 83.75H98.75V85H97.5V83.75Z" fill="#2589EE"/>
<path d="M111.25 83.75H112.5V85H111.25V83.75Z" fill="#2589EE"/>
<path d="M112.5 85H113.75V86.25H112.5V85Z" fill="#2589EE"/>
<path d="M115 85H117.5V86.25H115V85Z" fill="#2589EE"/>
<path d="M145 85H146.25V86.25H145V85Z" fill="#2589EE"/>
<path d="M160 85H161.25V86.25H160V85Z" fill="#2589EE"/>
<path d="M68.75 86.25H70V87.5H68.75V86.25Z" fill="#2589EE"/>
<path d="M72.5 86.25H73.75V90H72.5V87.5V86.25Z" fill="#2589EE"/>
<path d="M113.75 86.25H115V87.5H113.75V86.25Z" fill="#2589EE"/>
<path d="M28.75 87.5H30V88.75H28.75V87.5Z" fill="#2589EE"/>
<path d="M43.75 87.5H45V88.75H43.75V87.5Z" fill="#2589EE"/>
<path d="M46.25 87.5H47.5V88.75H46.25V87.5Z" fill="#2589EE"/>
<path d="M75 87.5H76.25V88.75H75V87.5Z" fill="#2589EE"/>
<path d="M35 88.75H37.5V90H35V88.75Z" fill="#2589EE"/>
<path d="M65 88.75H66.25V90H65V88.75Z" fill="#2589EE"/>
<path d="M76.25 88.75H77.5V90H76.25V88.75Z" fill="#2589EE"/>
<path d="M116.25 88.75H117.5V90H116.25V88.75Z" fill="#2589EE"/>
<path d="M75 90H76.25V91.25H75V90Z" fill="#2589EE"/>
<path d="M100 90H101.25V91.25H100V90Z" fill="#2589EE"/>
<path d="M113.75 90H115V91.25H113.75V90Z" fill="#2589EE"/>
<path d="M58.75 91.25H60V93.75H58.75V92.5V91.25Z" fill="#2589EE"/>
<path d="M77.5 91.25H78.75V92.5H77.5V91.25Z" fill="#2589EE"/>
<path d="M108.75 91.25H110V92.5H108.75V91.25Z" fill="#2589EE"/>
<path d="M123.75 91.25H125V92.5H123.75V91.25Z" fill="#2589EE"/>
<path d="M101.25 92.5H102.5V93.75H101.25V92.5Z" fill="#2589EE"/>
<path d="M121.25 92.5H123.75V93.75H121.25V92.5Z" fill="#2589EE"/>
<path d="M127.5 92.5H128.75V93.75H127.5V92.5Z" fill="#2589EE"/>
<path d="M138.75 92.5H140V93.75H138.75V92.5Z" fill="#2589EE"/>
<path d="M116.25 93.75H118.75V95H116.25V93.75Z" fill="#2589EE"/>
<path d="M125 93.75H126.25V95H125V93.75Z" fill="#2589EE"/>
<path d="M56.25 95H57.5V96.25H56.25V95Z" fill="#2589EE"/>
<path d="M120 95H121.25V96.25H120V95Z" fill="#2589EE"/>
<path d="M130 95H132.5V96.25H130V95Z" fill="#2589EE"/>
<path d="M60 96.25H61.25V97.5H60V96.25Z" fill="#2589EE"/>
<path d="M102.5 96.25H103.75V98.75H102.5V97.5V96.25Z" fill="#2589EE"/>
<path d="M132.5 96.25H133.75V97.5H132.5V96.25Z" fill="#2589EE"/>
<path d="M110 97.5H111.25V98.75H110V97.5Z" fill="#2589EE"/>
<path d="M122.5 97.5H123.75V98.75H122.5V97.5Z" fill="#2589EE"/>
<path d="M130 97.5H131.25V98.75H130V97.5Z" fill="#2589EE"/>
<path d="M185 97.5H186.25V98.75H185V97.5Z" fill="#2589EE"/>
<path d="M61.25 98.75H62.5V100H61.25V98.75Z" fill="#2589EE"/>
<path d="M107.5 98.75H108.75V100H107.5V98.75Z" fill="#2589EE"/>
<path d="M115 98.75H116.25V100H115V98.75Z" fill="#2589EE"/>
<path d="M128.75 98.75H130V100H128.75V98.75Z" fill="#2589EE"/>
<path d="M163.75 98.75H165V100H163.75V98.75Z" fill="#2589EE"/>
<path d="M168.75 98.75H170V100H168.75V98.75Z" fill="#2589EE"/>
<path d="M186.25 98.75H188.75V100H186.25V98.75Z" fill="#2589EE"/>
<path d="M65 100H66.25V101.25H65V100Z" fill="#2589EE"/>
<path d="M105 100H106.25V101.25H105V100Z" fill="#2589EE"/>
<path d="M173.75 100H176.25V101.25H173.75V100Z" fill="#2589EE"/>
<path d="M55 101.25H58.75V102.5H55V101.25Z" fill="#2589EE"/>
<path d="M62.5 101.25H63.75V102.5H62.5V101.25Z" fill="#2589EE"/>
<path d="M132.5 101.25H133.75V103.75H132.5V102.5V101.25Z" fill="#2589EE"/>
<path d="M53.75 102.5H55V103.75H53.75V102.5Z" fill="#2589EE"/>
<path d="M158.75 102.5H160V103.75H158.75V102.5Z" fill="#2589EE"/>
<path d="M15 103.75H16.25V105H15V103.75Z" fill="#2589EE"/>
<path d="M16.25 105H17.5V106.25H16.25V105Z" fill="#2589EE"/>
<path d="M68.75 105H70V106.25H68.75V105Z" fill="#2589EE"/>
<path d="M71.25 105H72.5V106.25H71.25V105Z" fill="#2589EE"/>
<path d="M133.75 105H135V106.25H133.75V105Z" fill="#2589EE"/>
<path d="M145 105H146.25V106.25H145V105Z" fill="#2589EE"/>
<path d="M65 106.25H67.5V108.75H66.25V107.5H65V106.25Z" fill="#2589EE"/>
<path d="M132.5 106.25H133.75V107.5H132.5V106.25Z" fill="#2589EE"/>
<path d="M142.5 106.25H143.75V107.5H142.5V106.25Z" fill="#2589EE"/>
<path d="M147.5 107.5H148.75V108.75H147.5V107.5Z" fill="#2589EE"/>
<path d="M152.5 107.5H153.75V108.75H152.5V107.5Z" fill="#2589EE"/>
<path d="M123.75 108.75H125V110H123.75V108.75Z" fill="#2589EE"/>
<path d="M131.25 108.75H133.75V110H131.25V108.75Z" fill="#2589EE"/>
<path d="M142.5 108.75H143.75V110H142.5V108.75Z" fill="#2589EE"/>
<path d="M125 110H126.25V111.25H125V110Z" fill="#2589EE"/>
<path d="M72.5 111.25H73.75V112.5H72.5V111.25Z" fill="#2589EE"/>
<path d="M137.5 111.25H138.75V112.5H137.5V111.25Z" fill="#2589EE"/>
<path d="M141.25 111.25H142.5V112.5H141.25V111.25Z" fill="#2589EE"/>
<path d="M73.75 112.5H75V113.75H73.75V112.5Z" fill="#2589EE"/>
<path d="M76.25 112.5H77.5V113.75H76.25V112.5Z" fill="#2589EE"/>
<path d="M135 112.5H136.25V113.75H135V112.5Z" fill="#2589EE"/>
<path d="M142.5 112.5H143.75V113.75H142.5V112.5Z" fill="#2589EE"/>
<path d="M68.75 116.25H70V117.5H68.75V116.25Z" fill="#2589EE"/>
<path d="M72.5 116.25H73.75V118.75H72.5V117.5V116.25Z" fill="#2589EE"/>
<path d="M140 116.25H141.25V117.5H140V116.25Z" fill="#2589EE"/>
<path d="M142.5 116.25H143.75V117.5H142.5V116.25Z" fill="#2589EE"/>
<path d="M155 116.25H156.25V117.5H155V116.25Z" fill="#2589EE"/>
<path d="M76.25 117.5H77.5V120H76.25V118.75V117.5Z" fill="#2589EE"/>
<path d="M11.25 118.75H12.5V121.25H11.25V120V118.75Z" fill="#2589EE"/>
<path d="M52.5 118.75H55V120H52.5V118.75Z" fill="#2589EE"/>
<path d="M143.75 118.75H145V120H143.75V118.75Z" fill="#2589EE"/>
<path d="M33.75 120H35V121.25H33.75V120Z" fill="#2589EE"/>
<path d="M51.25 120H52.5V121.25H51.25V120Z" fill="#2589EE"/>
<path d="M55 121.25H56.25V122.5H55V121.25Z" fill="#2589EE"/>
<path d="M66.25 121.25H67.5V122.5H66.25V121.25Z" fill="#2589EE"/>
<path d="M38.75 122.5H40V123.75H38.75V122.5Z" fill="#2589EE"/>
<path d="M52.5 122.5H55V123.75H52.5V122.5Z" fill="#2589EE"/>
<path d="M77.5 122.5H78.75V123.75H77.5V122.5Z" fill="#2589EE"/>
<path d="M103.75 123.75H105V125H103.75V123.75Z" fill="#2589EE"/>
<path d="M106.25 123.75H107.5V127.5H106.25V125V123.75Z" fill="#2589EE"/>
<path d="M138.75 123.75H140V125H138.75V123.75Z" fill="#2589EE"/>
<path d="M141.25 123.75H142.5V126.25H140V125H141.25V123.75Z" fill="#2589EE"/>
<path d="M143.75 123.75H145V125H143.75V123.75Z" fill="#2589EE"/>
<path d="M102.5 126.25H103.75V127.5H102.5V126.25Z" fill="#2589EE"/>
<path d="M120 126.25H121.25V128.75H120V127.5V126.25Z" fill="#2589EE"/>
<path d="M130 126.25H133.75V127.5H130V126.25Z" fill="#2589EE"/>
<path d="M135 126.25H136.25V127.5H135V126.25Z" fill="#2589EE"/>
<path d="M71.25 127.5H75V128.75H72.5V130H71.25V128.75V127.5Z" fill="#2589EE"/>
<path d="M92.5 127.5H95V128.75H92.5V127.5Z" fill="#2589EE"/>
<path d="M137.5 128.75H138.75V130H137.5V128.75Z" fill="#2589EE"/>
<path d="M163.75 128.75H165V130H163.75V128.75Z" fill="#2589EE"/>
<path d="M120 131.25H121.25V132.5H120V131.25Z" fill="#2589EE"/>
<path d="M61.25 132.5H62.5V133.75H61.25V132.5Z" fill="#2589EE"/>
<path d="M117.5 132.5H118.75V133.75H117.5V132.5Z" fill="#2589EE"/>
<path d="M110 133.75H111.25V135H110V133.75Z" fill="#2589EE"/>
<path d="M116.25 133.75H117.5V135H116.25V133.75Z" fill="#2589EE"/>
<path d="M172.5 133.75H173.75V135H172.5V133.75Z" fill="#2589EE"/>
<path d="M78.75 135H80V136.25H78.75V135Z" fill="#2589EE"/>
<path d="M103.75 135H105V137.5H103.75V136.25V135Z" fill="#2589EE"/>
<path d="M173.75 135H175V136.25H173.75V135Z" fill="#2589EE"/>
<path d="M77.5 136.25H78.75V137.5H77.5V136.25Z" fill="#2589EE"/>
<path d="M111.25 136.25H112.5V138.75H111.25V137.5V136.25Z" fill="#2589EE"/>
<path d="M75 137.5H76.25V138.75H75V137.5Z" fill="#2589EE"/>
<path d="M80 137.5H82.5V138.75H80V137.5Z" fill="#2589EE"/>
<path d="M102.5 137.5H103.75V138.75H102.5V137.5Z" fill="#2589EE"/>
<path d="M117.5 137.5H118.75V138.75H117.5V137.5Z" fill="#2589EE"/>
<path d="M171.25 137.5H172.5V138.75H171.25V137.5Z" fill="#2589EE"/>
<path d="M113.75 138.75H115V140H113.75V138.75Z" fill="#2589EE"/>
<path d="M47.5 140H48.75V141.25H47.5V140Z" fill="#2589EE"/>
<path d="M75 140H76.25V141.25H75V140Z" fill="#2589EE"/>
<path d="M78.75 140H80V141.25H78.75V140Z" fill="#2589EE"/>
<path d="M81.25 140H82.5V141.25H81.25V140Z" fill="#2589EE"/>
<path d="M95 140H96.25V141.25H95V140Z" fill="#2589EE"/>
<path d="M100 140H101.25V141.25H100V140Z" fill="#2589EE"/>
<path d="M107.5 140H108.75V142.5H107.5V141.25V140Z" fill="#2589EE"/>
<path d="M111.25 140H112.5V141.25H111.25V140Z" fill="#2589EE"/>
<path d="M172.5 140H173.75V141.25H172.5V140Z" fill="#2589EE"/>
<path d="M76.25 141.25H78.75V142.5H77.5V143.75H76.25V142.5V141.25Z" fill="#2589EE"/>
<path d="M92.5 141.25H93.75V142.5H92.5V141.25Z" fill="#2589EE"/>
<path d="M115 141.25H116.25V145H115V142.5V141.25Z" fill="#2589EE"/>
<path d="M131.25 141.25H132.5V142.5H131.25V141.25Z" fill="#2589EE"/>
<path d="M145 141.25H146.25V142.5H145V141.25Z" fill="#2589EE"/>
<path d="M72.5 143.75H73.75V145H72.5V143.75Z" fill="#2589EE"/>
<path d="M93.75 143.75H95V145H93.75V143.75Z" fill="#2589EE"/>
<path d="M110 143.75H111.25V145H110V143.75Z" fill="#2589EE"/>
<path d="M143.75 143.75H145V145H143.75V143.75Z" fill="#2589EE"/>
<path d="M68.75 145H70V146.25H68.75V145Z" fill="#2589EE"/>
<path d="M73.75 145H75V146.25H73.75V145Z" fill="#2589EE"/>
<path d="M87.5 145H88.75V146.25H87.5V145Z" fill="#2589EE"/>
<path d="M112.5 145H113.75V146.25H112.5V145Z" fill="#2589EE"/>
<path d="M65 146.25H66.25V147.5H65V146.25Z" fill="#2589EE"/>
<path d="M72.5 146.25H73.75V147.5H72.5V146.25Z" fill="#2589EE"/>
<path d="M90 146.25H91.25V147.5H90V146.25Z" fill="#2589EE"/>
<path d="M105 146.25H106.25V148.75H105V147.5V146.25Z" fill="#2589EE"/>
<path d="M60 147.5H61.25V148.75H60V147.5Z" fill="#2589EE"/>
<path d="M70 147.5H71.25V148.75H70V147.5Z" fill="#2589EE"/>
<path d="M67.5 148.75H68.75V150H67.5V148.75Z" fill="#2589EE"/>
<path d="M90 148.75H91.25V150H90V148.75Z" fill="#2589EE"/>
<path d="M57.5 150H58.75V151.25H57.5V150Z" fill="#2589EE"/>
<path d="M105 151.25H106.25V152.5H105V151.25Z" fill="#2589EE"/>
<path d="M57.5 152.5H58.75V153.75H57.5V152.5Z" fill="#2589EE"/>
<path d="M142.5 152.5H143.75V153.75H142.5V152.5Z" fill="#2589EE"/>
<path d="M61.25 155H62.5V156.25H61.25V155Z" fill="#2589EE"/>
<path d="M152.5 157.5H153.75V158.75H152.5V157.5Z" fill="#2589EE"/>
<path d="M126.25 160H127.5V161.25H126.25V160Z" fill="#2589EE"/>
<path d="M107.5 161.25H108.75V162.5H107.5V161.25Z" fill="#2589EE"/>
<path d="M121.25 161.25H122.5V162.5H121.25V161.25Z" fill="#2589EE"/>
<path d="M127.5 161.25H128.75V162.5H127.5V161.25Z" fill="#2589EE"/>
<path d="M97.5 162.5H98.75V163.75H97.5V162.5Z" fill="#2589EE"/>
<path d="M96.25 163.75H97.5V165H96.25V163.75Z" fill="#2589EE"/>
<path d="M98.75 163.75H100V165H98.75V163.75Z" fill="#2589EE"/>
<path d="M127.5 163.75H128.75V165H127.5V163.75Z" fill="#2589EE"/>
<path d="M141.25 163.75H142.5V166.25H141.25V165V163.75Z" fill="#2589EE"/>
<path d="M146.25 163.75H147.5V165H146.25V163.75Z" fill="#2589EE"/>
<path d="M126.25 165H127.5V166.25H126.25V165Z" fill="#2589EE"/>
<path d="M147.5 165H148.75V166.25H147.5V165Z" fill="#2589EE"/>
<path d="M121.25 166.25H122.5V167.5H121.25V166.25Z" fill="#2589EE"/>
<path d="M121.25 168.75H122.5V170H121.25V168.75Z" fill="#2589EE"/>
<path d="M126.25 168.75H127.5V171.25H126.25V170V168.75Z" fill="#2589EE"/>
<path d="M148.75 168.75H150V170H148.75V168.75Z" fill="#2589EE"/>
<path d="M152.5 173.75H153.75V175H152.5V173.75Z" fill="#2589EE"/>
<path d="M148.75 178.75H150V180H148.75V178.75Z" fill="#2589EE"/>
<path d="M150 180H151.25V181.25H150V180Z" fill="#2589EE"/>
<path d="M151.25 181.25H152.5V182.5H151.25V181.25Z" fill="#2589EE"/>
<path d="M155 181.25H156.25V182.5H155V181.25Z" fill="#2589EE"/>
<path d="M95 188.75H96.25V190H95V188.75Z" fill="#2589EE"/>
<path d="M30 25H31.25V26.25H30V25Z" fill="#2589EE"/>
<path d="M32.5 26.25H33.75V27.5H32.5V26.25Z" fill="#2589EE"/>
<path d="M27.5 33.75H28.75V35H27.5V33.75Z" fill="#2589EE"/>
<path d="M30 37.5H32.5V38.75H30V37.5Z" fill="#2589EE"/>
<path d="M25 38.75H27.5V40H25V38.75Z" fill="#2589EE"/>
<path d="M33.75 40H35V41.25H33.75V40Z" fill="#2589EE"/>
<path d="M30 41.25H31.25V42.5H30V41.25Z" fill="#2589EE"/>
<path d="M67.5 41.25H68.75V42.5H67.5V41.25Z" fill="#2589EE"/>
<path d="M36.25 42.5H37.5V43.75H36.25V42.5Z" fill="#2589EE"/>
<path d="M37.5 45H38.75V46.25H37.5V45Z" fill="#2589EE"/>
<path d="M48.75 56.25H50V57.5H48.75V56.25Z" fill="#2589EE"/>
<path d="M120 56.25H121.25V57.5H120V56.25Z" fill="#2589EE"/>
<path d="M183.75 56.25H185V57.5H183.75V56.25Z" fill="#2589EE"/>
<path d="M45 57.5H46.25V58.75H45V57.5Z" fill="#2589EE"/>
<path d="M123.75 57.5H125V58.75H123.75V57.5Z" fill="#2589EE"/>
<path d="M77.5 63.75H78.75V65H77.5V63.75Z" fill="#2589EE"/>
<path d="M91.25 65H92.5V66.25H91.25V65Z" fill="#2589EE"/>
<path d="M95 65H96.25V66.25H95V65Z" fill="#2589EE"/>
<path d="M167.5 65H168.75V67.5H167.5V66.25V65Z" fill="#2589EE"/>
<path d="M55 66.25H56.25V67.5H55V66.25Z" fill="#2589EE"/>
<path d="M157.5 66.25H158.75V67.5H157.5V66.25Z" fill="#2589EE"/>
<path d="M60 67.5H61.25V70H60V68.75V67.5Z" fill="#2589EE"/>
<path d="M158.75 67.5H160V68.75H158.75V67.5Z" fill="#2589EE"/>
<path d="M110 68.75H111.25V70H110V68.75Z" fill="#2589EE"/>
<path d="M61.25 70H62.5V71.25H61.25V70Z" fill="#2589EE"/>
<path d="M90 70H91.25V71.25H90V70Z" fill="#2589EE"/>
<path d="M80 71.25H81.25V72.5H80V71.25Z" fill="#2589EE"/>
<path d="M85 71.25H86.25V72.5H85V71.25Z" fill="#2589EE"/>
<path d="M171.25 71.25H172.5V72.5H171.25V71.25Z" fill="#2589EE"/>
<path d="M157.5 73.75H158.75V75H157.5V73.75Z" fill="#2589EE"/>
<path d="M93.75 76.25H95V77.5H93.75V76.25Z" fill="#2589EE"/>
<path d="M140 77.5H141.25V78.75H140V77.5Z" fill="#2589EE"/>
<path d="M110 83.75H111.25V85H110V83.75Z" fill="#2589EE"/>
<path d="M25 85H26.25V86.25H25V85Z" fill="#2589EE"/>
<path d="M111.25 85H112.5V86.25H111.25V85Z" fill="#2589EE"/>
<path d="M161.25 85H162.5V86.25H161.25V85Z" fill="#2589EE"/>
<path d="M41.25 86.25H42.5V87.5H41.25V86.25Z" fill="#2589EE"/>
<path d="M67.5 86.25H68.75V87.5H67.5V86.25Z" fill="#2589EE"/>
<path d="M98.75 86.25H100V87.5H98.75V86.25Z" fill="#2589EE"/>
<path d="M102.5 86.25H103.75V87.5H102.5V86.25Z" fill="#2589EE"/>
<path d="M105 86.25H106.25V87.5H105V86.25Z" fill="#2589EE"/>
<path d="M110 87.5H111.25V88.75H110V87.5Z" fill="#2589EE"/>
<path d="M107.5 90H108.75V91.25H107.5V90Z" fill="#2589EE"/>
<path d="M136.25 90H137.5V91.25H136.25V90Z" fill="#2589EE"/>
<path d="M56.25 91.25H57.5V92.5H56.25V91.25Z" fill="#2589EE"/>
<path d="M63.75 91.25H65V92.5H63.75V91.25Z" fill="#2589EE"/>
<path d="M72.5 91.25H73.75V92.5H72.5V91.25Z" fill="#2589EE"/>
<path d="M115 93.75H116.25V95H115V93.75Z" fill="#2589EE"/>
<path d="M136.25 93.75H137.5V95H136.25V93.75Z" fill="#2589EE"/>
<path d="M112.5 95H113.75V96.25H112.5V95Z" fill="#2589EE"/>
<path d="M125 96.25H126.25V97.5H125V96.25Z" fill="#2589EE"/>
<path d="M108.75 97.5H110V98.75H108.75V97.5Z" fill="#2589EE"/>
<path d="M178.75 97.5H180V100H178.75V98.75V97.5Z" fill="#2589EE"/>
<path d="M133.75 101.25H135V102.5H133.75V101.25Z" fill="#2589EE"/>
<path d="M167.5 101.25H168.75V102.5H167.5V101.25Z" fill="#2589EE"/>
<path d="M56.25 102.5H57.5V103.75H56.25V102.5Z" fill="#2589EE"/>
<path d="M66.25 103.75H67.5V105H66.25V103.75Z" fill="#2589EE"/>
<path d="M13.75 105H15V106.25H13.75V105Z" fill="#2589EE"/>
<path d="M151.25 105H152.5V107.5H151.25V106.25V105Z" fill="#2589EE"/>
<path d="M16.25 106.25H17.5V107.5H16.25V106.25Z" fill="#2589EE"/>
<path d="M133.75 106.25H135V107.5H133.75V106.25Z" fill="#2589EE"/>
<path d="M65 107.5H66.25V108.75H65V107.5Z" fill="#2589EE"/>
<path d="M67.5 107.5H68.75V108.75H67.5V107.5Z" fill="#2589EE"/>
<path d="M131.25 107.5H132.5V108.75H131.25V107.5Z" fill="#2589EE"/>
<path d="M141.25 107.5H142.5V108.75H141.25V107.5Z" fill="#2589EE"/>
<path d="M73.75 111.25H76.25V112.5H73.75V111.25Z" fill="#2589EE"/>
<path d="M73.75 113.75H75V115H73.75V113.75Z" fill="#2589EE"/>
<path d="M70 116.25H71.25V117.5H70V116.25Z" fill="#2589EE"/>
<path d="M143.75 116.25H145V117.5H143.75V116.25Z" fill="#2589EE"/>
<path d="M58.75 117.5H60V118.75H58.75V117.5Z" fill="#2589EE"/>
<path d="M10 120H11.25V121.25H10V120Z" fill="#2589EE"/>
<path d="M41.25 120H43.75V121.25H41.25V120Z" fill="#2589EE"/>
<path d="M55 120H56.25V121.25H55V120Z" fill="#2589EE"/>
<path d="M155 121.25H156.25V122.5H155V121.25Z" fill="#2589EE"/>
<path d="M146.25 122.5H147.5V123.75H146.25V122.5Z" fill="#2589EE"/>
<path d="M40 123.75H41.25V125H40V123.75Z" fill="#2589EE"/>
<path d="M142.5 123.75H143.75V125H142.5V123.75Z" fill="#2589EE"/>
<path d="M128.75 126.25H130V127.5H128.75V126.25Z" fill="#2589EE"/>
<path d="M133.75 126.25H135V127.5H133.75V126.25Z" fill="#2589EE"/>
<path d="M68.75 127.5H70V128.75H68.75V127.5Z" fill="#2589EE"/>
<path d="M166.25 128.75H167.5V130H166.25V128.75Z" fill="#2589EE"/>
<path d="M107.5 130H108.75V131.25H107.5V130Z" fill="#2589EE"/>
<path d="M82.5 131.25H83.75V132.5H82.5V131.25Z" fill="#2589EE"/>
<path d="M75 133.75H76.25V137.5H75V135V133.75Z" fill="#2589EE"/>
<path d="M103.75 133.75H105V135H103.75V133.75Z" fill="#2589EE"/>
<path d="M175 135H176.25V136.25H175V135Z" fill="#2589EE"/>
<path d="M80 136.25H81.25V137.5H80V136.25Z" fill="#2589EE"/>
<path d="M75 138.75H76.25V140H75V138.75Z" fill="#2589EE"/>
<path d="M81.25 138.75H82.5V140H81.25V138.75Z" fill="#2589EE"/>
<path d="M100 141.25H101.25V142.5H100V141.25Z" fill="#2589EE"/>
<path d="M96.25 142.5H97.5V143.75H96.25V142.5Z" fill="#2589EE"/>
<path d="M145 143.75H146.25V145H145V143.75Z" fill="#2589EE"/>
<path d="M97.5 145H98.75V146.25H97.5V145Z" fill="#2589EE"/>
<path d="M101.25 145H102.5V147.5H101.25V146.25V145Z" fill="#2589EE"/>
<path d="M63.75 146.25H65V147.5H63.75V146.25Z" fill="#2589EE"/>
<path d="M87.5 146.25H88.75V147.5H87.5V146.25Z" fill="#2589EE"/>
<path d="M96.25 146.25H97.5V148.75H96.25V147.5V146.25Z" fill="#2589EE"/>
<path d="M103.75 146.25H105V147.5H103.75V146.25Z" fill="#2589EE"/>
<path d="M151.25 146.25H152.5V147.5H151.25V146.25Z" fill="#2589EE"/>
<path d="M108.75 147.5H110V148.75H108.75V147.5Z" fill="#2589EE"/>
<path d="M57.5 148.75H58.75V150H57.5V148.75Z" fill="#2589EE"/>
<path d="M87.5 148.75H88.75V150H87.5V148.75Z" fill="#2589EE"/>
<path d="M105 148.75H107.5V150H105V148.75Z" fill="#2589EE"/>
<path d="M101.25 151.25H102.5V152.5H101.25V151.25Z" fill="#2589EE"/>
<path d="M63.75 152.5H65V153.75H63.75V152.5Z" fill="#2589EE"/>
<path d="M102.5 152.5H103.75V153.75H102.5V152.5Z" fill="#2589EE"/>
<path d="M57.5 153.75H58.75V155H57.5V153.75Z" fill="#2589EE"/>
<path d="M105 153.75H106.25V155H105V153.75Z" fill="#2589EE"/>
<path d="M142.5 153.75H143.75V155H142.5V153.75Z" fill="#2589EE"/>
<path d="M60 155H61.25V156.25H60V155Z" fill="#2589EE"/>
<path d="M103.75 155H105V157.5H103.75V156.25V155Z" fill="#2589EE"/>
<path d="M120 166.25H121.25V167.5H120V166.25Z" fill="#2589EE"/>
<path d="M62.5 167.5H63.75V168.75H62.5V167.5Z" fill="#2589EE"/>
<path d="M76.25 168.75H78.75V170H76.25V168.75Z" fill="#2589EE"/>
<path d="M160 182.5H161.25V183.75H160V182.5Z" fill="#2589EE"/>
</svg>
