<svg width="200" height="200" viewBox="0 0 200 200" fill="none" xmlns="http://www.w3.org/2000/svg">
<path d="M73.3334 12H74.6667V13.3333H73.3334V12Z" fill="#FF7F00"/>
<path d="M150.667 16H152V17.3333H154.667V18.6667H153.333V20H152V21.3333H150.667V17.3333V16Z" fill="#FF7F00"/>
<path d="M126.667 17.3333H129.333V20H126.667V18.6667V17.3333Z" fill="#FF7F00"/>
<path d="M148 21.3333H150.667V22.6667H152V24H150.667V25.3333H148V26.6667H146.667V24H148V22.6667V21.3333Z" fill="#FF7F00"/>
<path d="M137.333 29.3333H144V32H145.333V33.3333H144V36H142.667V37.3333H141.333V38.6667H138.667V37.3333H137.333V36H136V33.3333H134.667V32H136V30.6667H137.333V29.3333Z" fill="#FF7F00"/>
<path d="M114.667 37.3333H116V38.6667H114.667V37.3333Z" fill="#FF7F00"/>
<path d="M136 42.6667H138.667V46.6667H134.667V45.3333H136V44V42.6667Z" fill="#FF7F00"/>
<path d="M109.333 52H110.667V53.3333H112V54.6667H114.667V58.6667H110.667V57.3333H109.333V56H108V53.3333H109.333V52Z" fill="#FF7F00"/>
<path d="M105.333 54.6667H106.667V58.6667H105.333V56V54.6667Z" fill="#FF7F00"/>
<path d="M100 57.3333H101.333V58.6667H104V62.6667H101.333V61.3333H98.6666V60H100V58.6667V57.3333Z" fill="#FF7F00"/>
<path d="M90.6666 58.6667H92V60H90.6666V58.6667Z" fill="#FF7F00"/>
<path d="M184 58.6667H185.333V60H184V58.6667Z" fill="#FF7F00"/>
<path d="M108 60H109.333V61.3333H108V60Z" fill="#FF7F00"/>
<path d="M109.333 61.3333H110.667V62.6667H109.333V61.3333ZM109.333 62.6667H112V64H109.333V62.6667ZM112 61.3333H114.667V62.6667H112V61.3333ZM112 62.6667H117.333V64H112V62.6667ZM108 64H117.333V65.3333H108V64ZM109.333 65.3333H117.333V66.6667H109.333V65.3333ZM108 66.6667H117.333V68H108V66.6667ZM110.667 68H117.333V69.3333H110.667V68ZM112 69.3333H118.667V70.6667H112V69.3333ZM112 70.6667H118.667V72H112V70.6667ZM113.333 72H118.667V73.3333H113.333V72ZM113.333 73.3333H118.667V74.6667H113.333V73.3333ZM113.333 74.6667H118.667V76H113.333V74.6667ZM113.333 76H120V77.3333H113.333V76ZM113.333 77.3333H120V78.6667H113.333V77.3333ZM113.333 78.6667H120V80H113.333V78.6667ZM98.6666 77.3333H101.333V78.6667H98.6666V77.3333ZM98.6666 78.6667H102.667V80H98.6666V78.6667ZM102.667 77.3333H104V78.6667H102.667V77.3333ZM102.667 78.6667H105.333V80H102.667V78.6667ZM105.333 77.3333H109.333V78.6667H105.333V77.3333ZM105.333 78.6667H110.667V80H105.333V78.6667ZM97.3333 80H120V81.3333H97.3333V80ZM96 81.3333H120V82.6667H96V81.3333ZM96 82.6667H121.333V84H96V82.6667ZM96 84H121.333V85.3333H96V84ZM97.3333 85.3333H121.333V86.6667H97.3333V85.3333ZM97.3333 86.6667H121.333V88H97.3333V86.6667ZM98.6666 88H122.667V89.3333H98.6666V88ZM98.6666 89.3333H122.667V90.6667H98.6666V89.3333ZM100 90.6667H122.667V92H100V90.6667ZM101.333 92H124V93.3333H101.333V92ZM102.667 93.3333H124V94.6667H102.667V93.3333ZM101.333 94.6667H125.333V96H101.333V94.6667ZM100 96H126.667V97.3333H100V96ZM126.667 94.6667H129.333V96H126.667V94.6667ZM126.667 96H130.667V97.3333H126.667V96ZM98.6666 97.3333H126.667V98.6667H98.6666V97.3333ZM96 98.6667H125.333V100H96V98.6667ZM94.6666 100H125.333V101.333H94.6666V100ZM85.3333 97.3333H86.6666V98.6667H85.3333V97.3333ZM81.3333 98.6667H88V100H81.3333V98.6667ZM81.3333 100H89.3333V101.333H81.3333V100ZM89.3333 98.6667H90.6666V100H89.3333V98.6667ZM89.3333 100H90.6666V101.333H89.3333V100ZM80 101.333H125.333V102.667H80V101.333ZM80 102.667H114.667V104H80V102.667ZM121.333 102.667H122.667V104H121.333V102.667ZM81.3333 104H116V105.333H81.3333V104ZM80 105.333H121.333V106.667H80V105.333ZM81.3333 106.667H116V108H81.3333V106.667ZM118.667 106.667H122.667V108H118.667V106.667ZM81.3333 108H122.667V109.333H81.3333V108ZM80 109.333H124V110.667H80V109.333ZM124 108H125.333V109.333H124V108ZM124 109.333H128V110.667H124V109.333ZM78.6666 110.667H129.333V112H78.6666V110.667ZM77.3333 112H132V113.333H77.3333V112ZM80 113.333H128V114.667H80V113.333ZM129.333 113.333H130.667V114.667H129.333V113.333ZM76 114.667H130.667V116H76V114.667ZM68 112H69.3333V113.333H68V112ZM66.6666 113.333H72V114.667H66.6666V113.333ZM65.3333 114.667H69.3333V116H65.3333V114.667ZM70.6666 114.667H72V116H70.6666V114.667ZM65.3333 116H73.3333V117.333H65.3333V116ZM73.3333 114.667H74.6666V116H73.3333V114.667ZM73.3333 116H133.333V117.333H73.3333V116ZM64 117.333H70.6666V118.667H64V117.333ZM72 117.333H134.667V118.667H72V117.333ZM136 114.667H137.333V116H136V114.667ZM134.667 116H138.667V117.333H134.667V116ZM134.667 117.333H149.333V118.667H134.667V117.333ZM62.6666 118.667H150.667V120H62.6666V118.667ZM64 120H152V121.333H64V120ZM62.6666 121.333H77.3333V122.667H62.6666V121.333ZM78.6666 121.333H152V122.667H78.6666V121.333ZM64 122.667H66.6666V124H64V122.667ZM74.6666 122.667H76V124H74.6666V122.667ZM77.3333 122.667H152V124H77.3333V122.667ZM80 124H97.3333V125.333H80V124ZM98.6666 124H108V125.333H98.6666V124ZM112 124H152V125.333H112V124ZM80 125.333H101.333V126.667H80V125.333ZM102.667 125.333H112V126.667H102.667V125.333ZM113.333 125.333H150.667V126.667H113.333V125.333ZM78.6666 126.667H93.3333V128H78.6666V126.667ZM96 126.667H98.6666V128H96V126.667ZM100 126.667H101.333V128H100V126.667ZM104 126.667H149.333V128H104V126.667ZM80 128H93.3333V129.333H80V128ZM105.333 128H133.333V129.333H105.333V128ZM134.667 128H145.333V129.333H134.667V128ZM80 129.333H94.6666V130.667H80V129.333ZM105.333 129.333H117.333V130.667H105.333V129.333ZM124 129.333H132V130.667H124V129.333ZM78.6666 130.667H93.3333V132H78.6666V130.667ZM105.333 130.667H117.333V132H105.333V130.667ZM78.6666 132H92V133.333H78.6666V132ZM105.333 132H117.333V133.333H105.333V132ZM78.6666 133.333H90.6666V134.667H78.6666V133.333ZM105.333 133.333H118.667V134.667H105.333V133.333ZM78.6666 134.667H89.3333V136H78.6666V134.667ZM97.3333 130.667H100V132H97.3333V130.667ZM97.3333 132H100V133.333H97.3333V132ZM97.3333 133.333H101.333V134.667H97.3333V133.333ZM96 134.667H120V136H96V134.667ZM80 136H86.6666V137.333H80V136ZM96 136H120V137.333H96V136ZM80 137.333H84V138.667H80V137.333ZM94.6666 137.333H120V138.667H94.6666V137.333ZM80 138.667H82.6666V140H80V138.667ZM94.6666 138.667H121.333V140H94.6666V138.667ZM80 140H82.6666V141.333H80V140ZM94.6666 140H121.333V141.333H94.6666V140ZM93.3333 141.333H97.3333V142.667H93.3333V141.333ZM105.333 141.333H120V142.667H105.333V141.333ZM93.3333 142.667H97.3333V144H93.3333V142.667ZM106.667 142.667H117.333V144H106.667V142.667ZM93.3333 144H96V145.333H93.3333V144Z" fill="#FF7F00"/>
<path d="M128 62.6667H129.333V65.3333H128V64V62.6667Z" fill="#FF7F00"/>
<path d="M101.333 66.6667H105.333V69.3333H101.333V70.6667H100V72H98.6667V73.3333H97.3333V72H96V70.6667H97.3333V68H101.333V66.6667Z" fill="#FF7F00"/>
<path d="M125.333 68H126.667V70.6667H124V69.3333H125.333V68Z" fill="#FF7F00"/>
<path d="M90.6667 69.3333H92V70.6667H90.6667V69.3333ZM89.3333 70.6667H93.3333V72H89.3333V70.6667ZM88 72H94.6667V73.3333H88V72ZM88 73.3333H96V74.6667H88V73.3333ZM86.6667 74.6667H89.3333V76H86.6667V74.6667ZM90.6667 74.6667H94.6667V76H90.6667V74.6667ZM85.3333 76H96V77.3333H85.3333V76ZM85.3333 77.3333H96V78.6667H85.3333V77.3333ZM84 78.6667H93.3333V80H84V78.6667ZM84 80H90.6667V81.3333H84V80ZM85.3333 81.3333H88V82.6667H85.3333V81.3333Z" fill="#FF7F00"/>
<path d="M22.6666 73.3333H25.3333V76H22.6666V74.6667V73.3333Z" fill="#FF7F00"/>
<path d="M102.667 74.6667H104V76H102.667V74.6667Z" fill="#FF7F00"/>
<path d="M132 82.6667H134.667V89.3333H133.333V93.3333H130.667V90.6667H132V85.3333H128V84H132V82.6667Z" fill="#FF7F00"/>
<path d="M77.3334 88H78.6667V89.3333H77.3334V88Z" fill="#FF7F00"/>
<path d="M93.3334 92H94.6667V93.3333H93.3334V92Z" fill="#FF7F00"/>
<path d="M12 93.3333H13.3333V94.6667H12V93.3333Z" fill="#FF7F00"/>
<path d="M129.333 93.3333H130.667V94.6667H129.333V93.3333Z" fill="#FF7F00"/>
<path d="M61.3333 96H64V100H65.3333V101.333H57.3333V100H56V98.6667H60V97.3333H61.3333V96Z" fill="#FF7F00"/>
<path d="M74.6666 97.3333H77.3333V98.6667H78.6666V100H80V101.333H78.6666V102.667H77.3333V100H76V98.6667H74.6666V97.3333Z" fill="#FF7F00"/>
<path d="M92 98.6667H93.3333V100H92V98.6667Z" fill="#FF7F00"/>
<path d="M72 101.333H73.3333V102.667H76V104H74.6666V105.333H73.3333V104H70.6666V102.667H72V101.333Z" fill="#FF7F00"/>
<path d="M168 101.333H169.333V102.667H168V101.333Z" fill="#FF7F00"/>
<path d="M132 110.667H133.333V112H132V110.667Z" fill="#FF7F00"/>
<path d="M73.3334 112H74.6667V113.333H73.3334V112Z" fill="#FF7F00"/>
<path d="M133.333 112H134.667V113.333H133.333V112Z" fill="#FF7F00"/>
<path d="M134.667 113.333H136V114.667H134.667V113.333Z" fill="#FF7F00"/>
<path d="M44 116H45.3333V117.333H48V118.667H44V117.333V116Z" fill="#FF7F00"/>
<path d="M181.333 120H184V122.667H182.667V121.333H181.333V120Z" fill="#FF7F00"/>
<path d="M73.3334 125.333H74.6667V126.667H73.3334V125.333Z" fill="#FF7F00"/>
<path d="M160 137.333H161.333V138.667H160V137.333Z" fill="#FF7F00"/>
<path d="M184 138.667H185.333V140H184V138.667Z" fill="#FF7F00"/>
<path d="M182.667 140H184V141.333H182.667V140Z" fill="#FF7F00"/>
<path d="M128 141.333H129.333V148H130.667V149.333H132V150.667H137.333V152H140V158.667H134.667V157.333H133.333V154.667H132V152H130.667V150.667H128V146.667H126.667V145.333H128V142.667V141.333Z" fill="#FF7F00"/>
<path d="M97.3333 156H98.6666V157.333H101.333V160H104V158.667H105.333V157.333H106.667V166.667H105.333V168H104V170.667H102.667V173.333H98.6666V174.667H97.3333V177.333H96V180H94.6666V184H93.3333V181.333H92V177.333H93.3333V176H90.6666V169.333H92V165.333H93.3333V162.667H94.6666V158.667H96V157.333H97.3333V156Z" fill="#FF7F00"/>
<path d="M32 160H34.6667V161.333H32V160Z" fill="#FF7F00"/>
<path d="M154.667 161.333H156V162.667H154.667V161.333Z" fill="#FF7F00"/>
<path d="M105.333 180H109.333V181.333H108V184H106.667V188H104V186.667H102.667V184H104V181.333H105.333V180Z" fill="#FF7F00"/>
<path d="M73.3333 13.3333H74.6666V14.6667H73.3333V13.3333Z" fill="#FF7F00"/>
<path d="M132 13.3333H134.667V14.6667H132V13.3333Z" fill="#FF7F00"/>
<path d="M149.333 16H150.667V17.3333H149.333V16Z" fill="#FF7F00"/>
<path d="M129.333 17.3333H130.667V18.6667H129.333V17.3333Z" fill="#FF7F00"/>
<path d="M141.333 28H142.667V29.3333H141.333V28Z" fill="#FF7F00"/>
<path d="M136 29.3333H137.333V30.6667H136V29.3333Z" fill="#FF7F00"/>
<path d="M110.667 33.3333H112V34.6667H110.667V33.3333Z" fill="#FF7F00"/>
<path d="M114.667 38.6667H116V40H114.667V38.6667Z" fill="#FF7F00"/>
<path d="M105.333 40H108V41.3333H105.333V40Z" fill="#FF7F00"/>
<path d="M105.333 42.6667H106.667V44H105.333V42.6667Z" fill="#FF7F00"/>
<path d="M106.667 53.3333H108V54.6667H106.667V53.3333Z" fill="#FF7F00"/>
<path d="M98.6666 56H100V57.3333H98.6666V56Z" fill="#FF7F00"/>
<path d="M104 57.3333H105.333V58.6667H104V57.3333Z" fill="#FF7F00"/>
<path d="M109.333 58.6667H110.667V60H109.333V58.6667Z" fill="#FF7F00"/>
<path d="M90.6666 60H92V61.3333H90.6666V60Z" fill="#FF7F00"/>
<path d="M184 60H185.333V61.3333H184V60Z" fill="#FF7F00"/>
<path d="M100 61.3333H101.333V62.6667H100V61.3333Z" fill="#FF7F00"/>
<path d="M78.6666 64H80V65.3333H78.6666V64Z" fill="#FF7F00"/>
<path d="M129.333 64H130.667V65.3333H129.333V64Z" fill="#FF7F00"/>
<path d="M93.3333 66.6667H94.6666V68H93.3333V66.6667Z" fill="#FF7F00"/>
<path d="M106.667 68H108V69.3333H106.667V68Z" fill="#FF7F00"/>
<path d="M126.667 68H128V69.3333H126.667V68Z" fill="#FF7F00"/>
<path d="M88 69.3333H89.3333V70.6667H88V69.3333Z" fill="#FF7F00"/>
<path d="M102.667 69.3333H104V70.6667H102.667V69.3333Z" fill="#FF7F00"/>
<path d="M74.6666 70.6667H76V72H74.6666V70.6667Z" fill="#FF7F00"/>
<path d="M100 70.6667H101.333V72H100V70.6667Z" fill="#FF7F00"/>
<path d="M104 70.6667H105.333V72H104V70.6667Z" fill="#FF7F00"/>
<path d="M118.667 72H120V73.3333H118.667V72Z" fill="#FF7F00"/>
<path d="M25.3333 73.3333H26.6666V74.6667H25.3333V73.3333Z" fill="#FF7F00"/>
<path d="M112 73.3333H113.333V74.6667H112V73.3333Z" fill="#FF7F00"/>
<path d="M96 74.6667H97.3333V76H96V74.6667Z" fill="#FF7F00"/>
<path d="M97.3333 76H98.6666V77.3333H97.3333V76Z" fill="#FF7F00"/>
<path d="M106.667 76H108V77.3333H106.667V76Z" fill="#FF7F00"/>
<path d="M109.333 76H110.667V77.3333H109.333V76Z" fill="#FF7F00"/>
<path d="M78.6666 77.3333H80V78.6667H78.6666V77.3333Z" fill="#FF7F00"/>
<path d="M120 78.6667H121.333V80H120V78.6667Z" fill="#FF7F00"/>
<path d="M96 80H97.3333V81.3333H96V80Z" fill="#FF7F00"/>
<path d="M21.3333 85.3333H22.6666V86.6667H21.3333V85.3333Z" fill="#FF7F00"/>
<path d="M76 86.6667H77.3333V88H76V86.6667Z" fill="#FF7F00"/>
<path d="M130.667 86.6667H132V88H130.667V86.6667Z" fill="#FF7F00"/>
<path d="M134.667 86.6667H136V88H134.667V86.6667Z" fill="#FF7F00"/>
<path d="M80 90.6667H81.3333V92H80V90.6667Z" fill="#FF7F00"/>
<path d="M93.3333 90.6667H94.6666V92H93.3333V90.6667Z" fill="#FF7F00"/>
<path d="M94.6666 92H96V93.3333H94.6666V92Z" fill="#FF7F00"/>
<path d="M40 93.3333H41.3333V94.6667H40V93.3333Z" fill="#FF7F00"/>
<path d="M45.3333 93.3333H46.6666V94.6667H45.3333V93.3333Z" fill="#FF7F00"/>
<path d="M54.6666 94.6667H56V96H54.6666V94.6667Z" fill="#FF7F00"/>
<path d="M64 94.6667H65.3333V96H64V94.6667Z" fill="#FF7F00"/>
<path d="M129.333 94.6667H130.667V96H129.333V94.6667Z" fill="#FF7F00"/>
<path d="M89.3333 96H90.6666V97.3333H89.3333V96Z" fill="#FF7F00"/>
<path d="M150.667 96H152V98.6667H150.667V97.3333V96Z" fill="#FF7F00"/>
<path d="M57.3333 97.3333H58.6666V98.6667H57.3333V97.3333Z" fill="#FF7F00"/>
<path d="M73.3333 97.3333H74.6666V98.6667H73.3333V97.3333Z" fill="#FF7F00"/>
<path d="M81.3333 97.3333H82.6666V98.6667H81.3333V97.3333Z" fill="#FF7F00"/>
<path d="M93.3333 98.6667H94.6666V100H93.3333V98.6667Z" fill="#FF7F00"/>
<path d="M48 100H49.3333V101.333H48V100Z" fill="#FF7F00"/>
<path d="M56 100H57.3333V101.333H56V100Z" fill="#FF7F00"/>
<path d="M66.6666 100H69.3333V101.333H66.6666V100Z" fill="#FF7F00"/>
<path d="M90.6666 100H93.3333V101.333H90.6666V100Z" fill="#FF7F00"/>
<path d="M58.6666 101.333H60V102.667H58.6666V101.333Z" fill="#FF7F00"/>
<path d="M62.6666 101.333H65.3333V102.667H64V104H62.6666V102.667V101.333Z" fill="#FF7F00"/>
<path d="M118.667 104H120V105.333H118.667V104Z" fill="#FF7F00"/>
<path d="M73.3333 105.333H74.6666V106.667H73.3333V105.333Z" fill="#FF7F00"/>
<path d="M122.667 106.667H125.333V108H122.667V106.667Z" fill="#FF7F00"/>
<path d="M14.6666 108H16V109.333H14.6666V108Z" fill="#FF7F00"/>
<path d="M128 109.333H129.333V110.667H128V109.333Z" fill="#FF7F00"/>
<path d="M132 109.333H133.333V110.667H132V109.333Z" fill="#FF7F00"/>
<path d="M170.667 109.333H172V110.667H170.667V109.333Z" fill="#FF7F00"/>
<path d="M68 110.667H69.3333V112H68V110.667Z" fill="#FF7F00"/>
<path d="M40 112H41.3333V113.333H40V112Z" fill="#FF7F00"/>
<path d="M65.3333 113.333H66.6666V114.667H65.3333V113.333Z" fill="#FF7F00"/>
<path d="M77.3333 113.333H78.6666V114.667H77.3333V113.333Z" fill="#FF7F00"/>
<path d="M62.6666 114.667H65.3333V116H62.6666V114.667Z" fill="#FF7F00"/>
<path d="M45.3333 116H46.6666V117.333H45.3333V116Z" fill="#FF7F00"/>
<path d="M149.333 117.333H150.667V118.667H149.333V117.333Z" fill="#FF7F00"/>
<path d="M46.6666 118.667H48V120H46.6666V118.667Z" fill="#FF7F00"/>
<path d="M150.667 118.667H152V120H150.667V118.667Z" fill="#FF7F00"/>
<path d="M181.333 118.667H182.667V120H181.333V118.667Z" fill="#FF7F00"/>
<path d="M61.3333 121.333H62.6666V122.667H61.3333V121.333Z" fill="#FF7F00"/>
<path d="M184 121.333H185.333V122.667H184V121.333Z" fill="#FF7F00"/>
<path d="M49.3333 122.667H50.6666V124H49.3333V122.667Z" fill="#FF7F00"/>
<path d="M69.3333 122.667H70.6666V124H69.3333V122.667Z" fill="#FF7F00"/>
<path d="M109.333 124H110.667V125.333H109.333V124Z" fill="#FF7F00"/>
<path d="M96 128H97.3333V129.333H96V128Z" fill="#FF7F00"/>
<path d="M73.3333 129.333H74.6666V132H73.3333V130.667V129.333Z" fill="#FF7F00"/>
<path d="M137.333 129.333H138.667V130.667H137.333V129.333Z" fill="#FF7F00"/>
<path d="M140 129.333H141.333V130.667H140V129.333Z" fill="#FF7F00"/>
<path d="M93.3333 130.667H94.6666V132H93.3333V130.667Z" fill="#FF7F00"/>
<path d="M125.333 130.667H126.667V132H125.333V130.667Z" fill="#FF7F00"/>
<path d="M128 130.667H130.667V132H128V130.667Z" fill="#FF7F00"/>
<path d="M100 132H101.333V133.333H100V132Z" fill="#FF7F00"/>
<path d="M77.3333 133.333H78.6666V134.667H77.3333V133.333Z" fill="#FF7F00"/>
<path d="M102.667 133.333H104V134.667H102.667V133.333Z" fill="#FF7F00"/>
<path d="M140 138.667H141.333V140H140V138.667Z" fill="#FF7F00"/>
<path d="M61.3333 142.667H62.6666V144H61.3333V142.667Z" fill="#FF7F00"/>
<path d="M118.667 142.667H120V144H118.667V142.667Z" fill="#FF7F00"/>
<path d="M58.6666 144H60V145.333H58.6666V144Z" fill="#FF7F00"/>
<path d="M66.6666 145.333H68V146.667H66.6666V145.333Z" fill="#FF7F00"/>
<path d="M90.6666 145.333H92V146.667H90.6666V145.333Z" fill="#FF7F00"/>
<path d="M97.3333 145.333H98.6666V146.667H97.3333V145.333Z" fill="#FF7F00"/>
<path d="M129.333 145.333H130.667V146.667H129.333V145.333Z" fill="#FF7F00"/>
<path d="M125.333 146.667H126.667V148H125.333V146.667Z" fill="#FF7F00"/>
<path d="M53.3333 148H54.6666V149.333H53.3333V148Z" fill="#FF7F00"/>
<path d="M132 149.333H133.333V150.667H132V149.333Z" fill="#FF7F00"/>
<path d="M48 150.667H49.3333V152H48V150.667Z" fill="#FF7F00"/>
<path d="M98.6666 154.667H100V156H98.6666V154.667Z" fill="#FF7F00"/>
<path d="M96 156H97.3333V157.333H96V156Z" fill="#FF7F00"/>
<path d="M132 156H133.333V157.333H132V156Z" fill="#FF7F00"/>
<path d="M130.667 158.667H132V160H130.667V158.667Z" fill="#FF7F00"/>
<path d="M169.333 158.667H170.667V160H169.333V158.667Z" fill="#FF7F00"/>
<path d="M93.3333 160H94.6666V161.333H93.3333V160Z" fill="#FF7F00"/>
<path d="M106.667 162.667H108V164H106.667V162.667Z" fill="#FF7F00"/>
<path d="M89.3333 173.333H90.6666V174.667H89.3333V173.333Z" fill="#FF7F00"/>
<path d="M90.6666 181.333H92V182.667H90.6666V181.333Z" fill="#FF7F00"/>
<path d="M101.333 13.3333H102.667V14.6667H101.333V13.3333Z" fill="#FF7F00"/>
<path d="M153.333 16H154.667V17.3333H153.333V16Z" fill="#FF7F00"/>
<path d="M149.333 20H150.667V21.3333H149.333V20Z" fill="#FF7F00"/>
<path d="M148 25.3333H149.333V26.6667H148V25.3333Z" fill="#FF7F00"/>
<path d="M145.333 26.6667H146.667V28H145.333V26.6667Z" fill="#FF7F00"/>
<path d="M137.333 28H138.667V29.3333H137.333V28Z" fill="#FF7F00"/>
<path d="M140 28H141.333V29.3333H140V28Z" fill="#FF7F00"/>
<path d="M88 30.6667H89.3333V32H88V30.6667Z" fill="#FF7F00"/>
<path d="M144 30.6667H145.333V32H144V30.6667Z" fill="#FF7F00"/>
<path d="M72 32H73.3333V33.3333H74.6667V34.6667H72V33.3333V32Z" fill="#FF7F00"/>
<path d="M109.333 32H112V33.3333H109.333V32Z" fill="#FF7F00"/>
<path d="M134.667 33.3333H136V34.6667H134.667V33.3333Z" fill="#FF7F00"/>
<path d="M144 34.6667H145.333V36H144V34.6667Z" fill="#FF7F00"/>
<path d="M90.6666 36H92V37.3333H90.6666V36Z" fill="#FF7F00"/>
<path d="M136 36H137.333V37.3333H136V36Z" fill="#FF7F00"/>
<path d="M109.333 37.3333H110.667V38.6667H109.333V37.3333Z" fill="#FF7F00"/>
<path d="M137.333 37.3333H138.667V38.6667H137.333V37.3333Z" fill="#FF7F00"/>
<path d="M141.333 37.3333H142.667V38.6667H141.333V37.3333Z" fill="#FF7F00"/>
<path d="M136 41.3333H137.333V42.6667H136V41.3333Z" fill="#FF7F00"/>
<path d="M134.667 42.6667H136V44H134.667V42.6667Z" fill="#FF7F00"/>
<path d="M154.667 45.3333H156V46.6667H154.667V45.3333Z" fill="#FF7F00"/>
<path d="M133.333 46.6667H137.333V48H133.333V46.6667Z" fill="#FF7F00"/>
<path d="M149.333 49.3333H152V50.6667H149.333V49.3333Z" fill="#FF7F00"/>
<path d="M108 52H109.333V53.3333H108V52Z" fill="#FF7F00"/>
<path d="M110.667 52H112V53.3333H110.667V52Z" fill="#FF7F00"/>
<path d="M113.333 53.3333H114.667V54.6667H113.333V53.3333Z" fill="#FF7F00"/>
<path d="M104 54.6667H105.333V56H104V54.6667Z" fill="#FF7F00"/>
<path d="M106.667 54.6667H108V56H109.333V57.3333H106.667V56V54.6667Z" fill="#FF7F00"/>
<path d="M114.667 54.6667H116V56H114.667V54.6667Z" fill="#FF7F00"/>
<path d="M102.667 57.3333H104V58.6667H102.667V57.3333Z" fill="#FF7F00"/>
<path d="M109.333 57.3333H110.667V58.6667H109.333V57.3333Z" fill="#FF7F00"/>
<path d="M114.667 57.3333H116V58.6667H114.667V57.3333Z" fill="#FF7F00"/>
<path d="M184 57.3333H185.333V58.6667H184V57.3333Z" fill="#FF7F00"/>
<path d="M89.3333 58.6667H90.6666V60H89.3333V58.6667Z" fill="#FF7F00"/>
<path d="M105.333 58.6667H106.667V60H105.333V58.6667Z" fill="#FF7F00"/>
<path d="M112 58.6667H113.333V61.3333H112V60V58.6667Z" fill="#FF7F00"/>
<path d="M182.667 58.6667H184V60H182.667V58.6667Z" fill="#FF7F00"/>
<path d="M185.333 58.6667H186.667V60H185.333V58.6667Z" fill="#FF7F00"/>
<path d="M104 60H105.333V62.6667H104V61.3333V60Z" fill="#FF7F00"/>
<path d="M109.333 60H110.667V61.3333H109.333V60Z" fill="#FF7F00"/>
<path d="M98.6666 61.3333H100V62.6667H98.6666V61.3333Z" fill="#FF7F00"/>
<path d="M108 61.3333H109.333V62.6667H108V61.3333Z" fill="#FF7F00"/>
<path d="M114.667 61.3333H116V62.6667H114.667V61.3333Z" fill="#FF7F00"/>
<path d="M97.3333 62.6667H98.6666V65.3333H97.3333V64V62.6667Z" fill="#FF7F00"/>
<path d="M102.667 62.6667H104V64H102.667V62.6667Z" fill="#FF7F00"/>
<path d="M126.667 62.6667H128V65.3333H126.667V64V62.6667Z" fill="#FF7F00"/>
<path d="M94.6666 64H96V65.3333H94.6666V64Z" fill="#FF7F00"/>
<path d="M106.667 64H108V65.3333H106.667V64Z" fill="#FF7F00"/>
<path d="M117.333 64H118.667V66.6667H117.333V65.3333V64Z" fill="#FF7F00"/>
<path d="M96 65.3333H97.3333V66.6667H96V65.3333Z" fill="#FF7F00"/>
<path d="M101.333 65.3333H102.667V66.6667H101.333V65.3333Z" fill="#FF7F00"/>
<path d="M100 66.6667H101.333V68H100V66.6667Z" fill="#FF7F00"/>
<path d="M28 68H29.3333V69.3333H28V68Z" fill="#FF7F00"/>
<path d="M108 68H110.667V69.3333H108V68Z" fill="#FF7F00"/>
<path d="M124 68H125.333V69.3333H124V68Z" fill="#FF7F00"/>
<path d="M94.6666 69.3333H96V70.6667H94.6666V69.3333Z" fill="#FF7F00"/>
<path d="M101.333 69.3333H102.667V70.6667H101.333V69.3333Z" fill="#FF7F00"/>
<path d="M105.333 69.3333H106.667V70.6667H105.333V69.3333Z" fill="#FF7F00"/>
<path d="M126.667 69.3333H128V70.6667H126.667V69.3333Z" fill="#FF7F00"/>
<path d="M88 70.6667H89.3333V72H88V70.6667Z" fill="#FF7F00"/>
<path d="M110.667 70.6667H112V72H110.667V70.6667Z" fill="#FF7F00"/>
<path d="M94.6666 72H97.3333V74.6667H96V73.3333H94.6666V72Z" fill="#FF7F00"/>
<path d="M101.333 72H102.667V73.3333H101.333V72Z" fill="#FF7F00"/>
<path d="M112 72H113.333V73.3333H112V72Z" fill="#FF7F00"/>
<path d="M86.6666 73.3333H88V74.6667H86.6666V73.3333Z" fill="#FF7F00"/>
<path d="M98.6666 73.3333H100V77.3333H98.6666V74.6667V73.3333Z" fill="#FF7F00"/>
<path d="M118.667 73.3333H120V74.6667H118.667V73.3333Z" fill="#FF7F00"/>
<path d="M25.3333 74.6667H26.6666V76H25.3333V74.6667Z" fill="#FF7F00"/>
<path d="M85.3333 74.6667H86.6666V76H85.3333V74.6667Z" fill="#FF7F00"/>
<path d="M89.3333 74.6667H90.6666V76H89.3333V74.6667Z" fill="#FF7F00"/>
<path d="M94.6666 74.6667H96V76H94.6666V74.6667Z" fill="#FF7F00"/>
<path d="M101.333 74.6667H102.667V76H101.333V74.6667Z" fill="#FF7F00"/>
<path d="M105.333 74.6667H106.667V77.3333H105.333V76V74.6667Z" fill="#FF7F00"/>
<path d="M96 76H97.3333V77.3333H96V76Z" fill="#FF7F00"/>
<path d="M108 76H109.333V77.3333H108V76Z" fill="#FF7F00"/>
<path d="M84 77.3333H85.3333V78.6667H84V77.3333Z" fill="#FF7F00"/>
<path d="M120 80H121.333V81.3333H120V80Z" fill="#FF7F00"/>
<path d="M88 81.3333H89.3333V82.6667H88V81.3333Z" fill="#FF7F00"/>
<path d="M94.6666 81.3333H96V82.6667H94.6666V81.3333Z" fill="#FF7F00"/>
<path d="M93.3333 82.6667H94.6666V84H93.3333V82.6667Z" fill="#FF7F00"/>
<path d="M121.333 82.6667H122.667V85.3333H121.333V84V82.6667Z" fill="#FF7F00"/>
<path d="M125.333 82.6667H126.667V84H125.333V82.6667Z" fill="#FF7F00"/>
<path d="M126.667 84H128V85.3333H126.667V84Z" fill="#FF7F00"/>
<path d="M12 85.3333H13.3333V86.6667H12V85.3333Z" fill="#FF7F00"/>
<path d="M20 85.3333H21.3333V86.6667H20V85.3333Z" fill="#FF7F00"/>
<path d="M96 85.3333H97.3333V86.6667H96V85.3333Z" fill="#FF7F00"/>
<path d="M130.667 85.3333H132V86.6667H130.667V85.3333Z" fill="#FF7F00"/>
<path d="M121.333 86.6667H122.667V88H121.333V86.6667Z" fill="#FF7F00"/>
<path d="M76 88H77.3333V89.3333H76V88Z" fill="#FF7F00"/>
<path d="M97.3333 88H98.6666V89.3333H97.3333V88Z" fill="#FF7F00"/>
<path d="M130.667 88H132V90.6667H130.667V89.3333V88Z" fill="#FF7F00"/>
<path d="M122.667 89.3333H124V90.6667H122.667V89.3333Z" fill="#FF7F00"/>
<path d="M78.6666 90.6667H80V93.3333H78.6666V92V90.6667Z" fill="#FF7F00"/>
<path d="M133.333 90.6667H134.667V92H133.333V90.6667Z" fill="#FF7F00"/>
<path d="M10.6666 92H12V94.6667H10.6666V93.3333V92Z" fill="#FF7F00"/>
<path d="M40 92H41.3333V93.3333H40V92Z" fill="#FF7F00"/>
<path d="M92 92H93.3333V93.3333H92V92Z" fill="#FF7F00"/>
<path d="M129.333 92H130.667V93.3333H129.333V92Z" fill="#FF7F00"/>
<path d="M44 93.3333H45.3333V94.6667H44V93.3333Z" fill="#FF7F00"/>
<path d="M64 93.3333H65.3333V94.6667H64V93.3333Z" fill="#FF7F00"/>
<path d="M93.3333 93.3333H94.6666V94.6667H93.3333V93.3333Z" fill="#FF7F00"/>
<path d="M128 93.3333H129.333V94.6667H128V93.3333Z" fill="#FF7F00"/>
<path d="M130.667 93.3333H132V94.6667H130.667V93.3333Z" fill="#FF7F00"/>
<path d="M56 94.6667H57.3333V96H56V94.6667Z" fill="#FF7F00"/>
<path d="M61.3333 94.6667H62.6666V96H61.3333V94.6667Z" fill="#FF7F00"/>
<path d="M125.333 94.6667H126.667V96H125.333V94.6667Z" fill="#FF7F00"/>
<path d="M40 96H41.3333V97.3333H40V96Z" fill="#FF7F00"/>
<path d="M76 96H77.3333V97.3333H76V96Z" fill="#FF7F00"/>
<path d="M84 96H85.3333V97.3333H84V96Z" fill="#FF7F00"/>
<path d="M52 97.3333H54.6667V98.6667H53.3333V100H52V98.6667V97.3333Z" fill="#FF7F00"/>
<path d="M78.6666 97.3333H81.3333V98.6667H78.6666V97.3333Z" fill="#FF7F00"/>
<path d="M92 97.3333H93.3333V98.6667H92V97.3333Z" fill="#FF7F00"/>
<path d="M64 98.6667H66.6667V100H64V98.6667Z" fill="#FF7F00"/>
<path d="M73.3333 98.6667H74.6666V100H73.3333V98.6667Z" fill="#FF7F00"/>
<path d="M125.333 98.6667H126.667V100H125.333V98.6667Z" fill="#FF7F00"/>
<path d="M42.6666 100H44V101.333H42.6666V100Z" fill="#FF7F00"/>
<path d="M69.3333 100H70.6666V101.333H69.3333V100Z" fill="#FF7F00"/>
<path d="M75.9999 100H77.3333V102.667H73.3333V101.333H75.9999V100Z" fill="#FF7F00"/>
<path d="M60 101.333H62.6667V102.667H60V101.333Z" fill="#FF7F00"/>
<path d="M65.3333 102.667H67.9999V104H65.3333V102.667Z" fill="#FF7F00"/>
<path d="M78.6666 102.667H80V104H78.6666V102.667Z" fill="#FF7F00"/>
<path d="M114.667 102.667H116V104H114.667V102.667Z" fill="#FF7F00"/>
<path d="M117.333 102.667H118.667V104H117.333V102.667Z" fill="#FF7F00"/>
<path d="M120 102.667H121.333V104H120V102.667Z" fill="#FF7F00"/>
<path d="M150.667 102.667H152V104H150.667V102.667Z" fill="#FF7F00"/>
<path d="M169.333 102.667H170.667V104H169.333V102.667Z" fill="#FF7F00"/>
<path d="M29.3333 104H30.6666V105.333H29.3333V104Z" fill="#FF7F00"/>
<path d="M76 104H77.3333V105.333H76V104Z" fill="#FF7F00"/>
<path d="M80 104H81.3333V105.333H80V104Z" fill="#FF7F00"/>
<path d="M121.333 105.333H122.667V106.667H121.333V105.333Z" fill="#FF7F00"/>
<path d="M56 106.667H57.3333V108H56V106.667Z" fill="#FF7F00"/>
<path d="M77.3333 106.667H78.6666V108H77.3333V106.667Z" fill="#FF7F00"/>
<path d="M80 106.667H81.3333V108H80V106.667Z" fill="#FF7F00"/>
<path d="M117.333 106.667H118.667V108H117.333V106.667Z" fill="#FF7F00"/>
<path d="M126.667 106.667H128V108H126.667V106.667Z" fill="#FF7F00"/>
<path d="M13.3333 108H14.6666V109.333H13.3333V108Z" fill="#FF7F00"/>
<path d="M78.6666 108H80V109.333H78.6666V108Z" fill="#FF7F00"/>
<path d="M122.667 108H124V109.333H122.667V108Z" fill="#FF7F00"/>
<path d="M125.333 108H126.667V109.333H125.333V108Z" fill="#FF7F00"/>
<path d="M73.3333 109.333H74.6666V110.667H73.3333V109.333Z" fill="#FF7F00"/>
<path d="M76 110.667H78.6666V112H77.3333V113.333H74.6666V112H76V110.667Z" fill="#FF7F00"/>
<path d="M130.667 110.667H132V112H130.667V110.667Z" fill="#FF7F00"/>
<path d="M133.333 110.667H134.667V112H133.333V110.667Z" fill="#FF7F00"/>
<path d="M65.3333 112H66.6666V113.333H65.3333V112Z" fill="#FF7F00"/>
<path d="M134.667 112H136V113.333H134.667V112Z" fill="#FF7F00"/>
<path d="M133.333 113.333H134.667V114.667H133.333V113.333Z" fill="#FF7F00"/>
<path d="M42.6666 114.667H45.3333V116H42.6666V114.667Z" fill="#FF7F00"/>
<path d="M130.667 114.667H133.333V116H130.667V114.667Z" fill="#FF7F00"/>
<path d="M64 116H65.3333V117.333H64V116Z" fill="#FF7F00"/>
<path d="M140 116H144V117.333H140V116Z" fill="#FF7F00"/>
<path d="M145.333 116H146.667V117.333H145.333V116Z" fill="#FF7F00"/>
<path d="M61.3333 118.667H62.6666V120H61.3333V118.667Z" fill="#FF7F00"/>
<path d="M182.667 118.667H184V120H182.667V118.667Z" fill="#FF7F00"/>
<path d="M45.3333 120H46.6666V121.333H45.3333V120Z" fill="#FF7F00"/>
<path d="M62.6666 120H64V121.333H62.6666V120Z" fill="#FF7F00"/>
<path d="M184 120H185.333V121.333H184V120Z" fill="#FF7F00"/>
<path d="M44 121.333H45.3333V122.667H44V121.333Z" fill="#FF7F00"/>
<path d="M73.3333 122.667H74.6666V124H73.3333V122.667Z" fill="#FF7F00"/>
<path d="M108 124H109.333V125.333H108V124Z" fill="#FF7F00"/>
<path d="M110.667 124H112V125.333H110.667V124Z" fill="#FF7F00"/>
<path d="M101.333 125.333H102.667V126.667H101.333V125.333Z" fill="#FF7F00"/>
<path d="M150.667 125.333H152V126.667H150.667V125.333Z" fill="#FF7F00"/>
<path d="M149.333 126.667H150.667V128H149.333V126.667Z" fill="#FF7F00"/>
<path d="M77.3333 128H78.6666V129.333H77.3333V128Z" fill="#FF7F00"/>
<path d="M93.3333 128H94.6666V129.333H93.3333V128Z" fill="#FF7F00"/>
<path d="M97.3333 128H98.6666V129.333H97.3333V128Z" fill="#FF7F00"/>
<path d="M104 128H105.333V129.333H104V128Z" fill="#FF7F00"/>
<path d="M146.667 128H148V129.333H146.667V128Z" fill="#FF7F00"/>
<path d="M74.6666 129.333H76V130.667H74.6666V129.333Z" fill="#FF7F00"/>
<path d="M78.6666 129.333H80V130.667H78.6666V129.333Z" fill="#FF7F00"/>
<path d="M98.6666 129.333H100V130.667H98.6666V129.333Z" fill="#FF7F00"/>
<path d="M121.333 129.333H122.667V130.667H121.333V129.333Z" fill="#FF7F00"/>
<path d="M138.667 129.333H140V130.667H138.667V129.333Z" fill="#FF7F00"/>
<path d="M169.333 129.333H170.667V130.667H169.333V129.333Z" fill="#FF7F00"/>
<path d="M126.667 130.667H128V132H126.667V130.667Z" fill="#FF7F00"/>
<path d="M180 130.667H182.667V132H180V130.667Z" fill="#FF7F00"/>
<path d="M92 132H93.3333V133.333H92V132Z" fill="#FF7F00"/>
<path d="M117.333 132H118.667V133.333H117.333V132Z" fill="#FF7F00"/>
<path d="M101.333 133.333H102.667V134.667H101.333V133.333Z" fill="#FF7F00"/>
<path d="M104 133.333H105.333V134.667H104V133.333Z" fill="#FF7F00"/>
<path d="M89.3333 134.667H90.6666V136H89.3333V134.667Z" fill="#FF7F00"/>
<path d="M157.333 134.667H158.667V136H157.333V134.667Z" fill="#FF7F00"/>
<path d="M86.6666 136H88V137.333H86.6666V136Z" fill="#FF7F00"/>
<path d="M93.3333 136H94.6666V137.333H93.3333V136Z" fill="#FF7F00"/>
<path d="M120 136H121.333V137.333H120V136Z" fill="#FF7F00"/>
<path d="M136 136H137.333V137.333H136V136Z" fill="#FF7F00"/>
<path d="M84 137.333H85.3333V138.667H84V137.333Z" fill="#FF7F00"/>
<path d="M154.667 137.333H156V138.667H154.667V137.333Z" fill="#FF7F00"/>
<path d="M165.333 137.333H166.667V140H165.333V138.667V137.333Z" fill="#FF7F00"/>
<path d="M184 140H185.333V142.667H182.667V141.333H184V140Z" fill="#FF7F00"/>
<path d="M78.6666 141.333H80V142.667H78.6666V141.333Z" fill="#FF7F00"/>
<path d="M97.3333 141.333H98.6666V142.667H97.3333V141.333Z" fill="#FF7F00"/>
<path d="M101.333 141.333H104V142.667H101.333V141.333Z" fill="#FF7F00"/>
<path d="M117.333 142.667H118.667V144H117.333V142.667Z" fill="#FF7F00"/>
<path d="M96 144H97.3333V145.333H96V144Z" fill="#FF7F00"/>
<path d="M57.3333 145.333H58.6666V146.667H57.3333V145.333Z" fill="#FF7F00"/>
<path d="M93.3333 145.333H95.9999V146.667H93.3333V145.333Z" fill="#FF7F00"/>
<path d="M72 148H73.3333V149.333H72V148Z" fill="#FF7F00"/>
<path d="M126.667 148H128V149.333H126.667V148Z" fill="#FF7F00"/>
<path d="M140 148H141.333V149.333H140V148Z" fill="#FF7F00"/>
<path d="M188 149.333H189.333V150.667H188V149.333Z" fill="#FF7F00"/>
<path d="M129.333 150.667H130.667V152H129.333V150.667Z" fill="#FF7F00"/>
<path d="M137.333 150.667H138.667V152H137.333V150.667Z" fill="#FF7F00"/>
<path d="M81.3333 152H82.6666V153.333H81.3333V152Z" fill="#FF7F00"/>
<path d="M140 153.333H141.333V154.667H140V153.333Z" fill="#FF7F00"/>
<path d="M98.6666 156H100V157.333H98.6666V156Z" fill="#FF7F00"/>
<path d="M130.667 157.333H132V158.667H130.667V157.333Z" fill="#FF7F00"/>
<path d="M140 157.333H141.333V158.667H140V157.333Z" fill="#FF7F00"/>
<path d="M33.3333 158.667H34.6666V160H33.3333V158.667Z" fill="#FF7F00"/>
<path d="M60 158.667H61.3333V160H60V158.667Z" fill="#FF7F00"/>
<path d="M101.333 158.667H104V160H101.333V158.667Z" fill="#FF7F00"/>
<path d="M106.667 158.667H108V160H106.667V158.667Z" fill="#FF7F00"/>
<path d="M134.667 158.667H136V160H134.667V158.667Z" fill="#FF7F00"/>
<path d="M138.667 158.667H140V160H138.667V158.667Z" fill="#FF7F00"/>
<path d="M156 160H157.333V161.333H156V160Z" fill="#FF7F00"/>
<path d="M64 161.333H65.3333V162.667H64V161.333Z" fill="#FF7F00"/>
<path d="M106.667 161.333H108V162.667H106.667V161.333Z" fill="#FF7F00"/>
<path d="M92 162.667H93.3333V164H92V162.667Z" fill="#FF7F00"/>
<path d="M90.6666 166.667H92V169.333H90.6666V168V166.667Z" fill="#FF7F00"/>
<path d="M105.333 166.667H106.667V168H105.333V166.667Z" fill="#FF7F00"/>
<path d="M24 169.333H25.3333V170.667H24V169.333Z" fill="#FF7F00"/>
<path d="M102.667 170.667H104V172H102.667V170.667Z" fill="#FF7F00"/>
<path d="M89.3333 172H90.6666V173.333H89.3333V172Z" fill="#FF7F00"/>
<path d="M98.6666 173.333H100V174.667H98.6666V173.333Z" fill="#FF7F00"/>
<path d="M97.3333 174.667H98.6666V176H97.3333V174.667Z" fill="#FF7F00"/>
<path d="M96 177.333H97.3333V178.667H96V177.333Z" fill="#FF7F00"/>
<path d="M90.6666 178.667H92V181.333H90.6666V180V178.667Z" fill="#FF7F00"/>
<path d="M104 180H105.333V181.333H104V180Z" fill="#FF7F00"/>
<path d="M92 181.333H93.3333V184H92V182.667V181.333Z" fill="#FF7F00"/>
<path d="M94.6666 181.333H96V182.667H94.6666V181.333Z" fill="#FF7F00"/>
<path d="M93.3333 184H94.6666V185.333H93.3333V184Z" fill="#FF7F00"/>
<path d="M106.667 184H108V185.333H106.667V184Z" fill="#FF7F00"/>
<path d="M152 16H153.333V17.3333H152V16Z" fill="#FF7F00"/>
<path d="M149.333 17.3333H150.667V20H149.333V18.6667V17.3333Z" fill="#FF7F00"/>
<path d="M129.333 18.6667H130.667V20H129.333V18.6667Z" fill="#FF7F00"/>
<path d="M153.333 18.6667H154.667V20H153.333V18.6667Z" fill="#FF7F00"/>
<path d="M152 20H153.333V21.3333H152V20Z" fill="#FF7F00"/>
<path d="M150.667 21.3333H152V22.6667H150.667V21.3333Z" fill="#FF7F00"/>
<path d="M146.667 22.6667H148V24H146.667V22.6667Z" fill="#FF7F00"/>
<path d="M138.667 28H140V29.3333H138.667V28Z" fill="#FF7F00"/>
<path d="M86.6666 29.3333H88V30.6667H86.6666V29.3333Z" fill="#FF7F00"/>
<path d="M134.667 30.6667H136V32H134.667V30.6667Z" fill="#FF7F00"/>
<path d="M88 32H89.3333V33.3333H88V32Z" fill="#FF7F00"/>
<path d="M89.3333 33.3333H90.6666V34.6667H89.3333V33.3333Z" fill="#FF7F00"/>
<path d="M144 33.3333H145.333V34.6667H144V33.3333Z" fill="#FF7F00"/>
<path d="M142.667 36H144V37.3333H142.667V36Z" fill="#FF7F00"/>
<path d="M113.333 37.3333H114.667V38.6667H113.333V37.3333Z" fill="#FF7F00"/>
<path d="M137.333 41.3333H138.667V42.6667H137.333V41.3333Z" fill="#FF7F00"/>
<path d="M134.667 44H136V45.3333H134.667V44Z" fill="#FF7F00"/>
<path d="M109.333 50.6667H110.667V52H109.333V50.6667Z" fill="#FF7F00"/>
<path d="M105.333 53.3333H106.667V54.6667H105.333V53.3333Z" fill="#FF7F00"/>
<path d="M146.667 53.3333H148V54.6667H146.667V53.3333Z" fill="#FF7F00"/>
<path d="M100 56H101.333V57.3333H100V56Z" fill="#FF7F00"/>
<path d="M104 56H105.333V57.3333H104V56Z" fill="#FF7F00"/>
<path d="M114.667 56H116V57.3333H114.667V56Z" fill="#FF7F00"/>
<path d="M101.333 57.3333H102.667V58.6667H101.333V57.3333Z" fill="#FF7F00"/>
<path d="M144 57.3333H145.333V58.6667H144V57.3333Z" fill="#FF7F00"/>
<path d="M106.667 58.6667H109.333V60H106.667V58.6667Z" fill="#FF7F00"/>
<path d="M113.333 58.6667H114.667V61.3333H113.333V60V58.6667Z" fill="#FF7F00"/>
<path d="M89.3333 60H90.6666V61.3333H89.3333V60Z" fill="#FF7F00"/>
<path d="M110.667 61.3333H112V62.6667H110.667V61.3333Z" fill="#FF7F00"/>
<path d="M101.333 62.6667H102.667V64H101.333V62.6667Z" fill="#FF7F00"/>
<path d="M108 62.6667H109.333V64H108V62.6667Z" fill="#FF7F00"/>
<path d="M96 64H97.3333V65.3333H96V64Z" fill="#FF7F00"/>
<path d="M98.6666 64H100V65.3333H98.6666V64Z" fill="#FF7F00"/>
<path d="M105.333 65.3333H109.333V66.6667H108V68H106.667V66.6667H105.333V65.3333Z" fill="#FF7F00"/>
<path d="M128 65.3333H129.333V66.6667H128V65.3333Z" fill="#FF7F00"/>
<path d="M117.333 66.6667H118.667V69.3333H117.333V68V66.6667Z" fill="#FF7F00"/>
<path d="M93.3333 68H94.6666V69.3333H93.3333V68Z" fill="#FF7F00"/>
<path d="M89.3333 69.3333H90.6666V70.6667H89.3333V69.3333Z" fill="#FF7F00"/>
<path d="M92 69.3333H93.3333V70.6667H92V69.3333Z" fill="#FF7F00"/>
<path d="M96 69.3333H97.3333V70.6667H96V69.3333Z" fill="#FF7F00"/>
<path d="M104 69.3333H105.333V70.6667H104V69.3333Z" fill="#FF7F00"/>
<path d="M110.667 69.3333H112V70.6667H110.667V69.3333Z" fill="#FF7F00"/>
<path d="M93.3333 70.6667H95.9999V72H93.3333V70.6667Z" fill="#FF7F00"/>
<path d="M101.333 70.6667H102.667V72H101.333V70.6667Z" fill="#FF7F00"/>
<path d="M98.6666 72H100V73.3333H98.6666V72Z" fill="#FF7F00"/>
<path d="M97.3333 73.3333H98.6666V74.6667H97.3333V73.3333Z" fill="#FF7F00"/>
<path d="M102.667 73.3333H104V74.6667H102.667V73.3333Z" fill="#FF7F00"/>
<path d="M105.333 73.3333H106.667V74.6667H105.333V73.3333Z" fill="#FF7F00"/>
<path d="M112 74.6667H113.333V76H112V74.6667Z" fill="#FF7F00"/>
<path d="M118.667 74.6667H120V76H118.667V74.6667Z" fill="#FF7F00"/>
<path d="M100 76H101.333V77.3333H100V76Z" fill="#FF7F00"/>
<path d="M102.667 76H104V77.3333H102.667V76Z" fill="#FF7F00"/>
<path d="M96 77.3333H98.6667V80H97.3333V78.6667H96V77.3333Z" fill="#FF7F00"/>
<path d="M101.333 77.3333H102.667V78.6667H101.333V77.3333Z" fill="#FF7F00"/>
<path d="M104 77.3333H105.333V78.6667H104V77.3333Z" fill="#FF7F00"/>
<path d="M109.333 77.3333H110.667V78.6667H109.333V77.3333Z" fill="#FF7F00"/>
<path d="M93.3333 78.6667H95.9999V80H93.3333V78.6667Z" fill="#FF7F00"/>
<path d="M110.667 78.6667H112V80H110.667V78.6667Z" fill="#FF7F00"/>
<path d="M90.6666 80H92V81.3333H90.6666V80Z" fill="#FF7F00"/>
<path d="M84 81.3333H85.3333V82.6667H84V81.3333Z" fill="#FF7F00"/>
<path d="M120 81.3333H121.333V82.6667H120V81.3333Z" fill="#FF7F00"/>
<path d="M94.6666 82.6667H96V84H94.6666V82.6667Z" fill="#FF7F00"/>
<path d="M126.667 82.6667H128V84H126.667V82.6667Z" fill="#FF7F00"/>
<path d="M134.667 84H136V86.6667H134.667V85.3333V84Z" fill="#FF7F00"/>
<path d="M77.3333 89.3333H79.9999V90.6667H77.3333V89.3333Z" fill="#FF7F00"/>
<path d="M133.333 89.3333H134.667V90.6667H133.333V89.3333Z" fill="#FF7F00"/>
<path d="M50.6666 90.6667H52V92H50.6666V90.6667Z" fill="#FF7F00"/>
<path d="M122.667 90.6667H124V92H122.667V90.6667Z" fill="#FF7F00"/>
<path d="M65.3333 93.3333H66.6666V94.6667H65.3333V93.3333Z" fill="#FF7F00"/>
<path d="M101.333 93.3333H102.667V94.6667H101.333V93.3333Z" fill="#FF7F00"/>
<path d="M100 94.6667H101.333V96H100V94.6667Z" fill="#FF7F00"/>
<path d="M48 96H49.3333V97.3333H48V96Z" fill="#FF7F00"/>
<path d="M64 96H65.3333V98.6667H64V97.3333V96Z" fill="#FF7F00"/>
<path d="M98.6666 96H100V97.3333H98.6666V96Z" fill="#FF7F00"/>
<path d="M58.6666 97.3333H60V98.6667H58.6666V97.3333Z" fill="#FF7F00"/>
<path d="M77.3333 97.3333H78.6666V98.6667H77.3333V97.3333Z" fill="#FF7F00"/>
<path d="M89.3333 97.3333H90.6666V98.6667H89.3333V97.3333Z" fill="#FF7F00"/>
<path d="M97.3333 97.3333H98.6666V98.6667H97.3333V97.3333Z" fill="#FF7F00"/>
<path d="M126.667 97.3333H130.667V98.6667H126.667V97.3333Z" fill="#FF7F00"/>
<path d="M74.6666 98.6667H76V100H74.6666V98.6667Z" fill="#FF7F00"/>
<path d="M78.6666 98.6667H81.3333V101.333H80V100H78.6666V98.6667Z" fill="#FF7F00"/>
<path d="M88 98.6667H89.3333V100H88V98.6667Z" fill="#FF7F00"/>
<path d="M90.6666 98.6667H92V100H90.6666V98.6667Z" fill="#FF7F00"/>
<path d="M65.3333 100H66.6666V101.333H65.3333V100Z" fill="#FF7F00"/>
<path d="M93.3333 100H94.6666V101.333H93.3333V100Z" fill="#FF7F00"/>
<path d="M78.6666 101.333H80V102.667H78.6666V101.333Z" fill="#FF7F00"/>
<path d="M169.333 101.333H170.667V102.667H169.333V101.333Z" fill="#FF7F00"/>
<path d="M64 102.667H65.3333V104H64V102.667Z" fill="#FF7F00"/>
<path d="M68 102.667H69.3333V104H68V102.667Z" fill="#FF7F00"/>
<path d="M76 102.667H78.6667V104H76V102.667Z" fill="#FF7F00"/>
<path d="M116 102.667H117.333V104H118.667V105.333H116V104V102.667Z" fill="#FF7F00"/>
<path d="M122.667 102.667H124V104H122.667V102.667Z" fill="#FF7F00"/>
<path d="M168 102.667H169.333V104H168V102.667Z" fill="#FF7F00"/>
<path d="M74.6666 104H76V105.333H74.6666V104Z" fill="#FF7F00"/>
<path d="M78.6666 105.333H80V106.667H78.6666V105.333Z" fill="#FF7F00"/>
<path d="M116 106.667H117.333V108H116V106.667Z" fill="#FF7F00"/>
<path d="M80 108H81.3333V109.333H80V108Z" fill="#FF7F00"/>
<path d="M169.333 109.333H170.667V110.667H169.333V109.333Z" fill="#FF7F00"/>
<path d="M73.3333 110.667H75.9999V112H73.3333V110.667Z" fill="#FF7F00"/>
<path d="M129.333 110.667H130.667V112H129.333V110.667Z" fill="#FF7F00"/>
<path d="M69.3333 112H73.3333V113.333H74.6666V114.667H73.3333V116H71.9999V113.333H69.3333V112Z" fill="#FF7F00"/>
<path d="M132 112H133.333V113.333H132V112Z" fill="#FF7F00"/>
<path d="M78.6666 113.333H80V114.667H78.6666V113.333Z" fill="#FF7F00"/>
<path d="M69.3333 114.667H70.6666V116H69.3333V114.667Z" fill="#FF7F00"/>
<path d="M74.6666 114.667H76V116H74.6666V114.667Z" fill="#FF7F00"/>
<path d="M134.667 114.667H136V116H134.667V114.667Z" fill="#FF7F00"/>
<path d="M42.6666 116H44V118.667H42.6666V117.333V116Z" fill="#FF7F00"/>
<path d="M133.333 116H134.667V117.333H133.333V116Z" fill="#FF7F00"/>
<path d="M138.667 116H140V117.333H138.667V116Z" fill="#FF7F00"/>
<path d="M144 116H145.333V117.333H144V116Z" fill="#FF7F00"/>
<path d="M70.6666 117.333H72V118.667H70.6666V117.333Z" fill="#FF7F00"/>
<path d="M44 118.667H46.6667V120H45.3333V121.333H44V120V118.667Z" fill="#FF7F00"/>
<path d="M77.3333 121.333H78.6666V122.667H77.3333V121.333Z" fill="#FF7F00"/>
<path d="M181.333 121.333H182.667V122.667H181.333V121.333Z" fill="#FF7F00"/>
<path d="M62.6666 122.667H64V124H62.6666V122.667Z" fill="#FF7F00"/>
<path d="M66.6666 122.667H68V124H66.6666V122.667Z" fill="#FF7F00"/>
<path d="M76 122.667H77.3333V124H76V122.667Z" fill="#FF7F00"/>
<path d="M78.6666 124H80V126.667H78.6666V125.333V124Z" fill="#FF7F00"/>
<path d="M97.3333 124H98.6666V125.333H97.3333V124Z" fill="#FF7F00"/>
<path d="M74.6666 125.333H76V126.667H74.6666V125.333Z" fill="#FF7F00"/>
<path d="M112 125.333H113.333V126.667H112V125.333Z" fill="#FF7F00"/>
<path d="M93.3333 126.667H95.9999V130.667H94.6666V128H93.3333V126.667Z" fill="#FF7F00"/>
<path d="M98.6666 126.667H100V128H98.6666V126.667Z" fill="#FF7F00"/>
<path d="M74.6666 128H76V129.333H74.6666V128Z" fill="#FF7F00"/>
<path d="M78.6666 128H80V129.333H78.6666V128Z" fill="#FF7F00"/>
<path d="M133.333 128H134.667V129.333H133.333V128Z" fill="#FF7F00"/>
<path d="M145.333 128H146.667V129.333H145.333V128Z" fill="#FF7F00"/>
<path d="M97.3333 129.333H98.6666V130.667H97.3333V129.333Z" fill="#FF7F00"/>
<path d="M122.667 129.333H124V130.667H122.667V129.333Z" fill="#FF7F00"/>
<path d="M77.3333 132H78.6666V133.333H77.3333V132Z" fill="#FF7F00"/>
<path d="M90.6666 133.333H92V134.667H90.6666V133.333Z" fill="#FF7F00"/>
<path d="M94.6666 133.333H97.3333V134.667H96V137.333H94.6666V134.667V133.333Z" fill="#FF7F00"/>
<path d="M158.667 134.667H160V136H158.667V134.667Z" fill="#FF7F00"/>
<path d="M93.3333 137.333H94.6666V141.333H93.3333V138.667V137.333Z" fill="#FF7F00"/>
<path d="M120 137.333H121.333V138.667H120V137.333Z" fill="#FF7F00"/>
<path d="M82.6666 138.667H84V140H82.6666V138.667Z" fill="#FF7F00"/>
<path d="M182.667 138.667H184V140H182.667V138.667Z" fill="#FF7F00"/>
<path d="M128 140H129.333V141.333H128V140Z" fill="#FF7F00"/>
<path d="M181.333 140H182.667V142.667H181.333V141.333V140Z" fill="#FF7F00"/>
<path d="M104 141.333H105.333V142.667H104V141.333Z" fill="#FF7F00"/>
<path d="M120 141.333H121.333V142.667H120V141.333Z" fill="#FF7F00"/>
<path d="M105.333 142.667H106.667V144H105.333V142.667Z" fill="#FF7F00"/>
<path d="M96 145.333H97.3333V146.667H96V145.333Z" fill="#FF7F00"/>
<path d="M125.333 145.333H126.667V146.667H125.333V145.333Z" fill="#FF7F00"/>
<path d="M126.667 146.667H128V148H126.667V146.667Z" fill="#FF7F00"/>
<path d="M129.333 146.667H130.667V148H129.333V146.667Z" fill="#FF7F00"/>
<path d="M130.667 152H132V153.333H130.667V152Z" fill="#FF7F00"/>
<path d="M97.3333 154.667H98.6666V156H97.3333V154.667Z" fill="#FF7F00"/>
<path d="M132 154.667H133.333V156H132V154.667Z" fill="#FF7F00"/>
<path d="M140 154.667H141.333V157.333H140V156V154.667Z" fill="#FF7F00"/>
<path d="M133.333 157.333H134.667V158.667H133.333V157.333Z" fill="#FF7F00"/>
<path d="M136 158.667H138.667V160H136V158.667Z" fill="#FF7F00"/>
<path d="M106.667 160H108V161.333H106.667V160Z" fill="#FF7F00"/>
<path d="M154.667 160H156V161.333H154.667V160Z" fill="#FF7F00"/>
<path d="M93.3333 161.333H94.6666V162.667H93.3333V161.333Z" fill="#FF7F00"/>
<path d="M92 164H93.3333V165.333H92V164Z" fill="#FF7F00"/>
<path d="M104 168H105.333V169.333H104V168Z" fill="#FF7F00"/>
<path d="M92 176H93.3333V177.333H92V176Z" fill="#FF7F00"/>
<path d="M94.6666 180H96V181.333H94.6666V180Z" fill="#FF7F00"/>
<path d="M108 181.333H109.333V182.667H108V181.333Z" fill="#FF7F00"/>
<path d="M102.667 182.667H104V184H102.667V182.667Z" fill="#FF7F00"/>
<path d="M102.667 186.667H104V188H102.667V186.667Z" fill="#FF7F00"/>
</svg>
