<svg width="200" height="200" viewBox="0 0 200 200" fill="none" xmlns="http://www.w3.org/2000/svg">
<path d="M35.2941 10.5882H36.4705V11.7647H37.647V12.9412H35.2941V11.7647V10.5882Z" fill="#007F7F"/>
<path d="M36.4706 15.2941H37.6471V16.4706H36.4706V15.2941Z" fill="#007F7F"/>
<path d="M40 16.4706H41.1765V17.6471H40V16.4706Z" fill="#007F7F"/>
<path d="M60 17.6471H62.3529V18.8235H60V17.6471Z" fill="#007F7F"/>
<path d="M85.8823 17.6471H87.0588V18.8235H85.8823V17.6471Z" fill="#007F7F"/>
<path d="M61.1764 20H62.3529V21.1765H61.1764V20Z" fill="#007F7F"/>
<path d="M65.8823 29.4118H67.0588V30.5882H65.8823V29.4118Z" fill="#007F7F"/>
<path d="M92.9412 29.4118H94.1176V31.7647H92.9412V30.5882V29.4118Z" fill="#007F7F"/>
<path d="M56.4706 41.1765H57.6471V42.353H56.4706V41.1765Z" fill="#007F7F"/>
<path d="M57.647 47.0588H58.8234V48.2353H57.647V47.0588Z" fill="#007F7F"/>
<path d="M182.353 48.2353H183.529V49.4118H182.353V48.2353Z" fill="#007F7F"/>
<path d="M180 49.4118H181.176V50.5882H180V49.4118Z" fill="#007F7F"/>
<path d="M188.235 49.4118H189.412V50.5882H188.235V49.4118Z" fill="#007F7F"/>
<path d="M101.176 50.5882H102.353V52.9412H101.176V51.7647V50.5882Z" fill="#007F7F"/>
<path d="M187.059 50.5882H188.235V51.7647H187.059V50.5882Z" fill="#007F7F"/>
<path d="M70.5881 51.7647H71.7646V52.9412H70.5881V51.7647Z" fill="#007F7F"/>
<path d="M177.647 51.7647H178.823V54.1177H177.647V52.9412V51.7647Z" fill="#007F7F"/>
<path d="M109.412 52.9412H110.588V54.1177H109.412V52.9412Z" fill="#007F7F"/>
<path d="M64.7058 54.1176H65.8823V55.2941H64.7058V54.1176Z" fill="#007F7F"/>
<path d="M72.9412 54.1176H74.1176V55.2941H72.9412V54.1176Z" fill="#007F7F"/>
<path d="M117.647 54.1176H118.823V56.4706H117.647V55.2941V54.1176Z" fill="#007F7F"/>
<path d="M122.353 54.1176H123.529V55.2941H122.353V54.1176Z" fill="#007F7F"/>
<path d="M71.7646 55.2941H72.9411V56.4706H71.7646V55.2941Z" fill="#007F7F"/>
<path d="M88.2352 56.4706H89.4117V57.6471H88.2352V56.4706Z" fill="#007F7F"/>
<path d="M120 56.4706H121.176V57.6471H120V56.4706Z" fill="#007F7F"/>
<path d="M89.4117 57.6471H90.5882V58.8235H89.4117V57.6471Z" fill="#007F7F"/>
<path d="M118.823 57.6471H120V58.8235H118.823V57.6471Z" fill="#007F7F"/>
<path d="M107.059 58.8235H108.235V60H107.059V58.8235Z" fill="#007F7F"/>
<path d="M129.412 58.8235H130.588V60H129.412V58.8235Z" fill="#007F7F"/>
<path d="M118.823 60H120V63.5294H118.823V61.1765V60Z" fill="#007F7F"/>
<path d="M76.4706 61.1765H77.6471V62.353H78.8235V63.5294H76.4706V62.353V61.1765Z" fill="#007F7F"/>
<path d="M89.4117 61.1765H91.7647V62.353H89.4117V61.1765Z" fill="#007F7F"/>
<path d="M137.647 61.1765H138.823V62.353H137.647V61.1765Z" fill="#007F7F"/>
<path d="M157.647 61.1765H158.823V63.5294H157.647V62.353V61.1765Z" fill="#007F7F"/>
<path d="M90.5881 63.5294H91.7646V64.7059H90.5881V63.5294Z" fill="#007F7F"/>
<path d="M94.1176 63.5294H96.4705V64.7059H94.1176V63.5294Z" fill="#007F7F"/>
<path d="M107.059 63.5294H108.235V64.7059H107.059V63.5294Z" fill="#007F7F"/>
<path d="M78.8235 64.7059H80V65.8824H78.8235V64.7059Z" fill="#007F7F"/>
<path d="M117.647 64.7059H118.823V65.8824H117.647V64.7059Z" fill="#007F7F"/>
<path d="M151.765 64.7059H152.941V65.8824H151.765V64.7059Z" fill="#007F7F"/>
<path d="M96.4706 65.8824H97.6471V67.0588H96.4706V65.8824Z" fill="#007F7F"/>
<path d="M103.529 65.8824H104.706V67.0588H103.529V65.8824Z" fill="#007F7F"/>
<path d="M105.882 65.8824H107.059V68.2353H105.882V67.0588V65.8824Z" fill="#007F7F"/>
<path d="M150.588 65.8824H151.765V67.0588H150.588V65.8824Z" fill="#007F7F"/>
<path d="M80 67.0588H81.1765V68.2353H80V67.0588Z" fill="#007F7F"/>
<path d="M97.647 67.0588H98.8234V68.2353H97.647V67.0588Z" fill="#007F7F"/>
<path d="M117.647 67.0588H118.823V68.2353H117.647V67.0588Z" fill="#007F7F"/>
<path d="M82.3529 68.2353H83.5294V69.4118H82.3529V68.2353Z" fill="#007F7F"/>
<path d="M175.294 68.2353H181.176V69.4118H175.294V68.2353Z" fill="#007F7F"/>
<path d="M84.7058 69.4118H85.8823V70.5882H84.7058V69.4118Z" fill="#007F7F"/>
<path d="M88.2352 69.4118H89.4117V70.5882H88.2352V69.4118Z" fill="#007F7F"/>
<path d="M100 69.4118H101.176V70.5882H100V69.4118Z" fill="#007F7F"/>
<path d="M170.588 69.4118H171.765V70.5882H170.588V69.4118Z" fill="#007F7F"/>
<path d="M174.118 69.4118H175.294V70.5882H174.118V69.4118Z" fill="#007F7F"/>
<path d="M82.3529 70.5882H83.5294V74.1177H82.3529V71.7647V70.5882Z" fill="#007F7F"/>
<path d="M89.4117 70.5882H90.5882V71.7647H89.4117V70.5882Z" fill="#007F7F"/>
<path d="M91.7646 70.5882H92.9411V71.7647H91.7646V70.5882Z" fill="#007F7F"/>
<path d="M105.882 70.5882H107.059V71.7647H105.882V70.5882Z" fill="#007F7F"/>
<path d="M116.471 70.5882H120V72.9412H118.824V71.7647H117.647V72.9412H116.471V71.7647V70.5882Z" fill="#007F7F"/>
<path d="M134.118 70.5882H137.647V71.7647H136.47V72.9412H135.294V71.7647H134.118V70.5882Z" fill="#007F7F"/>
<path d="M107.059 71.7647H108.235V72.9412H107.059V71.7647Z" fill="#007F7F"/>
<path d="M131.765 71.7647H132.941V72.9412H131.765V71.7647Z" fill="#007F7F"/>
<path d="M67.0587 72.9412H68.2352V74.1177H67.0587V72.9412Z" fill="#007F7F"/>
<path d="M108.235 72.9412H109.412V74.1177H108.235V72.9412Z" fill="#007F7F"/>
<path d="M77.647 74.1176H78.8234V75.2941H77.647V74.1176Z" fill="#007F7F"/>
<path d="M123.529 74.1176H124.706V75.2941H123.529V74.1176Z" fill="#007F7F"/>
<path d="M130.588 74.1176H131.765V76.4706H130.588V75.2941V74.1176Z" fill="#007F7F"/>
<path d="M80 75.2941H82.3529V76.4706H81.1765V77.6471H80V76.4706V75.2941Z" fill="#007F7F"/>
<path d="M85.8823 75.2941H87.0588V76.4706H85.8823V75.2941Z" fill="#007F7F"/>
<path d="M125.882 75.2941H127.059V76.4706H125.882V75.2941Z" fill="#007F7F"/>
<path d="M71.7646 76.4706H72.9411V77.6471H71.7646V76.4706Z" fill="#007F7F"/>
<path d="M115.294 76.4706H116.471V78.8235H115.294V77.6471V76.4706Z" fill="#007F7F"/>
<path d="M127.059 76.4706H128.235V78.8235H127.059V80H125.882V78.8235H124.706V77.6471H127.059V76.4706Z" fill="#007F7F"/>
<path d="M130.588 77.6471H131.765V78.8235H130.588V77.6471Z" fill="#007F7F"/>
<path d="M69.4117 80H70.5882V81.1765H69.4117V80Z" fill="#007F7F"/>
<path d="M72.9412 80H74.1176V81.1765H72.9412V80Z" fill="#007F7F"/>
<path d="M82.3529 80H83.5294V81.1765H82.3529V80Z" fill="#007F7F"/>
<path d="M162.353 80H164.706V81.1765H162.353V80Z" fill="#007F7F"/>
<path d="M127.059 81.1765H128.235V82.353H127.059V81.1765Z" fill="#007F7F"/>
<path d="M130.588 81.1765H131.765V82.353H130.588V81.1765Z" fill="#007F7F"/>
<path d="M75.2941 82.353H76.4705V84.7059H75.2941V83.5294V82.353Z" fill="#007F7F"/>
<path d="M136.471 83.5294H140V84.7059H136.471V83.5294Z" fill="#007F7F"/>
<path d="M141.176 83.5294H142.353V84.7059H141.176V83.5294Z" fill="#007F7F"/>
<path d="M148.235 83.5294H150.588V84.7059H148.235V83.5294Z" fill="#007F7F"/>
<path d="M81.1764 84.7059H82.3529V85.8824H81.1764V84.7059Z" fill="#007F7F"/>
<path d="M134.118 84.7059H135.294V85.8824H134.118V84.7059Z" fill="#007F7F"/>
<path d="M144.706 84.7059H145.882V85.8824H144.706V84.7059Z" fill="#007F7F"/>
<path d="M158.823 84.7059H160V85.8824H158.823V84.7059Z" fill="#007F7F"/>
<path d="M78.8235 85.8824H81.1764V87.0588H78.8235V85.8824Z" fill="#007F7F"/>
<path d="M142.353 85.8824H143.529V88.2353H142.353V87.0588V85.8824Z" fill="#007F7F"/>
<path d="M160 85.8824H163.529V87.0588H160V85.8824Z" fill="#007F7F"/>
<path d="M176.471 85.8824H177.647V87.0588H176.471V85.8824Z" fill="#007F7F"/>
<path d="M180 85.8824H181.176V87.0588H180V85.8824Z" fill="#007F7F"/>
<path d="M72.9412 87.0588H74.1176V88.2353H72.9412V87.0588Z" fill="#007F7F"/>
<path d="M138.823 87.0588H140V88.2353H138.823V87.0588Z" fill="#007F7F"/>
<path d="M135.294 88.2353H138.823V89.4118H135.294V88.2353Z" fill="#007F7F"/>
<path d="M178.823 88.2353H180V89.4118H178.823V88.2353Z" fill="#007F7F"/>
<path d="M181.176 88.2353H182.353V89.4118H181.176V88.2353Z" fill="#007F7F"/>
<path d="M144.706 89.4118H145.882V90.5882H144.706V89.4118Z" fill="#007F7F"/>
<path d="M147.059 89.4118H148.235V90.5882H147.059V89.4118Z" fill="#007F7F"/>
<path d="M149.412 89.4118H150.588V90.5882H149.412V89.4118Z" fill="#007F7F"/>
<path d="M140 90.5882H143.529V91.7647H140V90.5882Z" fill="#007F7F"/>
<path d="M150.588 90.5882H151.765V91.7647H150.588V90.5882Z" fill="#007F7F"/>
<path d="M164.706 90.5882H165.882V91.7647H164.706V90.5882Z" fill="#007F7F"/>
<path d="M168.235 91.7647H169.412V92.9412H168.235V91.7647Z" fill="#007F7F"/>
<path d="M137.647 92.9412H138.823V94.1177H137.647V92.9412Z" fill="#007F7F"/>
<path d="M144.706 92.9412H145.882V94.1177H144.706V92.9412Z" fill="#007F7F"/>
<path d="M74.1176 94.1176H75.294V95.2941H74.1176V94.1176Z" fill="#007F7F"/>
<path d="M174.118 94.1176H176.47V95.2941H174.118V94.1176Z" fill="#007F7F"/>
<path d="M130.588 95.2941H131.765V96.4706H130.588V95.2941Z" fill="#007F7F"/>
<path d="M141.176 95.2941H142.353V96.4706H141.176V95.2941Z" fill="#007F7F"/>
<path d="M180 95.2941H181.176V96.4706H180V95.2941Z" fill="#007F7F"/>
<path d="M74.1176 96.4706H75.294V98.8235H74.1176V97.6471V96.4706Z" fill="#007F7F"/>
<path d="M129.412 96.4706H130.588V97.6471H129.412V96.4706Z" fill="#007F7F"/>
<path d="M138.823 97.6471H140V98.8235H138.823V97.6471Z" fill="#007F7F"/>
<path d="M131.765 98.8235H136.471V100H134.118V101.176H132.941V100H131.765V98.8235Z" fill="#007F7F"/>
<path d="M67.0587 102.353H68.2352V103.529H67.0587V102.353Z" fill="#007F7F"/>
<path d="M122.353 103.529H124.706V104.706H123.529V105.882H122.353V104.706V103.529Z" fill="#007F7F"/>
<path d="M135.294 103.529H136.471V104.706H135.294V103.529Z" fill="#007F7F"/>
<path d="M118.823 104.706H120V105.882H118.823V104.706Z" fill="#007F7F"/>
<path d="M128.235 107.059H129.412V108.235H128.235V107.059Z" fill="#007F7F"/>
<path d="M62.3529 108.235H63.5294V109.412H64.7058V110.588H62.3529V109.412V108.235Z" fill="#007F7F"/>
<path d="M124.706 108.235H125.882V109.412H124.706V108.235Z" fill="#007F7F"/>
<path d="M130.588 108.235H131.765V109.412H130.588V108.235Z" fill="#007F7F"/>
<path d="M125.882 109.412H127.059V110.588H125.882V109.412Z" fill="#007F7F"/>
<path d="M68.2352 110.588H69.4117V111.765H68.2352V110.588Z" fill="#007F7F"/>
<path d="M70.5881 110.588H71.7646V111.765H70.5881V110.588Z" fill="#007F7F"/>
<path d="M72.9412 110.588H74.1176V111.765H72.9412V110.588Z" fill="#007F7F"/>
<path d="M50.5881 111.765H51.7646V112.941H50.5881V111.765Z" fill="#007F7F"/>
<path d="M74.1176 111.765H77.647V112.941H74.1176V111.765Z" fill="#007F7F"/>
<path d="M124.706 111.765H125.882V112.941H124.706V111.765Z" fill="#007F7F"/>
<path d="M60 112.941H61.1765V114.118H60V112.941Z" fill="#007F7F"/>
<path d="M69.4117 112.941H71.7647V114.118H69.4117V112.941Z" fill="#007F7F"/>
<path d="M116.471 112.941H118.824V114.118H116.471V112.941Z" fill="#007F7F"/>
<path d="M61.1764 114.118H62.3529V115.294H61.1764V114.118Z" fill="#007F7F"/>
<path d="M67.0587 114.118H68.2352V115.294H67.0587V114.118Z" fill="#007F7F"/>
<path d="M75.2941 114.118H76.4705V115.294H75.2941V114.118Z" fill="#007F7F"/>
<path d="M121.176 114.118H123.529V115.294H121.176V114.118Z" fill="#007F7F"/>
<path d="M129.412 114.118H130.588V116.471H129.412V117.647H127.059V116.471H128.235V115.294H129.412V114.118Z" fill="#007F7F"/>
<path d="M117.647 115.294H118.823V116.471H117.647V115.294Z" fill="#007F7F"/>
<path d="M120 115.294H121.176V116.471H120V115.294Z" fill="#007F7F"/>
<path d="M123.529 115.294H124.706V116.471H123.529V115.294Z" fill="#007F7F"/>
<path d="M57.647 117.647H58.8234V118.824H57.647V117.647Z" fill="#007F7F"/>
<path d="M121.176 117.647H122.353V118.824H121.176V117.647Z" fill="#007F7F"/>
<path d="M123.529 117.647H124.706V118.824H123.529V117.647Z" fill="#007F7F"/>
<path d="M125.882 117.647H127.059V118.824H125.882V117.647Z" fill="#007F7F"/>
<path d="M131.765 120H132.941V121.176H131.765V120Z" fill="#007F7F"/>
<path d="M54.1176 121.176H55.294V122.353H54.1176V121.176Z" fill="#007F7F"/>
<path d="M56.4706 121.176H57.6471V122.353H56.4706V121.176Z" fill="#007F7F"/>
<path d="M144.706 121.176H145.882V122.353H144.706V121.176Z" fill="#007F7F"/>
<path d="M67.0587 122.353H68.2352V123.529H67.0587V122.353Z" fill="#007F7F"/>
<path d="M134.118 122.353H135.294V123.529H134.118V122.353Z" fill="#007F7F"/>
<path d="M141.176 122.353H142.353V123.529H141.176V122.353Z" fill="#007F7F"/>
<path d="M145.882 122.353H147.059V123.529H145.882V122.353Z" fill="#007F7F"/>
<path d="M144.706 123.529H145.882V124.706H144.706V123.529Z" fill="#007F7F"/>
<path d="M147.059 123.529H148.235V124.706H147.059V123.529Z" fill="#007F7F"/>
<path d="M120 125.882H121.176V127.059H120V125.882Z" fill="#007F7F"/>
<path d="M49.4117 127.059H50.5882V128.235H49.4117V127.059Z" fill="#007F7F"/>
<path d="M67.0587 127.059H68.2352V128.235H67.0587V127.059Z" fill="#007F7F"/>
<path d="M90.5881 127.059H92.9411V128.235H90.5881V127.059Z" fill="#007F7F"/>
<path d="M102.353 127.059H103.529V128.235H102.353V127.059Z" fill="#007F7F"/>
<path d="M84.7058 128.235H85.8823V129.412H84.7058V128.235Z" fill="#007F7F"/>
<path d="M92.9412 128.235H94.1176V129.412H92.9412V128.235Z" fill="#007F7F"/>
<path d="M103.529 128.235H104.706V129.412H103.529V128.235Z" fill="#007F7F"/>
<path d="M121.176 128.235H123.529V130.588H122.353V129.412H121.176V128.235Z" fill="#007F7F"/>
<path d="M78.8235 129.412H80V130.588H78.8235V129.412Z" fill="#007F7F"/>
<path d="M104.706 129.412H105.882V130.588H104.706V129.412Z" fill="#007F7F"/>
<path d="M118.823 129.412H120V130.588H118.823V129.412Z" fill="#007F7F"/>
<path d="M124.706 129.412H125.882V130.588H124.706V129.412Z" fill="#007F7F"/>
<path d="M105.882 130.588H107.059V131.765H105.882V130.588Z" fill="#007F7F"/>
<path d="M117.647 130.588H118.823V131.765H117.647V130.588Z" fill="#007F7F"/>
<path d="M123.529 130.588H124.706V131.765H123.529V130.588Z" fill="#007F7F"/>
<path d="M124.706 131.765H125.882V132.941H124.706V131.765Z" fill="#007F7F"/>
<path d="M109.412 132.941H110.588V134.118H109.412V132.941Z" fill="#007F7F"/>
<path d="M111.765 134.118H112.941V135.294H111.765V134.118Z" fill="#007F7F"/>
<path d="M112.941 135.294H114.118V136.471H112.941V135.294Z" fill="#007F7F"/>
<path d="M116.471 135.294H117.647V136.471H116.471V135.294Z" fill="#007F7F"/>
<path d="M114.118 136.471H115.294V137.647H114.118V136.471Z" fill="#007F7F"/>
<path d="M121.176 136.471H123.529V137.647H122.353V138.824H121.176V137.647V136.471Z" fill="#007F7F"/>
<path d="M115.294 137.647H116.471V140H115.294V138.824V137.647Z" fill="#007F7F"/>
<path d="M69.4117 140H70.5882V141.176H69.4117V140Z" fill="#007F7F"/>
<path d="M68.2352 141.176H69.4117V142.353H68.2352V141.176Z" fill="#007F7F"/>
<path d="M116.471 142.353H117.647V143.529H116.471V142.353Z" fill="#007F7F"/>
<path d="M118.823 147.059H120V148.235H118.823V147.059Z" fill="#007F7F"/>
<path d="M64.7058 150.588H65.8823V151.765H64.7058V150.588Z" fill="#007F7F"/>
<path d="M45.8823 151.765H47.0588V152.941H45.8823V151.765Z" fill="#007F7F"/>
<path d="M41.1764 154.118H42.3529V155.294H41.1764V154.118Z" fill="#007F7F"/>
<path d="M40 155.294H41.1765V156.471H40V155.294Z" fill="#007F7F"/>
<path d="M42.3529 155.294H43.5294V156.471H42.3529V155.294Z" fill="#007F7F"/>
<path d="M41.1764 156.471H42.3529V157.647H41.1764V156.471Z" fill="#007F7F"/>
<path d="M120 171.765H122.353V172.941H120V171.765Z" fill="#007F7F"/>
<path d="M61.1764 176.471H63.5293V177.647H61.1764V176.471Z" fill="#007F7F"/>
<path d="M36.4706 12.9412H37.6471V14.1176H38.8235V15.2941H40V17.6471H37.6471V15.2941H36.4706V14.1176V12.9412Z" fill="#007F7F"/>
<path d="M61.1765 18.8235H62.353V20H61.1765V18.8235Z" fill="#007F7F"/>
<path d="M82.3529 30.5882H83.5294V31.7647H82.3529V30.5882Z" fill="#007F7F"/>
<path d="M94.1177 40H95.2941V41.1765H94.1177V40Z" fill="#007F7F"/>
<path d="M183.529 48.2353H189.412V49.4118H188.235V50.5882H187.059V51.7647H185.882V52.9412H183.529V54.1176H178.823V50.5882H181.176V49.4118H183.529V48.2353Z" fill="#007F7F"/>
<path d="M121.176 49.4118H122.353V50.5882H123.529V54.1177H122.353V56.4706H120V57.6471H118.823V51.7647H120V50.5882H121.176V49.4118Z" fill="#007F7F"/>
<path d="M100 50.5882H101.176V51.7647H100V50.5882Z" fill="#007F7F"/>
<path d="M70.5883 52.9412H72.9412V55.2941H71.7647V54.1176H70.5883V52.9412Z" fill="#007F7F"/>
<path d="M72.9412 55.2941H74.1176V56.4706H72.9412V55.2941Z" fill="#007F7F"/>
<path d="M87.0588 56.4706H88.2353V57.6471H87.0588V56.4706Z" fill="#007F7F"/>
<path d="M104.706 56.4706H105.882V57.6471H108.235V58.8235H104.706V57.6471V56.4706Z" fill="#007F7F"/>
<path d="M88.2352 57.6471H89.4117V58.8235H90.5882V61.1765H89.4117V60H88.2352V58.8235V57.6471Z" fill="#007F7F"/>
<path d="M138.823 61.1765H141.176V62.3529H140V63.5294H138.823V62.3529V61.1765Z" fill="#007F7F"/>
<path d="M158.823 61.1765H161.176V62.3529H160V63.5294H158.823V62.3529V61.1765Z" fill="#007F7F"/>
<path d="M90.5883 62.3529H91.7647V63.5294H90.5883V62.3529Z" fill="#007F7F"/>
<path d="M91.7647 63.5294H92.9412V64.7059H91.7647V63.5294ZM90.5882 64.7059H96.4706V65.8824H90.5882V64.7059ZM91.7647 65.8824H96.4706V67.0588H91.7647V65.8824ZM91.7647 67.0588H97.6471V68.2353H91.7647V67.0588ZM91.7647 68.2353H98.8235V69.4118H91.7647V68.2353ZM91.7647 69.4118H100V70.5882H91.7647V69.4118ZM92.9412 70.5882H102.353V71.7647H92.9412V70.5882ZM82.3529 69.4118H84.7059V70.5882H82.3529V69.4118ZM83.5294 70.5882H85.8824V71.7647H83.5294V70.5882ZM83.5294 71.7647H88.2353V72.9412H83.5294V71.7647ZM88.2353 70.5882H89.4118V71.7647H88.2353V70.5882ZM88.2353 71.7647H103.529V72.9412H88.2353V71.7647ZM104.706 69.4118H105.882V70.5882H104.706V69.4118ZM103.529 70.5882H105.882V71.7647H103.529V70.5882ZM103.529 71.7647H107.059V72.9412H103.529V71.7647ZM83.5294 72.9412H108.235V74.1177H83.5294V72.9412ZM83.5294 74.1177H109.412V75.2941H83.5294V74.1177ZM83.5294 75.2941H85.8824V76.4706H83.5294V75.2941ZM87.0588 75.2941H111.765V76.4706H87.0588V75.2941ZM116.471 67.0588H117.647V68.2353H116.471V67.0588ZM116.471 68.2353H117.647V69.4118H116.471V68.2353ZM115.294 69.4118H117.647V70.5882H115.294V69.4118ZM114.118 70.5882H116.471V71.7647H114.118V70.5882ZM112.941 71.7647H116.471V72.9412H112.941V71.7647ZM111.765 72.9412H116.471V74.1177H111.765V72.9412ZM111.765 74.1177H116.471V75.2941H111.765V74.1177ZM111.765 75.2941H116.471V76.4706H111.765V75.2941ZM83.5294 76.4706H115.294V77.6471H83.5294V76.4706ZM84.7059 77.6471H115.294V78.8235H84.7059V77.6471ZM83.5294 78.8235H121.176V80H83.5294V78.8235ZM83.5294 80H123.529V81.1765H83.5294V80ZM123.529 78.8235H124.706V80H123.529V78.8235ZM123.529 80H124.706V81.1765H123.529V80ZM82.3529 81.1765H125.882V82.3529H82.3529V81.1765ZM125.882 80H127.059V81.1765H125.882V80ZM125.882 81.1765H127.059V82.3529H125.882V81.1765ZM82.3529 82.3529H132.941V83.5294H82.3529V82.3529ZM82.3529 83.5294H136.471V84.7059H82.3529V83.5294ZM82.3529 84.7059H134.118V85.8824H82.3529V84.7059ZM81.1765 85.8824H134.118V87.0588H81.1765V85.8824ZM72.9412 81.1765H75.2941V82.3529H72.9412V81.1765ZM72.9412 82.3529H75.2941V83.5294H72.9412V82.3529ZM72.9412 83.5294H75.2941V84.7059H72.9412V83.5294ZM74.1177 84.7059H76.4706V85.8824H74.1177V84.7059ZM74.1177 85.8824H78.8235V87.0588H74.1177V85.8824ZM74.1177 87.0588H135.294V88.2353H74.1177V87.0588ZM74.1177 88.2353H135.294V89.4118H74.1177V88.2353ZM74.1177 89.4118H138.824V90.5882H74.1177V89.4118ZM74.1177 90.5882H140V91.7647H74.1177V90.5882ZM74.1177 91.7647H143.529V92.9412H74.1177V91.7647ZM145.882 89.4118H147.059V90.5882H145.882V89.4118ZM143.529 90.5882H150.588V91.7647H143.529V90.5882ZM143.529 91.7647H156.471V92.9412H143.529V91.7647ZM74.1177 92.9412H137.647V94.1177H74.1177V92.9412ZM145.882 92.9412H151.765V94.1177H145.882V92.9412ZM75.2941 94.1177H131.765V95.2941H75.2941V94.1177ZM75.2941 95.2941H130.588V96.4706H75.2941V95.2941ZM75.2941 96.4706H129.412V97.6471H75.2941V96.4706ZM75.2941 97.6471H127.059V98.8235H75.2941V97.6471ZM74.1177 98.8235H127.059V100H74.1177V98.8235ZM75.2941 100H132.941V101.176H75.2941V100ZM74.1177 101.176H135.294V102.353H74.1177V101.176ZM70.5882 102.353H136.471V103.529H70.5882V102.353ZM67.0588 103.529H122.353V104.706H67.0588V103.529ZM124.706 103.529H130.588V104.706H124.706V103.529ZM65.8824 104.706H118.824V105.882H65.8824V104.706ZM120 104.706H122.353V105.882H120V104.706ZM124.706 104.706H130.588V105.882H124.706V104.706ZM64.7059 105.882H124.706V107.059H64.7059V105.882ZM127.059 105.882H129.412V107.059H127.059V105.882ZM63.5294 107.059H124.706V108.235H63.5294V107.059ZM63.5294 108.235H124.706V109.412H63.5294V108.235ZM64.7059 109.412H125.882V110.588H64.7059V109.412ZM64.7059 110.588H68.2353V111.765H64.7059V110.588ZM74.1177 110.588H124.706V111.765H74.1177V110.588ZM77.6471 111.765H124.706V112.941H77.6471V111.765ZM77.6471 112.941H116.471V114.118H77.6471V112.941ZM118.824 112.941H122.353V114.118H118.824V112.941ZM76.4706 114.118H116.471V115.294H76.4706V114.118ZM118.824 114.118H121.176V115.294H118.824V114.118ZM74.1177 115.294H117.647V116.471H74.1177V115.294ZM118.824 115.294H120V116.471H118.824V115.294ZM72.9412 116.471H121.176V117.647H72.9412V116.471ZM71.7647 117.647H121.176V118.824H71.7647V117.647ZM70.5882 118.824H122.353V120H70.5882V118.824ZM69.4118 120H120V121.176H69.4118V120ZM68.2353 121.176H120V122.353H68.2353V121.176ZM68.2353 122.353H120V123.529H68.2353V122.353ZM67.0588 123.529H120V124.706H67.0588V123.529ZM67.0588 124.706H98.8235V125.882H67.0588V124.706ZM101.176 124.706H120V125.882H101.176V124.706ZM67.0588 125.882H97.6471V127.059H67.0588V125.882ZM102.353 125.882H120V127.059H102.353V125.882ZM68.2353 127.059H88.2353V128.235H68.2353V127.059ZM94.1177 127.059H96.4706V128.235H94.1177V127.059ZM103.529 127.059H121.176V128.235H103.529V127.059ZM70.5882 128.235H84.7059V129.412H70.5882V128.235ZM94.1177 128.235H95.2941V129.412H94.1177V128.235ZM104.706 128.235H120V129.412H104.706V128.235ZM80 129.412H81.1765V130.588H80V129.412ZM105.882 129.412H118.824V130.588H105.882V129.412ZM107.059 130.588H117.647V131.765H107.059V130.588ZM108.235 131.765H117.647V132.941H108.235V131.765ZM110.588 132.941H116.471V134.118H110.588V132.941ZM112.941 134.118H116.471V135.294H112.941V134.118Z" fill="#007F7F"/>
<path d="M108.235 63.5294H109.412V68.2353H107.059V64.7059H108.235V63.5294Z" fill="#007F7F"/>
<path d="M148.235 64.7059H151.765V65.8824H150.588V68.2353H149.412V67.0588H148.235V65.8824V64.7059Z" fill="#007F7F"/>
<path d="M117.647 65.8824H118.824V67.0588H117.647V65.8824Z" fill="#007F7F"/>
<path d="M105.882 68.2353H107.059V69.4118H105.882V68.2353Z" fill="#007F7F"/>
<path d="M171.765 69.4118H174.118V70.5882H171.765V69.4118Z" fill="#007F7F"/>
<path d="M117.647 71.7647H118.824V72.9412H117.647V71.7647Z" fill="#007F7F"/>
<path d="M132.941 71.7647H135.294V72.9412H132.941V71.7647Z" fill="#007F7F"/>
<path d="M75.2941 72.9412H77.647V76.4706H75.2941V74.1176V72.9412Z" fill="#007F7F"/>
<path d="M80 74.1176H81.1765V75.2941H80V74.1176Z" fill="#007F7F"/>
<path d="M123.529 75.2941H125.882V76.4706H127.059V77.6471H123.529V76.4706V75.2941Z" fill="#007F7F"/>
<path d="M129.412 75.2941H130.588V76.4706H129.412V75.2941Z" fill="#007F7F"/>
<path d="M81.1765 76.4706H82.353V77.6471H81.1765V76.4706Z" fill="#007F7F"/>
<path d="M142.353 83.5294H148.235V84.7059H144.706V85.8824H141.177V84.7059H142.353V83.5294Z" fill="#007F7F"/>
<path d="M160 84.7059H163.529V85.8824H160V84.7059Z" fill="#007F7F"/>
<path d="M177.647 85.8824H180V87.0588H183.529V88.2353H181.176V89.4118H180V88.2353H176.471V87.0588H177.647V85.8824Z" fill="#007F7F"/>
<path d="M165.882 90.5882H168.235V92.9412H163.529V91.7647H165.882V90.5882Z" fill="#007F7F"/>
<path d="M158.823 91.7647H161.176V94.1177H158.823V92.9412V91.7647Z" fill="#007F7F"/>
<path d="M136.471 98.8235H137.647V100H136.471V98.8235Z" fill="#007F7F"/>
<path d="M47.0588 112.941H48.2353V114.118H47.0588V112.941Z" fill="#007F7F"/>
<path d="M61.1765 112.941H64.7059V114.118H63.5295V115.294H62.353V114.118H61.1765V112.941Z" fill="#007F7F"/>
<path d="M124.706 112.941H127.059V114.118H124.706V112.941Z" fill="#007F7F"/>
<path d="M65.8823 114.118H67.0588V115.294H65.8823V114.118Z" fill="#007F7F"/>
<path d="M127.059 114.118H129.412V115.294H127.059V114.118Z" fill="#007F7F"/>
<path d="M124.706 115.294H125.882V116.471H127.059V117.647H125.882V118.824H124.706V117.647H123.529V116.471H124.706V115.294Z" fill="#007F7F"/>
<path d="M58.8235 117.647H63.5294V118.824H62.3529V120H61.1764V121.176H56.4705V122.353H55.2941V120H56.4705V118.824H58.8235V117.647Z" fill="#007F7F"/>
<path d="M145.882 123.529H147.059V124.706H145.882V123.529Z" fill="#007F7F"/>
<path d="M49.4117 128.235H50.5882V129.412H49.4117V128.235Z" fill="#007F7F"/>
<path d="M123.529 129.412H124.706V130.588H123.529V129.412Z" fill="#007F7F"/>
<path d="M124.706 130.588H127.059V131.765H128.235V132.941H129.412V134.118H127.059V132.941H125.882V131.765H124.706V130.588Z" fill="#007F7F"/>
<path d="M116.471 136.471H117.647V141.176H118.824V142.353H116.471V137.647V136.471Z" fill="#007F7F"/>
<path d="M122.353 137.647H123.529V138.824H122.353V137.647Z" fill="#007F7F"/>
<path d="M41.1765 155.294H42.353V156.471H41.1765V155.294Z" fill="#007F7F"/>
<path d="M120 170.588H121.176V171.765H120V170.588Z" fill="#007F7F"/>
<path d="M37.6471 12.9412H38.8236V14.1176H37.6471V12.9412Z" fill="#007F7F"/>
<path d="M51.7648 12.9412H52.9412V15.2941H51.7648V14.1176V12.9412Z" fill="#007F7F"/>
<path d="M85.8824 18.8235H87.0589V20H85.8824V18.8235Z" fill="#007F7F"/>
<path d="M85.8824 27.0588H87.0589V28.2353H85.8824V27.0588Z" fill="#007F7F"/>
<path d="M65.8824 30.5882H68.2354V31.7647H65.8824V30.5882Z" fill="#007F7F"/>
<path d="M80 31.7647H81.1765V32.9412H80V31.7647Z" fill="#007F7F"/>
<path d="M92.9412 31.7647H94.1176V32.9412H92.9412V31.7647Z" fill="#007F7F"/>
<path d="M94.1177 38.8235H95.2941V40H94.1177V38.8235Z" fill="#007F7F"/>
<path d="M56.4706 40H57.6471V41.1765H56.4706V40Z" fill="#007F7F"/>
<path d="M95.2941 40H96.4706V42.3529H94.1177V41.1765H95.2941V40Z" fill="#007F7F"/>
<path d="M57.6471 41.1765H58.8236V42.3529H57.6471V41.1765Z" fill="#007F7F"/>
<path d="M184.706 47.0588H189.412V48.2353H184.706V47.0588Z" fill="#007F7F"/>
<path d="M69.4119 48.2353H70.5883V50.5882H69.4119V49.4118V48.2353Z" fill="#007F7F"/>
<path d="M181.177 48.2353H182.353V49.4118H181.177V48.2353Z" fill="#007F7F"/>
<path d="M120 49.4118H121.176V50.5882H120V49.4118Z" fill="#007F7F"/>
<path d="M102.353 50.5882H103.529V52.9412H102.353V51.7647V50.5882Z" fill="#007F7F"/>
<path d="M118.824 50.5882H120V51.7647H118.824V50.5882Z" fill="#007F7F"/>
<path d="M71.7648 51.7647H72.9412V52.9412H71.7648V51.7647Z" fill="#007F7F"/>
<path d="M84.7059 51.7647H85.8824V52.9412H84.7059V51.7647Z" fill="#007F7F"/>
<path d="M109.412 51.7647H110.588V52.9412H109.412V51.7647Z" fill="#007F7F"/>
<path d="M185.882 51.7647H187.059V52.9412H185.882V51.7647Z" fill="#007F7F"/>
<path d="M85.8824 52.9412H87.0589V55.2941H85.8824V54.1176V52.9412Z" fill="#007F7F"/>
<path d="M117.647 52.9412H118.824V54.1176H117.647V52.9412Z" fill="#007F7F"/>
<path d="M183.529 52.9412H184.706V54.1176H183.529V52.9412Z" fill="#007F7F"/>
<path d="M70.5883 54.1176H71.7647V55.2941H70.5883V54.1176Z" fill="#007F7F"/>
<path d="M109.412 54.1176H110.588V55.2941H109.412V54.1176Z" fill="#007F7F"/>
<path d="M64.7059 55.2941H65.8824V56.4706H64.7059V55.2941Z" fill="#007F7F"/>
<path d="M87.0588 55.2941H88.2353V56.4706H87.0588V55.2941Z" fill="#007F7F"/>
<path d="M72.9412 56.4706H75.2941V58.8235H74.1176V57.6471H72.9412V56.4706Z" fill="#007F7F"/>
<path d="M117.647 56.4706H118.824V57.6471H117.647V56.4706Z" fill="#007F7F"/>
<path d="M87.0588 57.6471H88.2353V58.8235H87.0588V57.6471Z" fill="#007F7F"/>
<path d="M118.824 58.8235H120V60H118.824V58.8235Z" fill="#007F7F"/>
<path d="M168.235 58.8235H169.412V60H168.235V58.8235Z" fill="#007F7F"/>
<path d="M138.824 60H140V61.1765H138.824V60Z" fill="#007F7F"/>
<path d="M165.882 60H167.059V61.1765H165.882V60Z" fill="#007F7F"/>
<path d="M91.7648 62.3529H92.9412V63.5294H91.7648V62.3529Z" fill="#007F7F"/>
<path d="M137.647 62.3529H138.824V63.5294H137.647V62.3529Z" fill="#007F7F"/>
<path d="M140 62.3529H141.176V63.5294H140V62.3529Z" fill="#007F7F"/>
<path d="M152.941 62.3529H154.118V63.5294H152.941V62.3529Z" fill="#007F7F"/>
<path d="M160 62.3529H161.176V63.5294H160V62.3529Z" fill="#007F7F"/>
<path d="M77.6471 63.5294H78.8236V64.7059H77.6471V63.5294Z" fill="#007F7F"/>
<path d="M92.9412 63.5294H94.1176V64.7059H92.9412V63.5294Z" fill="#007F7F"/>
<path d="M118.824 63.5294H120V65.8824H118.824V64.7059V63.5294Z" fill="#007F7F"/>
<path d="M149.412 63.5294H151.765V64.7059H149.412V63.5294Z" fill="#007F7F"/>
<path d="M105.882 64.7059H107.059V65.8824H105.882V64.7059Z" fill="#007F7F"/>
<path d="M80 65.8824H81.1765V67.0588H80V65.8824Z" fill="#007F7F"/>
<path d="M89.4119 65.8824H91.7648V67.0588H89.4119V65.8824Z" fill="#007F7F"/>
<path d="M98.8236 65.8824H101.177V67.0588H100V69.4118H98.8236V67.0588V65.8824Z" fill="#007F7F"/>
<path d="M116.471 65.8824H117.647V67.0588H116.471V65.8824Z" fill="#007F7F"/>
<path d="M147.059 65.8824H148.235V67.0588H147.059V65.8824Z" fill="#007F7F"/>
<path d="M101.177 67.0588H102.353V68.2353H101.177V67.0588Z" fill="#007F7F"/>
<path d="M109.412 67.0588H110.588V68.2353H109.412V67.0588Z" fill="#007F7F"/>
<path d="M148.235 67.0588H149.412V69.4118H147.059V68.2353H148.235V67.0588Z" fill="#007F7F"/>
<path d="M150.588 67.0588H151.765V68.2353H150.588V67.0588Z" fill="#007F7F"/>
<path d="M180 67.0588H181.176V68.2353H180V67.0588Z" fill="#007F7F"/>
<path d="M75.2942 68.2353H76.4707V69.4118H75.2942V68.2353Z" fill="#007F7F"/>
<path d="M81.1765 68.2353H82.353V69.4118H81.1765V68.2353Z" fill="#007F7F"/>
<path d="M83.5294 68.2353H84.7059V69.4118H83.5294V68.2353Z" fill="#007F7F"/>
<path d="M107.059 68.2353H108.235V69.4118H107.059V68.2353Z" fill="#007F7F"/>
<path d="M115.294 68.2353H116.471V69.4118H115.294V68.2353Z" fill="#007F7F"/>
<path d="M142.353 68.2353H143.529V69.4118H142.353V68.2353Z" fill="#007F7F"/>
<path d="M172.941 68.2353H175.294V69.4118H172.941V68.2353Z" fill="#007F7F"/>
<path d="M181.177 68.2353H182.353V69.4118H181.177V68.2353Z" fill="#007F7F"/>
<path d="M105.882 69.4118H107.059V70.5882H105.882V69.4118Z" fill="#007F7F"/>
<path d="M114.118 69.4118H115.294V70.5882H114.118V69.4118Z" fill="#007F7F"/>
<path d="M169.412 69.4118H170.588V70.5882H169.412V69.4118Z" fill="#007F7F"/>
<path d="M175.294 69.4118H176.471V70.5882H175.294V69.4118Z" fill="#007F7F"/>
<path d="M85.8824 70.5882H88.2354V71.7647H85.8824V70.5882Z" fill="#007F7F"/>
<path d="M90.5883 70.5882H91.7647V71.7647H90.5883V70.5882Z" fill="#007F7F"/>
<path d="M102.353 70.5882H103.529V71.7647H102.353V70.5882Z" fill="#007F7F"/>
<path d="M107.059 70.5882H108.235V71.7647H107.059V70.5882Z" fill="#007F7F"/>
<path d="M112.941 70.5882H114.118V71.7647H112.941V70.5882Z" fill="#007F7F"/>
<path d="M132.941 70.5882H134.118V71.7647H132.941V70.5882Z" fill="#007F7F"/>
<path d="M78.8236 72.9412H80.0001V74.1176H78.8236V72.9412Z" fill="#007F7F"/>
<path d="M109.412 72.9412H110.588V74.1176H111.765V75.2941H109.412V74.1176V72.9412Z" fill="#007F7F"/>
<path d="M116.471 72.9412H117.647V74.1176H116.471V72.9412Z" fill="#007F7F"/>
<path d="M123.529 72.9412H124.706V74.1176H123.529V72.9412Z" fill="#007F7F"/>
<path d="M130.588 72.9412H134.118V74.1176H130.588V72.9412Z" fill="#007F7F"/>
<path d="M67.0588 74.1176H68.2353V75.2941H67.0588V74.1176Z" fill="#007F7F"/>
<path d="M82.353 74.1176H83.5295V75.2941H82.353V74.1176Z" fill="#007F7F"/>
<path d="M122.353 74.1176H123.529V75.2941H122.353V74.1176Z" fill="#007F7F"/>
<path d="M129.412 74.1176H130.588V75.2941H129.412V74.1176Z" fill="#007F7F"/>
<path d="M77.6471 75.2941H78.8236V76.4706H77.6471V75.2941Z" fill="#007F7F"/>
<path d="M128.235 75.2941H129.412V76.4706H128.235V75.2941Z" fill="#007F7F"/>
<path d="M72.9412 76.4706H74.1176V77.6471H72.9412V76.4706Z" fill="#007F7F"/>
<path d="M75.2942 76.4706H76.4707V77.6471H75.2942V76.4706Z" fill="#007F7F"/>
<path d="M82.353 76.4706H83.5295V77.6471H84.706V78.8235H83.5295V80H82.353V77.6471V76.4706Z" fill="#007F7F"/>
<path d="M129.412 76.4706H131.765V77.6471H129.412V76.4706Z" fill="#007F7F"/>
<path d="M116.471 77.6471H120V78.8235H116.471V77.6471Z" fill="#007F7F"/>
<path d="M123.529 77.6471H124.706V78.8235H123.529V77.6471Z" fill="#007F7F"/>
<path d="M122.353 78.8235H123.529V80H122.353V78.8235Z" fill="#007F7F"/>
<path d="M130.588 78.8235H131.765V80H130.588V78.8235Z" fill="#007F7F"/>
<path d="M71.7648 80H72.9412V82.3529H71.7648V81.1765V80Z" fill="#007F7F"/>
<path d="M74.1177 80H75.2941V81.1765H74.1177V80Z" fill="#007F7F"/>
<path d="M124.706 80H125.882V81.1765H124.706V80Z" fill="#007F7F"/>
<path d="M160 80H162.353V81.1765H160V80Z" fill="#007F7F"/>
<path d="M164.706 80H165.882V81.1765H164.706V80Z" fill="#007F7F"/>
<path d="M129.412 81.1765H130.588V82.3529H129.412V81.1765Z" fill="#007F7F"/>
<path d="M132.941 82.3529H134.118V83.5294H132.941V82.3529Z" fill="#007F7F"/>
<path d="M81.1765 83.5294H82.353V84.7059H81.1765V83.5294Z" fill="#007F7F"/>
<path d="M140 83.5294H141.176V84.7059H140V83.5294Z" fill="#007F7F"/>
<path d="M150.588 83.5294H152.941V84.7059H150.588V83.5294Z" fill="#007F7F"/>
<path d="M154.118 83.5294H157.647V84.7059H154.118V83.5294Z" fill="#007F7F"/>
<path d="M160 83.5294H162.353V84.7059H160V83.5294Z" fill="#007F7F"/>
<path d="M76.4706 84.7059H77.6471V85.8824H76.4706V84.7059Z" fill="#007F7F"/>
<path d="M157.647 84.7059H158.824V85.8824H157.647V84.7059Z" fill="#007F7F"/>
<path d="M163.529 84.7059H164.706V85.8824H163.529V84.7059Z" fill="#007F7F"/>
<path d="M168.235 84.7059H170.588V85.8824H169.412V87.0588H168.235V85.8824V84.7059Z" fill="#007F7F"/>
<path d="M72.9412 85.8824H74.1176V87.0588H72.9412V85.8824Z" fill="#007F7F"/>
<path d="M134.118 85.8824H135.294V87.0588H134.118V85.8824Z" fill="#007F7F"/>
<path d="M140 85.8824H141.176V87.0588H142.353V88.2353H140V87.0588V85.8824Z" fill="#007F7F"/>
<path d="M143.529 85.8824H144.706V88.2353H143.529V87.0588V85.8824Z" fill="#007F7F"/>
<path d="M174.118 85.8824H176.471V87.0588H174.118V85.8824Z" fill="#007F7F"/>
<path d="M181.177 85.8824H182.353V87.0588H181.177V85.8824Z" fill="#007F7F"/>
<path d="M135.294 87.0588H138.824V88.2353H135.294V87.0588Z" fill="#007F7F"/>
<path d="M183.529 87.0588H184.706V88.2353H183.529V87.0588Z" fill="#007F7F"/>
<path d="M138.824 88.2353H140V89.4118H138.824V88.2353Z" fill="#007F7F"/>
<path d="M167.059 88.2353H170.588V89.4118H167.059V88.2353Z" fill="#007F7F"/>
<path d="M177.647 88.2353H178.824V89.4118H177.647V88.2353Z" fill="#007F7F"/>
<path d="M182.353 88.2353H183.529V89.4118H182.353V88.2353Z" fill="#007F7F"/>
<path d="M148.235 89.4118H149.412V90.5882H148.235V89.4118Z" fill="#007F7F"/>
<path d="M150.588 89.4118H151.765V90.5882H150.588V89.4118Z" fill="#007F7F"/>
<path d="M151.765 90.5882H152.941V91.7647H151.765V90.5882Z" fill="#007F7F"/>
<path d="M163.529 90.5882H164.706V91.7647H163.529V90.5882Z" fill="#007F7F"/>
<path d="M168.235 90.5882H169.412V91.7647H168.235V90.5882Z" fill="#007F7F"/>
<path d="M156.471 91.7647H158.824V92.9412H156.471V91.7647Z" fill="#007F7F"/>
<path d="M161.177 91.7647H163.529V92.9412H161.177V91.7647Z" fill="#007F7F"/>
<path d="M138.824 92.9412H140V94.1176H138.824V92.9412Z" fill="#007F7F"/>
<path d="M142.353 92.9412H144.706V94.1176H143.529V96.4706H142.353V94.1176V92.9412Z" fill="#007F7F"/>
<path d="M151.765 92.9412H152.941V94.1176H151.765V92.9412Z" fill="#007F7F"/>
<path d="M154.118 92.9412H155.294V94.1176H154.118V92.9412Z" fill="#007F7F"/>
<path d="M165.882 92.9412H168.235V94.1176H165.882V92.9412Z" fill="#007F7F"/>
<path d="M131.765 94.1176H132.941V95.2941H131.765V94.1176Z" fill="#007F7F"/>
<path d="M136.471 94.1176H137.647V95.2941H136.471V94.1176Z" fill="#007F7F"/>
<path d="M149.412 94.1176H151.765V95.2941H149.412V94.1176Z" fill="#007F7F"/>
<path d="M160 94.1176H161.176V95.2941H160V94.1176Z" fill="#007F7F"/>
<path d="M176.471 94.1176H177.647V95.2941H176.471V94.1176Z" fill="#007F7F"/>
<path d="M74.1177 95.2941H75.2941V96.4706H74.1177V95.2941Z" fill="#007F7F"/>
<path d="M178.824 95.2941H180V96.4706H178.824V95.2941Z" fill="#007F7F"/>
<path d="M181.177 95.2941H182.353V96.4706H181.177V95.2941Z" fill="#007F7F"/>
<path d="M138.824 96.4706H140V97.6471H138.824V96.4706Z" fill="#007F7F"/>
<path d="M163.529 96.4706H164.706V97.6471H163.529V96.4706Z" fill="#007F7F"/>
<path d="M68.2354 97.6471H69.4118V98.8235H68.2354V97.6471Z" fill="#007F7F"/>
<path d="M127.059 97.6471H128.235V98.8235H127.059V97.6471Z" fill="#007F7F"/>
<path d="M70.5883 98.8235H72.9412V100H70.5883V98.8235Z" fill="#007F7F"/>
<path d="M130.588 98.8235H131.765V100H130.588V98.8235Z" fill="#007F7F"/>
<path d="M152.941 100H155.294V101.176H152.941V100Z" fill="#007F7F"/>
<path d="M156.471 100H157.647V101.176H156.471V100Z" fill="#007F7F"/>
<path d="M72.9412 101.176H74.1176V102.353H72.9412V101.176Z" fill="#007F7F"/>
<path d="M135.294 101.176H136.471V102.353H135.294V101.176Z" fill="#007F7F"/>
<path d="M69.4119 102.353H70.5883V103.529H69.4119V102.353Z" fill="#007F7F"/>
<path d="M65.8824 103.529H67.0589V104.706H65.8824V103.529Z" fill="#007F7F"/>
<path d="M176.471 103.529H177.647V104.706H176.471V103.529Z" fill="#007F7F"/>
<path d="M64.7059 104.706H65.8824V105.882H64.7059V104.706Z" fill="#007F7F"/>
<path d="M123.529 104.706H124.706V105.882H123.529V104.706Z" fill="#007F7F"/>
<path d="M130.588 104.706H131.765V105.882H130.588V104.706Z" fill="#007F7F"/>
<path d="M63.5294 105.882H64.7059V107.059H63.5294V105.882Z" fill="#007F7F"/>
<path d="M125.882 105.882H127.059V107.059H125.882V105.882Z" fill="#007F7F"/>
<path d="M129.412 108.235H130.588V109.412H129.412V108.235Z" fill="#007F7F"/>
<path d="M150.588 108.235H151.765V109.412H150.588V108.235Z" fill="#007F7F"/>
<path d="M69.4119 110.588H70.5883V111.765H69.4119V110.588Z" fill="#007F7F"/>
<path d="M71.7648 110.588H72.9412V111.765H71.7648V110.588Z" fill="#007F7F"/>
<path d="M124.706 110.588H125.882V111.765H124.706V110.588Z" fill="#007F7F"/>
<path d="M63.5294 111.765H65.8824V112.941H69.4118V114.118H65.8824V115.294H64.7059V112.941H63.5294V111.765Z" fill="#007F7F"/>
<path d="M45.8824 112.941H47.0589V114.118H45.8824V112.941Z" fill="#007F7F"/>
<path d="M48.2354 112.941H49.4118V114.118H48.2354V112.941Z" fill="#007F7F"/>
<path d="M76.4706 112.941H77.6471V114.118H76.4706V112.941Z" fill="#007F7F"/>
<path d="M123.529 112.941H124.706V115.294H123.529V114.118V112.941Z" fill="#007F7F"/>
<path d="M37.6471 114.118H38.8236V115.294H37.6471V114.118Z" fill="#007F7F"/>
<path d="M60 114.118H61.1765V115.294H60V114.118Z" fill="#007F7F"/>
<path d="M116.471 114.118H117.647V115.294H116.471V114.118Z" fill="#007F7F"/>
<path d="M125.882 114.118H127.059V116.471H125.882V115.294V114.118Z" fill="#007F7F"/>
<path d="M52.9412 116.471H54.1176V117.647H52.9412V116.471Z" fill="#007F7F"/>
<path d="M61.1765 116.471H62.353V117.647H61.1765V116.471Z" fill="#007F7F"/>
<path d="M122.353 116.471H123.529V117.647H122.353V116.471Z" fill="#007F7F"/>
<path d="M129.412 116.471H130.588V118.824H129.412V117.647V116.471Z" fill="#007F7F"/>
<path d="M21.1765 118.824H23.5295V120H21.1765V118.824Z" fill="#007F7F"/>
<path d="M55.2942 118.824H56.4707V120H55.2942V118.824Z" fill="#007F7F"/>
<path d="M62.353 118.824H63.5295V120H62.353V118.824Z" fill="#007F7F"/>
<path d="M69.4119 118.824H70.5883V120H69.4119V118.824Z" fill="#007F7F"/>
<path d="M130.588 118.824H131.765V120H130.588V118.824Z" fill="#007F7F"/>
<path d="M54.1177 120H55.2941V121.176H54.1177V120Z" fill="#007F7F"/>
<path d="M61.1765 120H62.353V121.176H61.1765V120Z" fill="#007F7F"/>
<path d="M68.2354 120H69.4118V121.176H68.2354V120Z" fill="#007F7F"/>
<path d="M120 120H122.353V121.176H120V120Z" fill="#007F7F"/>
<path d="M41.1765 121.176H43.5295V122.353H41.1765V121.176Z" fill="#007F7F"/>
<path d="M57.6471 121.176H58.8236V122.353H57.6471V121.176Z" fill="#007F7F"/>
<path d="M122.353 121.176H123.529V122.353H122.353V121.176Z" fill="#007F7F"/>
<path d="M131.765 121.176H134.118V123.529H132.941V122.353H131.765V121.176Z" fill="#007F7F"/>
<path d="M140 121.176H141.176V122.353H140V121.176Z" fill="#007F7F"/>
<path d="M123.529 122.353H124.706V123.529H123.529V122.353Z" fill="#007F7F"/>
<path d="M142.353 122.353H143.529V123.529H142.353V122.353Z" fill="#007F7F"/>
<path d="M125.882 123.529H127.059V124.706H125.882V123.529Z" fill="#007F7F"/>
<path d="M134.118 123.529H135.294V124.706H134.118V123.529Z" fill="#007F7F"/>
<path d="M143.529 123.529H144.706V125.882H143.529V124.706V123.529Z" fill="#007F7F"/>
<path d="M98.8236 124.706H100V125.882H98.8236V124.706Z" fill="#007F7F"/>
<path d="M120 124.706H121.176V125.882H120V124.706Z" fill="#007F7F"/>
<path d="M148.235 124.706H149.412V125.882H148.235V124.706Z" fill="#007F7F"/>
<path d="M97.6471 125.882H98.8236V127.059H97.6471V125.882Z" fill="#007F7F"/>
<path d="M101.177 125.882H102.353V127.059H101.177V125.882Z" fill="#007F7F"/>
<path d="M127.059 125.882H128.235V127.059H127.059V125.882Z" fill="#007F7F"/>
<path d="M136.471 125.882H137.647V127.059H136.471V125.882Z" fill="#007F7F"/>
<path d="M88.2354 127.059H90.5883V128.235H88.2354V127.059Z" fill="#007F7F"/>
<path d="M92.9412 127.059H94.1176V128.235H92.9412V127.059Z" fill="#007F7F"/>
<path d="M96.4706 127.059H97.6471V128.235H96.4706V127.059Z" fill="#007F7F"/>
<path d="M121.177 127.059H122.353V128.235H121.177V127.059Z" fill="#007F7F"/>
<path d="M69.4119 128.235H70.5883V129.412H69.4119V128.235Z" fill="#007F7F"/>
<path d="M85.8824 128.235H87.0589V129.412H85.8824V128.235Z" fill="#007F7F"/>
<path d="M95.2942 128.235H96.4707V129.412H95.2942V128.235Z" fill="#007F7F"/>
<path d="M129.412 128.235H130.588V129.412H129.412V128.235Z" fill="#007F7F"/>
<path d="M77.6471 129.412H78.8236V130.588H77.6471V129.412Z" fill="#007F7F"/>
<path d="M81.1765 129.412H82.353V130.588H81.1765V129.412Z" fill="#007F7F"/>
<path d="M130.588 129.412H131.765V130.588H130.588V129.412Z" fill="#007F7F"/>
<path d="M107.059 131.765H108.235V132.941H107.059V131.765Z" fill="#007F7F"/>
<path d="M125.882 132.941H127.059V134.118H125.882V132.941Z" fill="#007F7F"/>
<path d="M116.471 134.118H117.647V135.294H116.471V134.118Z" fill="#007F7F"/>
<path d="M128.235 134.118H129.412V135.294H128.235V134.118Z" fill="#007F7F"/>
<path d="M115.294 135.294H116.471V137.647H115.294V136.471V135.294Z" fill="#007F7F"/>
<path d="M118.824 136.471H120V137.647H118.824V136.471Z" fill="#007F7F"/>
<path d="M136.471 136.471H137.647V137.647H136.471V136.471Z" fill="#007F7F"/>
<path d="M114.118 137.647H115.294V138.824H114.118V137.647Z" fill="#007F7F"/>
<path d="M147.059 137.647H148.235V138.824H147.059V137.647Z" fill="#007F7F"/>
<path d="M148.235 138.824H149.412V140H148.235V138.824Z" fill="#007F7F"/>
<path d="M115.294 140H116.471V141.176H115.294V140Z" fill="#007F7F"/>
<path d="M117.647 140H118.824V141.176H117.647V140Z" fill="#007F7F"/>
<path d="M149.412 140H150.588V141.176H149.412V140Z" fill="#007F7F"/>
<path d="M69.4119 141.176H70.5883V142.353H69.4119V141.176Z" fill="#007F7F"/>
<path d="M109.412 141.176H110.588V143.529H109.412V142.353V141.176Z" fill="#007F7F"/>
<path d="M117.647 142.353H118.824V143.529H117.647V142.353Z" fill="#007F7F"/>
<path d="M170.588 143.529H171.765V144.706H170.588V143.529Z" fill="#007F7F"/>
<path d="M171.765 144.706H172.941V145.882H171.765V144.706Z" fill="#007F7F"/>
<path d="M118.824 145.882H120V147.059H118.824V145.882Z" fill="#007F7F"/>
<path d="M172.941 145.882H174.118V147.059H172.941V145.882Z" fill="#007F7F"/>
<path d="M152.941 147.059H154.118V148.235H152.941V147.059Z" fill="#007F7F"/>
<path d="M118.824 148.235H120V149.412H118.824V148.235Z" fill="#007F7F"/>
<path d="M40 156.471H41.1765V157.647H40V156.471Z" fill="#007F7F"/>
<path d="M118.824 157.647H120V158.824H118.824V157.647Z" fill="#007F7F"/>
<path d="M74.1177 163.529H75.2941V164.706H74.1177V163.529Z" fill="#007F7F"/>
<path d="M121.177 164.706H122.353V165.882H121.177V164.706Z" fill="#007F7F"/>
<path d="M155.294 164.706H156.471V165.882H155.294V164.706Z" fill="#007F7F"/>
<path d="M121.177 172.941H122.353V174.118H121.177V172.941Z" fill="#007F7F"/>
<path d="M136.471 175.294H137.647V176.471H136.471V175.294Z" fill="#007F7F"/>
<path d="M137.647 176.471H138.824V177.647H137.647V176.471Z" fill="#007F7F"/>
<path d="M38.8236 14.1176H40.0001V15.2941H38.8236V14.1176Z" fill="#007F7F"/>
<path d="M60 18.8235H61.1765V20H60V18.8235Z" fill="#007F7F"/>
<path d="M62.3529 20H63.5294V21.1765H62.3529V20Z" fill="#007F7F"/>
<path d="M84.7059 27.0588H85.8824V28.2353H84.7059V27.0588Z" fill="#007F7F"/>
<path d="M88.2354 27.0588H89.4118V28.2353H88.2354V27.0588Z" fill="#007F7F"/>
<path d="M65.8823 28.2353H67.0588V29.4118H65.8823V28.2353Z" fill="#007F7F"/>
<path d="M83.5294 30.5882H84.7059V31.7647H83.5294V30.5882Z" fill="#007F7F"/>
<path d="M80 32.9412H81.1765V34.1176H80V32.9412Z" fill="#007F7F"/>
<path d="M61.1765 34.1176H62.353V36.4706H61.1765V35.2941V34.1176Z" fill="#007F7F"/>
<path d="M45.8823 38.8235H47.0588V40H45.8823V38.8235Z" fill="#007F7F"/>
<path d="M60 44.7059H61.1765V45.8824H60V44.7059Z" fill="#007F7F"/>
<path d="M83.5294 48.2353H84.7059V49.4118H83.5294V48.2353Z" fill="#007F7F"/>
<path d="M84.7059 50.5882H85.8824V51.7647H84.7059V50.5882Z" fill="#007F7F"/>
<path d="M63.5294 54.1176H64.7059V55.2941H63.5294V54.1176Z" fill="#007F7F"/>
<path d="M180 54.1176H181.176V55.2941H180V54.1176Z" fill="#007F7F"/>
<path d="M122.353 55.2941H123.529V56.4706H122.353V55.2941Z" fill="#007F7F"/>
<path d="M121.177 56.4706H122.353V57.6471H121.177V56.4706Z" fill="#007F7F"/>
<path d="M82.353 57.6471H83.5295V58.8235H82.353V57.6471Z" fill="#007F7F"/>
<path d="M129.412 57.6471H130.588V58.8235H129.412V57.6471Z" fill="#007F7F"/>
<path d="M75.2942 58.8235H76.4707V60H75.2942V58.8235Z" fill="#007F7F"/>
<path d="M105.882 58.8235H107.059V60H105.882V58.8235Z" fill="#007F7F"/>
<path d="M169.412 58.8235H170.588V60H169.412V58.8235Z" fill="#007F7F"/>
<path d="M88.2354 60H89.4118V61.1765H88.2354V60Z" fill="#007F7F"/>
<path d="M90.5883 60H91.7647V61.1765H90.5883V60Z" fill="#007F7F"/>
<path d="M104.706 60H105.882V61.1765H104.706V60Z" fill="#007F7F"/>
<path d="M128.235 60H129.412V61.1765H128.235V60Z" fill="#007F7F"/>
<path d="M158.823 60H160V61.1765H158.823V60Z" fill="#007F7F"/>
<path d="M71.7648 61.1765H72.9412V62.3529H71.7648V61.1765Z" fill="#007F7F"/>
<path d="M94.1177 62.3529H95.2941V63.5294H94.1177V62.3529Z" fill="#007F7F"/>
<path d="M108.235 62.3529H109.412V63.5294H108.235V62.3529Z" fill="#007F7F"/>
<path d="M78.8236 63.5294H80.0001V64.7059H78.8236V63.5294Z" fill="#007F7F"/>
<path d="M117.647 63.5294H118.824V64.7059H117.647V63.5294Z" fill="#007F7F"/>
<path d="M89.4117 64.7059H90.5882V65.8823H89.4117V64.7059Z" fill="#007F7F"/>
<path d="M96.4706 64.7059H97.6471V65.8823H96.4706V64.7059Z" fill="#007F7F"/>
<path d="M78.8236 65.8824H80.0001V67.0588H78.8236V65.8824Z" fill="#007F7F"/>
<path d="M88.2354 65.8824H89.4118V67.0588H88.2354V65.8824Z" fill="#007F7F"/>
<path d="M104.706 65.8824H105.882V67.0588H104.706V65.8824Z" fill="#007F7F"/>
<path d="M115.294 65.8824H116.471V67.0588H115.294V65.8824Z" fill="#007F7F"/>
<path d="M100 67.0588H101.176V68.2353H100V67.0588Z" fill="#007F7F"/>
<path d="M181.177 67.0588H182.353V68.2353H181.177V67.0588Z" fill="#007F7F"/>
<path d="M108.235 68.2353H109.412V69.4118H108.235V68.2353Z" fill="#007F7F"/>
<path d="M141.177 68.2353H142.353V69.4118H141.177V68.2353Z" fill="#007F7F"/>
<path d="M76.4706 69.4118H77.6471V70.5882H76.4706V69.4118Z" fill="#007F7F"/>
<path d="M81.1765 69.4118H82.353V70.5882H81.1765V69.4118Z" fill="#007F7F"/>
<path d="M103.529 69.4118H104.706V70.5882H103.529V69.4118Z" fill="#007F7F"/>
<path d="M140 69.4118H141.176V70.5882H140V69.4118Z" fill="#007F7F"/>
<path d="M147.059 69.4118H148.235V70.5882H147.059V69.4118Z" fill="#007F7F"/>
<path d="M169.412 70.5882H171.765V71.7647H169.412V70.5882Z" fill="#007F7F"/>
<path d="M77.6471 71.7647H78.8236V72.9412H77.6471V71.7647Z" fill="#007F7F"/>
<path d="M111.765 71.7647H112.941V72.9412H111.765V71.7647Z" fill="#007F7F"/>
<path d="M116.471 74.1176H117.647V75.2941H116.471V74.1176Z" fill="#007F7F"/>
<path d="M124.706 74.1176H125.882V75.2941H124.706V74.1176Z" fill="#007F7F"/>
<path d="M82.353 75.2941H83.5295V76.4706H82.353V75.2941Z" fill="#007F7F"/>
<path d="M76.4706 76.4706H77.6471V77.6471H76.4706V76.4706Z" fill="#007F7F"/>
<path d="M131.765 76.4706H132.941V77.6471H131.765V76.4706Z" fill="#007F7F"/>
<path d="M69.4117 78.8235H70.5882V80H69.4117V78.8235Z" fill="#007F7F"/>
<path d="M127.059 78.8235H128.235V81.1765H127.059V80V78.8235Z" fill="#007F7F"/>
<path d="M130.588 80H131.765V81.1765H130.588V80Z" fill="#007F7F"/>
<path d="M75.2942 81.1765H76.4707V82.3529H75.2942V81.1765Z" fill="#007F7F"/>
<path d="M71.7648 82.3529H72.9412V83.5294H71.7648V82.3529Z" fill="#007F7F"/>
<path d="M81.1765 82.3529H82.353V83.5294H81.1765V82.3529Z" fill="#007F7F"/>
<path d="M152.941 83.5294H154.118V84.7059H152.941V83.5294Z" fill="#007F7F"/>
<path d="M162.353 83.5294H163.529V84.7059H162.353V83.5294Z" fill="#007F7F"/>
<path d="M72.9412 84.7059H74.1176V85.8823H72.9412V84.7059Z" fill="#007F7F"/>
<path d="M135.294 84.7059H138.824V85.8823H135.294V84.7059Z" fill="#007F7F"/>
<path d="M140 84.7059H141.176V85.8823H140V84.7059Z" fill="#007F7F"/>
<path d="M164.706 84.7059H165.882V85.8823H164.706V84.7059Z" fill="#007F7F"/>
<path d="M182.353 85.8824H183.529V87.0588H182.353V85.8824Z" fill="#007F7F"/>
<path d="M175.294 87.0588H176.471V88.2353H175.294V87.0588Z" fill="#007F7F"/>
<path d="M170.588 88.2353H171.765V89.4118H170.588V88.2353Z" fill="#007F7F"/>
<path d="M154.118 89.4118H155.294V90.5882H154.118V89.4118Z" fill="#007F7F"/>
<path d="M156.471 90.5882H157.647V91.7647H156.471V90.5882Z" fill="#007F7F"/>
<path d="M175.294 91.7647H176.471V92.9412H175.294V91.7647Z" fill="#007F7F"/>
<path d="M140 92.9412H142.353V94.1176H140V92.9412Z" fill="#007F7F"/>
<path d="M152.941 92.9412H154.118V94.1176H152.941V92.9412Z" fill="#007F7F"/>
<path d="M164.706 92.9412H165.882V94.1176H164.706V92.9412Z" fill="#007F7F"/>
<path d="M143.529 94.1176H145.882V95.2941H143.529V94.1176Z" fill="#007F7F"/>
<path d="M147.059 94.1176H148.235V95.2941H147.059V94.1176Z" fill="#007F7F"/>
<path d="M158.823 94.1176H160V95.2941H158.823V94.1176Z" fill="#007F7F"/>
<path d="M176.471 95.2941H178.824V96.4706H176.471V95.2941Z" fill="#007F7F"/>
<path d="M149.412 96.4706H150.588V97.6471H149.412V96.4706Z" fill="#007F7F"/>
<path d="M164.706 96.4706H165.882V97.6471H164.706V96.4706Z" fill="#007F7F"/>
<path d="M69.4117 97.6471H71.7647V98.8235H69.4117V97.6471Z" fill="#007F7F"/>
<path d="M140 97.6471H141.176V98.8235H140V97.6471Z" fill="#007F7F"/>
<path d="M74.1177 100H75.2941V101.176H74.1177V100Z" fill="#007F7F"/>
<path d="M134.118 100H135.294V101.176H134.118V100Z" fill="#007F7F"/>
<path d="M142.353 100H143.529V101.176H142.353V100Z" fill="#007F7F"/>
<path d="M167.059 100H168.235V101.176H167.059V100Z" fill="#007F7F"/>
<path d="M71.7648 101.176H72.9412V102.353H71.7648V101.176Z" fill="#007F7F"/>
<path d="M154.118 101.176H155.294V102.353H154.118V101.176Z" fill="#007F7F"/>
<path d="M65.8823 102.353H67.0588V103.529H65.8823V102.353Z" fill="#007F7F"/>
<path d="M130.588 103.529H131.765V104.706H130.588V103.529Z" fill="#007F7F"/>
<path d="M134.118 103.529H135.294V104.706H134.118V103.529Z" fill="#007F7F"/>
<path d="M124.706 105.882H125.882V108.235H124.706V107.059V105.882Z" fill="#007F7F"/>
<path d="M129.412 107.059H130.588V108.235H129.412V107.059Z" fill="#007F7F"/>
<path d="M127.059 109.412H128.235V111.765H127.059V110.588V109.412Z" fill="#007F7F"/>
<path d="M150.588 109.412H151.765V110.588H150.588V109.412Z" fill="#007F7F"/>
<path d="M63.5294 110.588H64.7059V111.765H63.5294V110.588Z" fill="#007F7F"/>
<path d="M49.4117 111.765H50.5882V112.941H49.4117V111.765Z" fill="#007F7F"/>
<path d="M71.7648 112.941H75.2942V114.118H71.7648V112.941Z" fill="#007F7F"/>
<path d="M122.353 112.941H123.529V114.118H122.353V112.941Z" fill="#007F7F"/>
<path d="M68.2354 114.118H69.4118V115.294H68.2354V114.118Z" fill="#007F7F"/>
<path d="M117.647 114.118H118.824V115.294H117.647V114.118Z" fill="#007F7F"/>
<path d="M130.588 115.294H131.765V116.471H130.588V115.294Z" fill="#007F7F"/>
<path d="M60 116.471H61.1765V117.647H60V116.471Z" fill="#007F7F"/>
<path d="M62.3529 116.471H63.5294V117.647H62.3529V116.471Z" fill="#007F7F"/>
<path d="M71.7648 116.471H72.9412V117.647H71.7648V116.471Z" fill="#007F7F"/>
<path d="M121.177 116.471H122.353V117.647H121.177V116.471Z" fill="#007F7F"/>
<path d="M131.765 116.471H132.941V117.647H131.765V116.471Z" fill="#007F7F"/>
<path d="M56.4706 117.647H57.6471V118.824H56.4706V117.647Z" fill="#007F7F"/>
<path d="M70.5883 117.647H71.7647V118.824H70.5883V117.647Z" fill="#007F7F"/>
<path d="M127.059 117.647H128.235V118.824H127.059V117.647Z" fill="#007F7F"/>
<path d="M10.5883 120H11.7647V121.176H10.5883V120Z" fill="#007F7F"/>
<path d="M42.3529 120H43.5294V121.176H42.3529V120Z" fill="#007F7F"/>
<path d="M58.8236 121.176H60.0001V122.353H58.8236V121.176Z" fill="#007F7F"/>
<path d="M138.823 121.176H140V122.353H138.823V121.176Z" fill="#007F7F"/>
<path d="M124.706 122.353H125.882V123.529H124.706V122.353Z" fill="#007F7F"/>
<path d="M123.529 123.529H124.706V124.706H123.529V123.529Z" fill="#007F7F"/>
<path d="M135.294 123.529H136.471V125.882H135.294V124.706V123.529Z" fill="#007F7F"/>
<path d="M142.353 123.529H143.529V124.706H142.353V123.529Z" fill="#007F7F"/>
<path d="M30.5883 124.706H31.7647V127.059H30.5883V125.882V124.706Z" fill="#007F7F"/>
<path d="M65.8823 124.706H67.0588V125.882H65.8823V124.706Z" fill="#007F7F"/>
<path d="M100 124.706H101.176V125.882H100V124.706Z" fill="#007F7F"/>
<path d="M127.059 124.706H128.235V125.882H127.059V124.706Z" fill="#007F7F"/>
<path d="M128.235 125.882H129.412V129.412H128.235V128.235H127.059V127.059H128.235V125.882Z" fill="#007F7F"/>
<path d="M137.647 127.059H138.824V128.235H137.647V127.059Z" fill="#007F7F"/>
<path d="M91.7648 128.235H92.9412V130.588H91.7648V129.412V128.235Z" fill="#007F7F"/>
<path d="M120 128.235H121.176V129.412H120V128.235Z" fill="#007F7F"/>
<path d="M123.529 128.235H124.706V129.412H123.529V128.235Z" fill="#007F7F"/>
<path d="M138.823 128.235H140V129.412H138.823V128.235Z" fill="#007F7F"/>
<path d="M75.2942 129.412H77.6471V130.588H75.2942V129.412Z" fill="#007F7F"/>
<path d="M82.353 129.412H83.5295V130.588H82.353V129.412Z" fill="#007F7F"/>
<path d="M85.8823 130.588H88.2353V131.765H85.8823V130.588Z" fill="#007F7F"/>
<path d="M127.059 130.588H128.235V131.765H127.059V130.588Z" fill="#007F7F"/>
<path d="M108.235 132.941H109.412V134.118H108.235V132.941Z" fill="#007F7F"/>
<path d="M116.471 132.941H117.647V134.118H116.471V132.941Z" fill="#007F7F"/>
<path d="M110.588 134.118H111.765V135.294H110.588V134.118Z" fill="#007F7F"/>
<path d="M137.647 135.294H138.824V136.471H137.647V135.294Z" fill="#007F7F"/>
<path d="M112.941 136.471H114.118V137.647H112.941V136.471Z" fill="#007F7F"/>
<path d="M137.647 137.647H138.824V138.824H137.647V137.647Z" fill="#007F7F"/>
<path d="M141.177 138.824H142.353V140H141.177V138.824Z" fill="#007F7F"/>
<path d="M68.2354 140H69.4118V141.176H68.2354V140Z" fill="#007F7F"/>
<path d="M142.353 140H143.529V141.176H142.353V140Z" fill="#007F7F"/>
<path d="M67.0588 141.176H68.2353V142.353H67.0588V141.176Z" fill="#007F7F"/>
<path d="M118.824 142.353H120V143.529H118.824V142.353Z" fill="#007F7F"/>
<path d="M169.412 142.353H170.588V143.529H169.412V142.353Z" fill="#007F7F"/>
<path d="M117.647 145.882H118.824V147.059H117.647V145.882Z" fill="#007F7F"/>
<path d="M148.235 147.059H149.412V148.235H148.235V147.059Z" fill="#007F7F"/>
<path d="M64.7059 149.412H65.8824V150.588H64.7059V149.412Z" fill="#007F7F"/>
<path d="M134.118 150.588H135.294V151.765H134.118V150.588Z" fill="#007F7F"/>
<path d="M135.294 151.765H136.471V154.118H135.294V152.941V151.765Z" fill="#007F7F"/>
<path d="M40 154.118H41.1765V155.294H40V154.118Z" fill="#007F7F"/>
<path d="M120 157.647H121.176V158.824H120V157.647Z" fill="#007F7F"/>
<path d="M118.824 158.824H120V160H118.824V158.824Z" fill="#007F7F"/>
<path d="M120 160H121.176V161.176H120V160Z" fill="#007F7F"/>
<path d="M121.177 163.529H122.353V164.706H121.177V163.529Z" fill="#007F7F"/>
<path d="M122.353 167.059H123.529V168.235H122.353V167.059Z" fill="#007F7F"/>
<path d="M120 169.412H121.176V170.588H120V169.412Z" fill="#007F7F"/>
<path d="M121.177 170.588H122.353V171.765H121.177V170.588Z" fill="#007F7F"/>
<path d="M128.235 174.118H129.412V175.294H128.235V174.118Z" fill="#007F7F"/>
<path d="M136.471 174.118H137.647V175.294H136.471V174.118Z" fill="#007F7F"/>
<path d="M61.1765 177.647H62.353V178.824H61.1765V177.647Z" fill="#007F7F"/>
<path d="M137.647 177.647H138.824V178.824H137.647V177.647Z" fill="#007F7F"/>
</svg>
