<svg width="57" height="58" viewBox="0 0 57 58" fill="none" xmlns="http://www.w3.org/2000/svg">
<g id="zondicons:close-outline" clip-path="url(#clip0_464_30452)">
<path id="Vector" d="M8.35062 49.1495C5.62858 46.5205 3.45738 43.3756 1.96373 39.8985C0.47007 36.4214 -0.316138 32.6816 -0.349022 28.8974C-0.381905 25.1132 0.339193 21.3603 1.7722 17.8578C3.2052 14.3553 5.32142 11.1732 7.99736 8.49724C10.6733 5.82129 13.8554 3.70508 17.3579 2.27208C20.8605 0.839071 24.6133 0.117973 28.3975 0.150856C32.1818 0.18374 35.9215 0.969948 39.3986 2.4636C42.8758 3.95726 46.0206 6.12845 48.6496 8.85049C53.8411 14.2257 56.7138 21.4248 56.6488 28.8974C56.5839 36.37 53.5866 43.5182 48.3024 48.8023C43.0183 54.0865 35.8702 57.0838 28.3975 57.1487C20.9249 57.2136 13.7258 54.341 8.35062 49.1495ZM12.3691 45.131C16.6473 49.4092 22.4498 51.8127 28.5001 51.8127C34.5504 51.8127 40.3529 49.4092 44.6311 45.131C48.9093 40.8528 51.3128 35.0503 51.3128 29C51.3128 22.9497 48.9093 17.1472 44.6311 12.869C40.3529 8.59079 34.5504 6.18731 28.5001 6.18731C22.4498 6.18731 16.6473 8.59079 12.3691 12.869C8.09091 17.1472 5.68744 22.9497 5.68744 29C5.68744 35.0503 8.09091 40.8528 12.3691 45.131ZM40.5841 20.9345L32.5186 29L40.5841 37.0655L36.5656 41.084L28.5001 33.0185L20.4346 41.084L16.4161 37.0655L24.4816 29L16.4161 20.9345L20.4346 16.916L28.5001 24.9815L36.5656 16.916L40.5841 20.9345Z" fill="#FFC0CB"/>
</g>
<defs>
<clipPath id="clip0_464_30452">
<rect width="57" height="57" fill="white" transform="translate(0 0.5)"/>
</clipPath>
</defs>
</svg>
