<svg width="200" height="200" viewBox="0 0 200 200" fill="none" xmlns="http://www.w3.org/2000/svg">
<path d="M140 10.5882H141.176V14.1177H140V11.7647V10.5882Z" fill="#7FFF00"/>
<path d="M143.529 11.7647H144.706V12.9412H143.529V11.7647Z" fill="#7FFF00"/>
<path d="M141.177 14.1177H142.353V15.2941H141.177V14.1177Z" fill="#7FFF00"/>
<path d="M111.765 22.353H112.941V24.7059H111.765V23.5294V22.353Z" fill="#7FFF00"/>
<path d="M110.588 24.7059H111.765V25.8824H110.588V24.7059Z" fill="#7FFF00"/>
<path d="M110.588 31.7647H111.765V32.9412H110.588V31.7647Z" fill="#7FFF00"/>
<path d="M111.765 32.9412H112.941V34.1176H111.765V32.9412Z" fill="#7FFF00"/>
<path d="M109.412 34.1176H110.588V35.2941H109.412V34.1176Z" fill="#7FFF00"/>
<path d="M110.588 35.2941H111.765V36.4706H110.588V35.2941Z" fill="#7FFF00"/>
<path d="M87.0588 36.4706H89.4118V37.6471H87.0588V36.4706Z" fill="#7FFF00"/>
<path d="M109.412 36.4706H110.588V37.6471H109.412V36.4706Z" fill="#7FFF00"/>
<path d="M130.588 36.4706H131.765V37.6471H130.588V36.4706Z" fill="#7FFF00"/>
<path d="M132.941 36.4706H134.118V40H132.941V37.6471V36.4706Z" fill="#7FFF00"/>
<path d="M129.412 37.6471H130.588V38.8235H129.412V37.6471Z" fill="#7FFF00"/>
<path d="M128.235 38.8235H129.412V40H128.235V38.8235Z" fill="#7FFF00"/>
<path d="M98.8235 40H100V41.1765H98.8235V40Z" fill="#7FFF00"/>
<path d="M132.941 41.1765H134.118V43.5294H132.941V42.353V41.1765Z" fill="#7FFF00"/>
<path d="M98.8235 42.353H100V43.5294H98.8235V42.353Z" fill="#7FFF00"/>
<path d="M128.235 43.5294H129.412V44.7059H128.235V43.5294Z" fill="#7FFF00"/>
<path d="M82.3529 47.0588H83.5294V48.2353H82.3529V47.0588Z" fill="#7FFF00"/>
<path d="M87.0588 48.2353H88.2353V49.4118H87.0588V48.2353Z" fill="#7FFF00"/>
<path d="M132.941 48.2353H134.118V49.4118H132.941V48.2353Z" fill="#7FFF00"/>
<path d="M98.8235 49.4118H100V50.5882H98.8235V49.4118Z" fill="#7FFF00"/>
<path d="M72.9412 55.2941H74.1176V56.4706H72.9412V55.2941Z" fill="#7FFF00"/>
<path d="M74.1177 56.4706H75.2941V57.6471H74.1177V56.4706Z" fill="#7FFF00"/>
<path d="M80 56.4706H81.1765V57.6471H80V56.4706Z" fill="#7FFF00"/>
<path d="M81.1765 57.6471H82.3529V61.1765H80V60H81.1765V58.8235V57.6471Z" fill="#7FFF00"/>
<path d="M78.8235 58.8235H80V60H78.8235V58.8235Z" fill="#7FFF00"/>
<path d="M83.5294 58.8235H84.7059V60H83.5294V58.8235Z" fill="#7FFF00"/>
<path d="M84.7058 60H85.8823V61.1765H84.7058V60Z" fill="#7FFF00"/>
<path d="M71.7646 61.1765H72.9411V62.353H71.7646V61.1765Z" fill="#7FFF00"/>
<path d="M90.5883 61.1765H91.7647V62.353H90.5883V61.1765Z" fill="#7FFF00"/>
<path d="M95.2941 61.1765H96.4705V62.353H95.2941V61.1765Z" fill="#7FFF00"/>
<path d="M103.529 61.1765H104.706V64.7059H103.529V65.8824H102.353V63.5294H103.529V62.353V61.1765Z" fill="#7FFF00"/>
<path d="M120 61.1765H121.176V62.353H120V61.1765Z" fill="#7FFF00"/>
<path d="M87.0588 62.353H88.2353V63.5294H87.0588V62.353Z" fill="#7FFF00"/>
<path d="M96.4706 62.353H97.6471V63.5294H96.4706V62.353Z" fill="#7FFF00"/>
<path d="M116.471 62.353H117.647V63.5294H116.471V62.353Z" fill="#7FFF00"/>
<path d="M121.177 62.353H122.353V63.5294H121.177V62.353Z" fill="#7FFF00"/>
<path d="M78.8235 63.5294H80V64.7059H78.8235V63.5294Z" fill="#7FFF00"/>
<path d="M84.7058 63.5294H85.8823V64.7059H84.7058V63.5294Z" fill="#7FFF00"/>
<path d="M88.2352 63.5294H89.4117V64.7059H88.2352V63.5294Z" fill="#7FFF00"/>
<path d="M91.7646 63.5294H92.9411V64.7059H91.7646V63.5294Z" fill="#7FFF00"/>
<path d="M95.2941 63.5294H96.4705V64.7059H95.2941V63.5294Z" fill="#7FFF00"/>
<path d="M72.9412 64.7059H75.2941V65.8824H72.9412V64.7059Z" fill="#7FFF00"/>
<path d="M82.3529 64.7059H84.7058V65.8824H82.3529V64.7059Z" fill="#7FFF00"/>
<path d="M89.4117 64.7059H90.5882V65.8824H89.4117V64.7059Z" fill="#7FFF00"/>
<path d="M92.9412 64.7059H94.1176V65.8824H92.9412V64.7059Z" fill="#7FFF00"/>
<path d="M76.4706 65.8824H77.6471V67.0588H76.4706V65.8824Z" fill="#7FFF00"/>
<path d="M103.529 65.8824H104.706V67.0588H103.529V65.8824Z" fill="#7FFF00"/>
<path d="M118.823 65.8824H121.176V67.0588H118.823V65.8824Z" fill="#7FFF00"/>
<path d="M105.882 67.0588H107.059V69.4118H105.882V68.2353V67.0588Z" fill="#7FFF00"/>
<path d="M94.1177 68.2353H95.2941V69.4118H97.6471V70.5882H94.1177V69.4118V68.2353Z" fill="#7FFF00"/>
<path d="M138.823 68.2353H140V69.4118H138.823V68.2353Z" fill="#7FFF00"/>
<path d="M75.2941 69.4118H76.4705V70.5882H75.2941V69.4118Z" fill="#7FFF00"/>
<path d="M90.5883 69.4118H91.7647V70.5882H90.5883V69.4118Z" fill="#7FFF00"/>
<path d="M137.647 69.4118H138.824V70.5882H137.647V69.4118Z" fill="#7FFF00"/>
<path d="M88.2352 70.5882H89.4117V71.7647H88.2352V70.5882Z" fill="#7FFF00"/>
<path d="M98.8236 70.5882H101.177V71.7647H100V75.2941H97.6471V74.1177H98.8236V71.7647V70.5882Z" fill="#7FFF00"/>
<path d="M80 71.7647H81.1764V74.1177H78.8235V72.9412H80V71.7647Z" fill="#7FFF00"/>
<path d="M95.2941 71.7647H96.4705V72.9412H95.2941V71.7647Z" fill="#7FFF00"/>
<path d="M82.3529 72.9412H83.5294V74.1177H82.3529V72.9412Z" fill="#7FFF00"/>
<path d="M112.941 72.9412H114.118V74.1177H112.941V72.9412Z" fill="#7FFF00"/>
<path d="M178.823 72.9412H180V74.1177H178.823V72.9412Z" fill="#7FFF00"/>
<path d="M84.7058 74.1176H85.8823V75.2941H84.7058V74.1176Z" fill="#7FFF00"/>
<path d="M88.2352 74.1176H89.4117V75.2941H88.2352V74.1176Z" fill="#7FFF00"/>
<path d="M95.2941 74.1176H96.4705V75.2941H95.2941V74.1176Z" fill="#7FFF00"/>
<path d="M111.765 74.1176H112.941V75.2941H111.765V74.1176Z" fill="#7FFF00"/>
<path d="M177.647 74.1176H178.824V75.2941H177.647V74.1176Z" fill="#7FFF00"/>
<path d="M85.8823 75.2941H87.0588V76.4706H85.8823V75.2941Z" fill="#7FFF00"/>
<path d="M89.4117 75.2941H90.5882V76.4706H89.4117V75.2941Z" fill="#7FFF00"/>
<path d="M100 75.2941H101.176V76.4706H100V75.2941Z" fill="#7FFF00"/>
<path d="M109.412 75.2941H111.765V76.4706H109.412V75.2941Z" fill="#7FFF00"/>
<path d="M42.3529 76.4706H43.5294V77.6471H42.3529V76.4706Z" fill="#7FFF00"/>
<path d="M78.8235 76.4706H80V77.6471H78.8235V76.4706Z" fill="#7FFF00"/>
<path d="M108.235 76.4706H109.412V77.6471H108.235V76.4706Z" fill="#7FFF00"/>
<path d="M112.941 76.4706H114.118V77.6471H112.941V76.4706Z" fill="#7FFF00"/>
<path d="M80 77.6471H81.1765V78.8235H80V77.6471Z" fill="#7FFF00"/>
<path d="M88.2352 77.6471H89.4117V78.8235H88.2352V77.6471Z" fill="#7FFF00"/>
<path d="M108.235 78.8235H109.412V80H108.235V78.8235Z" fill="#7FFF00"/>
<path d="M103.529 81.1765H107.059V82.353H103.529V81.1765Z" fill="#7FFF00"/>
<path d="M111.765 81.1765H112.941V82.353H111.765V81.1765Z" fill="#7FFF00"/>
<path d="M120 82.353H121.176V83.5294H120V82.353Z" fill="#7FFF00"/>
<path d="M80 83.5294H81.1765V84.7059H80V83.5294Z" fill="#7FFF00"/>
<path d="M110.588 83.5294H111.765V84.7059H110.588V83.5294Z" fill="#7FFF00"/>
<path d="M127.059 83.5294H128.235V84.7059H127.059V83.5294Z" fill="#7FFF00"/>
<path d="M131.765 83.5294H132.941V84.7059H131.765V83.5294Z" fill="#7FFF00"/>
<path d="M78.8235 84.7059H80V85.8824H78.8235V84.7059Z" fill="#7FFF00"/>
<path d="M111.765 84.7059H112.941V85.8824H111.765V84.7059Z" fill="#7FFF00"/>
<path d="M114.118 84.7059H115.294V85.8824H114.118V84.7059Z" fill="#7FFF00"/>
<path d="M178.823 84.7059H180V85.8824H178.823V84.7059Z" fill="#7FFF00"/>
<path d="M182.353 84.7059H183.529V87.0588H182.353V85.8824V84.7059Z" fill="#7FFF00"/>
<path d="M75.2941 85.8824H76.4705V87.0588H75.2941V85.8824Z" fill="#7FFF00"/>
<path d="M112.941 85.8824H114.118V87.0588H112.941V85.8824Z" fill="#7FFF00"/>
<path d="M177.647 85.8824H178.824V87.0588H177.647V85.8824Z" fill="#7FFF00"/>
<path d="M111.765 87.0588H112.941V88.2353H111.765V87.0588Z" fill="#7FFF00"/>
<path d="M125.882 87.0588H127.059V88.2353H125.882V87.0588Z" fill="#7FFF00"/>
<path d="M128.235 87.0588H130.588V88.2353H128.235V87.0588Z" fill="#7FFF00"/>
<path d="M171.765 87.0588H175.294V88.2353H171.765V87.0588Z" fill="#7FFF00"/>
<path d="M178.823 87.0588H181.176V88.2353H178.823V87.0588Z" fill="#7FFF00"/>
<path d="M134.118 88.2353H135.294V90.5882H132.941V89.4118H134.118V88.2353Z" fill="#7FFF00"/>
<path d="M170.588 88.2353H171.765V89.4118H170.588V88.2353Z" fill="#7FFF00"/>
<path d="M175.294 88.2353H176.471V89.4118H175.294V88.2353Z" fill="#7FFF00"/>
<path d="M117.647 89.4118H118.824V94.1177H116.471V92.9412H117.647V90.5882V89.4118Z" fill="#7FFF00"/>
<path d="M122.353 89.4118H125.882V90.5882H123.529V91.7647H122.353V90.5882V89.4118Z" fill="#7FFF00"/>
<path d="M171.765 89.4118H174.118V90.5882H171.765V89.4118Z" fill="#7FFF00"/>
<path d="M164.706 91.7647H165.882V92.9412H164.706V91.7647Z" fill="#7FFF00"/>
<path d="M112.941 92.9412H114.118V94.1177H112.941V92.9412Z" fill="#7FFF00"/>
<path d="M138.823 92.9412H141.176V94.1177H138.823V92.9412Z" fill="#7FFF00"/>
<path d="M157.647 92.9412H160V94.1177H157.647V92.9412Z" fill="#7FFF00"/>
<path d="M62.3529 94.1176H63.5294V95.2941H62.3529V94.1176Z" fill="#7FFF00"/>
<path d="M115.294 94.1176H116.471V96.4706H117.647V97.6471H115.294V96.4706H114.118V95.2941H115.294V94.1176Z" fill="#7FFF00"/>
<path d="M156.471 94.1176H157.647V95.2941H156.471V94.1176Z" fill="#7FFF00"/>
<path d="M61.1765 95.2941H62.353V96.4706H61.1765V95.2941Z" fill="#7FFF00"/>
<path d="M120 95.2941H121.176V97.6471H120V96.4706V95.2941Z" fill="#7FFF00"/>
<path d="M142.353 95.2941H144.706V96.4706H142.353V95.2941Z" fill="#7FFF00"/>
<path d="M154.118 95.2941H155.294V96.4706H154.118V95.2941Z" fill="#7FFF00"/>
<path d="M149.412 96.4706H150.588V97.6471H149.412V96.4706Z" fill="#7FFF00"/>
<path d="M168.235 96.4706H169.412V97.6471H168.235V96.4706Z" fill="#7FFF00"/>
<path d="M151.765 97.6471H152.941V98.8235H151.765V97.6471Z" fill="#7FFF00"/>
<path d="M16.4706 98.8235H21.1765V100H16.4706V98.8235Z" fill="#7FFF00"/>
<path d="M140 98.8235H141.176V100H140V98.8235Z" fill="#7FFF00"/>
<path d="M145.882 98.8235H147.059V100H145.882V98.8235Z" fill="#7FFF00"/>
<path d="M150.588 98.8235H151.765V100H150.588V98.8235Z" fill="#7FFF00"/>
<path d="M115.294 100H116.471V102.353H115.294V101.176V100Z" fill="#7FFF00"/>
<path d="M141.177 100H144.706V101.176H141.177V100Z" fill="#7FFF00"/>
<path d="M147.059 100H149.412V101.176H147.059V100Z" fill="#7FFF00"/>
<path d="M54.1177 101.176H55.2941V102.353H54.1177V101.176Z" fill="#7FFF00"/>
<path d="M60 101.176H61.1765V102.353H60V101.176Z" fill="#7FFF00"/>
<path d="M111.765 101.176H112.941V102.353H111.765V101.176Z" fill="#7FFF00"/>
<path d="M128.235 101.176H129.412V102.353H128.235V101.176Z" fill="#7FFF00"/>
<path d="M138.823 101.176H140V102.353H138.823V101.176Z" fill="#7FFF00"/>
<path d="M56.4706 102.353H57.6471V103.529H56.4706V102.353Z" fill="#7FFF00"/>
<path d="M61.1765 102.353H62.353V103.529H61.1765V102.353Z" fill="#7FFF00"/>
<path d="M112.941 102.353H114.118V103.529H112.941V102.353Z" fill="#7FFF00"/>
<path d="M122.353 102.353H124.706V103.529H123.529V104.706H122.353V103.529V102.353Z" fill="#7FFF00"/>
<path d="M136.471 102.353H137.647V103.529H136.471V102.353Z" fill="#7FFF00"/>
<path d="M141.177 102.353H143.529V103.529H141.177V102.353Z" fill="#7FFF00"/>
<path d="M62.3529 103.529H63.5294V104.706H62.3529V103.529Z" fill="#7FFF00"/>
<path d="M111.765 103.529H112.941V104.706H111.765V103.529Z" fill="#7FFF00"/>
<path d="M114.118 103.529H115.294V104.706H114.118V103.529Z" fill="#7FFF00"/>
<path d="M63.5294 104.706H64.7059V105.882H63.5294V104.706Z" fill="#7FFF00"/>
<path d="M112.941 104.706H114.118V105.882H112.941V104.706Z" fill="#7FFF00"/>
<path d="M115.294 104.706H117.647V105.882H115.294V104.706Z" fill="#7FFF00"/>
<path d="M135.294 104.706H136.471V105.882H135.294V104.706Z" fill="#7FFF00"/>
<path d="M70.5883 105.882H72.9412V107.059H70.5883V105.882Z" fill="#7FFF00"/>
<path d="M75.2941 105.882H76.4705V107.059H75.2941V105.882Z" fill="#7FFF00"/>
<path d="M118.823 105.882H120V107.059H118.823V105.882Z" fill="#7FFF00"/>
<path d="M128.235 105.882H129.412V107.059H128.235V105.882Z" fill="#7FFF00"/>
<path d="M131.765 105.882H132.941V107.059H131.765V105.882Z" fill="#7FFF00"/>
<path d="M78.8235 107.059H80V108.235H78.8235V107.059Z" fill="#7FFF00"/>
<path d="M122.353 107.059H123.529V108.235H124.706V109.412H121.177V108.235H122.353V107.059Z" fill="#7FFF00"/>
<path d="M124.706 107.059H127.059V108.235H124.706V107.059Z" fill="#7FFF00"/>
<path d="M132.941 107.059H134.118V108.235H132.941V107.059Z" fill="#7FFF00"/>
<path d="M117.647 108.235H118.824V109.412H117.647V108.235Z" fill="#7FFF00"/>
<path d="M128.235 108.235H129.412V109.412H128.235V108.235Z" fill="#7FFF00"/>
<path d="M125.882 109.412H128.235V110.588H125.882V109.412Z" fill="#7FFF00"/>
<path d="M69.4117 110.588H70.5882V111.765H69.4117V110.588Z" fill="#7FFF00"/>
<path d="M78.8235 110.588H80V111.765H78.8235V110.588Z" fill="#7FFF00"/>
<path d="M121.177 110.588H122.353V111.765H121.177V110.588Z" fill="#7FFF00"/>
<path d="M76.4706 111.765H77.6471V112.941H76.4706V111.765Z" fill="#7FFF00"/>
<path d="M116.471 112.941H117.647V114.118H116.471V112.941Z" fill="#7FFF00"/>
<path d="M118.823 112.941H121.176V114.118H118.823V112.941Z" fill="#7FFF00"/>
<path d="M125.882 112.941H127.059V114.118H125.882V112.941Z" fill="#7FFF00"/>
<path d="M114.118 114.118H115.294V115.294H114.118V114.118Z" fill="#7FFF00"/>
<path d="M128.235 114.118H130.588V115.294H128.235V114.118Z" fill="#7FFF00"/>
<path d="M141.177 114.118H142.353V115.294H141.177V114.118Z" fill="#7FFF00"/>
<path d="M76.4706 115.294H77.6471V116.471H76.4706V115.294Z" fill="#7FFF00"/>
<path d="M110.588 115.294H111.765V117.647H110.588V116.471V115.294Z" fill="#7FFF00"/>
<path d="M112.941 115.294H114.118V116.471H112.941V115.294Z" fill="#7FFF00"/>
<path d="M127.059 115.294H128.235V116.471H127.059V115.294Z" fill="#7FFF00"/>
<path d="M131.765 115.294H134.118V116.471H131.765V115.294Z" fill="#7FFF00"/>
<path d="M77.6471 116.471H78.8236V117.647H77.6471V116.471Z" fill="#7FFF00"/>
<path d="M129.412 116.471H130.588V117.647H129.412V116.471Z" fill="#7FFF00"/>
<path d="M136.471 116.471H138.824V117.647H136.471V116.471Z" fill="#7FFF00"/>
<path d="M69.4117 117.647H70.5882V120H69.4117V118.824V117.647Z" fill="#7FFF00"/>
<path d="M125.882 117.647H127.059V118.824H125.882V117.647Z" fill="#7FFF00"/>
<path d="M131.765 117.647H134.118V118.824H131.765V117.647Z" fill="#7FFF00"/>
<path d="M76.4706 118.824H77.6471V120H76.4706V118.824Z" fill="#7FFF00"/>
<path d="M122.353 118.824H124.706V120H122.353V118.824Z" fill="#7FFF00"/>
<path d="M134.118 118.824H135.294V120H134.118V118.824Z" fill="#7FFF00"/>
<path d="M136.471 118.824H138.824V120H136.471V118.824Z" fill="#7FFF00"/>
<path d="M54.1177 120H55.2941V121.176H54.1177V120Z" fill="#7FFF00"/>
<path d="M75.2941 120H76.4705V121.176H75.2941V120Z" fill="#7FFF00"/>
<path d="M77.6471 120H80V121.176H77.6471V120Z" fill="#7FFF00"/>
<path d="M109.412 120H110.588V121.176H109.412V120Z" fill="#7FFF00"/>
<path d="M75.2941 122.353H77.647V123.529H75.2941V122.353Z" fill="#7FFF00"/>
<path d="M108.235 122.353H109.412V123.529H108.235V122.353Z" fill="#7FFF00"/>
<path d="M77.6471 123.529H78.8235V125.882H76.4706V124.706H77.6471V123.529Z" fill="#7FFF00"/>
<path d="M107.059 125.882H108.235V127.059H107.059V125.882Z" fill="#7FFF00"/>
<path d="M78.8235 127.059H81.1764V128.235H78.8235V127.059Z" fill="#7FFF00"/>
<path d="M105.882 128.235H107.059V132.941H105.882V129.412V128.235Z" fill="#7FFF00"/>
<path d="M81.1765 129.412H82.353V130.588H81.1765V129.412Z" fill="#7FFF00"/>
<path d="M82.3529 132.941H83.5294V136.471H82.3529V134.118V132.941Z" fill="#7FFF00"/>
<path d="M87.0588 132.941H88.2353V134.118H87.0588V132.941Z" fill="#7FFF00"/>
<path d="M102.353 132.941H103.529V134.118H102.353V132.941Z" fill="#7FFF00"/>
<path d="M104.706 132.941H105.882V134.118H104.706V132.941Z" fill="#7FFF00"/>
<path d="M100 134.118H101.176V135.294H100V134.118Z" fill="#7FFF00"/>
<path d="M103.529 134.118H104.706V135.294H103.529V134.118Z" fill="#7FFF00"/>
<path d="M87.0588 135.294H88.2353V136.471H87.0588V135.294Z" fill="#7FFF00"/>
<path d="M96.4706 135.294H97.6471V136.471H96.4706V135.294Z" fill="#7FFF00"/>
<path d="M101.177 135.294H103.529V136.471H101.177V135.294Z" fill="#7FFF00"/>
<path d="M105.882 135.294H107.059V136.471H105.882V135.294Z" fill="#7FFF00"/>
<path d="M83.5294 136.471H84.7059V138.824H83.5294V137.647V136.471Z" fill="#7FFF00"/>
<path d="M85.8823 136.471H87.0588V138.824H85.8823V137.647V136.471Z" fill="#7FFF00"/>
<path d="M100 136.471H101.176V137.647H100V136.471Z" fill="#7FFF00"/>
<path d="M96.4706 137.647H97.6471V138.824H96.4706V137.647Z" fill="#7FFF00"/>
<path d="M101.177 137.647H102.353V138.824H101.177V137.647Z" fill="#7FFF00"/>
<path d="M103.529 137.647H104.706V138.824H103.529V137.647Z" fill="#7FFF00"/>
<path d="M82.3529 138.824H83.5294V140H82.3529V138.824Z" fill="#7FFF00"/>
<path d="M97.6471 138.824H98.8236V141.176H97.6471V140V138.824Z" fill="#7FFF00"/>
<path d="M41.1765 141.176H42.353V142.353H41.1765V141.176Z" fill="#7FFF00"/>
<path d="M80 141.176H81.1765V142.353H80V141.176Z" fill="#7FFF00"/>
<path d="M87.0588 141.176H88.2353V142.353H87.0588V141.176Z" fill="#7FFF00"/>
<path d="M89.4117 141.176H90.5882V143.529H89.4117V142.353V141.176Z" fill="#7FFF00"/>
<path d="M95.2941 142.353H97.647V143.529H95.2941V142.353Z" fill="#7FFF00"/>
<path d="M111.765 142.353H115.294V143.529H111.765V142.353Z" fill="#7FFF00"/>
<path d="M84.7058 143.529H85.8823V144.706H84.7058V143.529Z" fill="#7FFF00"/>
<path d="M87.0588 143.529H88.2353V144.706H87.0588V143.529Z" fill="#7FFF00"/>
<path d="M101.177 143.529H102.353V144.706H101.177V143.529Z" fill="#7FFF00"/>
<path d="M115.294 143.529H116.471V144.706H115.294V143.529Z" fill="#7FFF00"/>
<path d="M83.5294 144.706H84.7059V145.882H83.5294V144.706Z" fill="#7FFF00"/>
<path d="M85.8823 144.706H87.0588V145.882H85.8823V144.706Z" fill="#7FFF00"/>
<path d="M109.412 144.706H110.588V145.882H109.412V144.706Z" fill="#7FFF00"/>
<path d="M116.471 144.706H117.647V147.059H116.471V145.882V144.706Z" fill="#7FFF00"/>
<path d="M85.8823 147.059H87.0588V148.235H85.8823V147.059Z" fill="#7FFF00"/>
<path d="M97.6471 147.059H98.8236V148.235H97.6471V147.059Z" fill="#7FFF00"/>
<path d="M80 148.235H81.1765V150.588H80V149.412V148.235Z" fill="#7FFF00"/>
<path d="M94.1177 148.235H95.2941V149.412H94.1177V148.235Z" fill="#7FFF00"/>
<path d="M111.765 148.235H112.941V149.412H111.765V148.235Z" fill="#7FFF00"/>
<path d="M114.118 148.235H116.471V149.412H114.118V148.235Z" fill="#7FFF00"/>
<path d="M83.5294 149.412H85.8824V150.588H83.5294V149.412Z" fill="#7FFF00"/>
<path d="M117.647 149.412H118.824V150.588H117.647V149.412Z" fill="#7FFF00"/>
<path d="M120 149.412H121.176V150.588H120V149.412Z" fill="#7FFF00"/>
<path d="M82.3529 150.588H83.5294V151.765H82.3529V150.588Z" fill="#7FFF00"/>
<path d="M94.1177 150.588H95.2941V151.765H94.1177V150.588Z" fill="#7FFF00"/>
<path d="M97.6471 150.588H98.8236V151.765H97.6471V150.588Z" fill="#7FFF00"/>
<path d="M122.353 150.588H123.529V151.765H122.353V150.588Z" fill="#7FFF00"/>
<path d="M95.2941 151.765H96.4705V152.941H95.2941V151.765Z" fill="#7FFF00"/>
<path d="M117.647 151.765H118.824V152.941H117.647V151.765Z" fill="#7FFF00"/>
<path d="M82.3529 154.118H83.5294V157.647H82.3529V155.294V154.118Z" fill="#7FFF00"/>
<path d="M84.7058 154.118H87.0588V155.294H84.7058V154.118Z" fill="#7FFF00"/>
<path d="M92.9412 154.118H94.1176V156.471H92.9412V155.294V154.118Z" fill="#7FFF00"/>
<path d="M118.823 154.118H120V155.294H118.823V154.118Z" fill="#7FFF00"/>
<path d="M87.0588 155.294H88.2353V156.471H87.0588V155.294Z" fill="#7FFF00"/>
<path d="M121.177 155.294H122.353V156.471H121.177V155.294Z" fill="#7FFF00"/>
<path d="M82.353 158.824H83.5295V161.176H81.1765V160H82.353V158.824Z" fill="#7FFF00"/>
<path d="M87.0588 158.824H88.2353V160H87.0588V158.824Z" fill="#7FFF00"/>
<path d="M84.7058 161.176H85.8823V163.529H84.7058V162.353V161.176Z" fill="#7FFF00"/>
<path d="M85.8823 163.529H87.0588V165.882H85.8823V164.706V163.529Z" fill="#7FFF00"/>
<path d="M81.1765 172.941H82.353V174.118H81.1765V172.941Z" fill="#7FFF00"/>
<path d="M85.8823 180H88.2353V181.176H85.8823V180Z" fill="#7FFF00"/>
<path d="M88.2352 183.529H89.4117V184.706H88.2352V183.529Z" fill="#7FFF00"/>
<path d="M89.4117 184.706H90.5882V187.059H89.4117V185.882V184.706Z" fill="#7FFF00"/>
<path d="M84.7058 188.235H85.8823V189.412H84.7058V188.235Z" fill="#7FFF00"/>
<path d="M87.0588 188.235H88.2353V189.412H87.0588V188.235Z" fill="#7FFF00"/>
<path d="M83.5294 189.412H84.7059V190.588H83.5294V189.412Z" fill="#7FFF00"/>
<path d="M141.176 10.5882H143.529V14.1177H141.176V11.7647V10.5882Z" fill="#7FFF00"/>
<path d="M110.588 22.353H111.765V24.7059H110.588V23.5294V22.353Z" fill="#7FFF00"/>
<path d="M111.765 30.5882H112.941V32.9412H111.765V31.7647V30.5882Z" fill="#7FFF00"/>
<path d="M110.588 32.9412H111.765V35.2941H110.588V34.1176V32.9412Z" fill="#7FFF00"/>
<path d="M131.765 36.4706H132.941V40H134.118V41.1765H132.941V43.5294H131.765V44.7059H129.412V43.5294H128.235V40H129.412V38.8235H130.588V37.6471H131.765V36.4706Z" fill="#7FFF00"/>
<path d="M98.8235 41.1765H100V42.353H98.8235V41.1765Z" fill="#7FFF00"/>
<path d="M82.3529 45.8824H83.5294V47.0588H82.3529V45.8824Z" fill="#7FFF00"/>
<path d="M100 49.4118H101.176V51.7647H98.8235V50.5882H100V49.4118Z" fill="#7FFF00"/>
<path d="M71.7646 55.2941H72.9411V56.4706H74.1176V57.6471H76.4705V58.8235H78.8235V60H79.9999V61.1765H82.3529V58.8235H83.5294V60H84.7058V61.1765H85.8823V62.353H87.0588V63.5294H84.7058V64.7059H83.5294V63.5294H82.3529V62.353H81.1764V64.7059H79.9999V63.5294H77.647V64.7059H76.4705V67.0588H78.8235V68.2353H79.9999V71.7647H76.4705V69.4118H75.2941V64.7059H72.9411V61.1765H71.7646V56.4706V55.2941Z" fill="#7FFF00"/>
<path d="M89.4118 61.1765H90.5882V62.353H89.4118V61.1765ZM88.2353 62.353H91.7647V63.5294H88.2353V62.353ZM89.4118 63.5294H91.7647V64.7059H89.4118V63.5294ZM90.5882 64.7059H92.9412V65.8824H90.5882V64.7059ZM90.5882 65.8824H95.2941V67.0588H90.5882V65.8824ZM90.5882 67.0588H95.2941V68.2353H90.5882V67.0588ZM90.5882 68.2353H94.1176V69.4118H90.5882V68.2353ZM91.7647 69.4118H94.1176V70.5882H91.7647V69.4118ZM89.4118 70.5882H96.4706V71.7647H89.4118V70.5882ZM88.2353 71.7647H95.2941V72.9412H88.2353V71.7647ZM88.2353 72.9412H96.4706V74.1177H88.2353V72.9412ZM89.4118 74.1177H95.2941V75.2941H89.4118V74.1177ZM90.5882 75.2941H100V76.4706H90.5882V75.2941ZM89.4118 76.4706H101.176V77.6471H89.4118V76.4706ZM101.176 75.2941H102.353V76.4706H101.176V75.2941ZM101.176 76.4706H103.529V77.6471H101.176V76.4706ZM89.4118 77.6471H103.529V78.8235H89.4118V77.6471ZM81.1765 72.9412H82.3529V74.1177H81.1765V72.9412ZM78.8235 74.1177H84.7059V75.2941H78.8235V74.1177ZM78.8235 75.2941H85.8824V76.4706H78.8235V75.2941ZM80 76.4706H87.0588V77.6471H80V76.4706ZM82.3529 77.6471H88.2353V78.8235H82.3529V77.6471ZM82.3529 78.8235H103.529V80H82.3529V78.8235ZM82.3529 80H103.529V81.1765H82.3529V80ZM82.3529 81.1765H103.529V82.353H82.3529V81.1765ZM81.1765 82.353H107.059V83.5294H81.1765V82.353ZM112.941 74.1177H114.118V75.2941H112.941V74.1177ZM111.765 75.2941H114.118V76.4706H111.765V75.2941ZM109.412 76.4706H112.941V77.6471H109.412V76.4706ZM108.235 77.6471H114.118V78.8235H108.235V77.6471ZM109.412 78.8235H114.118V80H109.412V78.8235ZM108.235 80H112.941V81.1765H108.235V80ZM107.059 81.1765H111.765V82.353H107.059V81.1765ZM107.059 82.353H110.588V83.5294H107.059V82.353ZM81.1765 83.5294H110.588V84.7059H81.1765V83.5294ZM80 84.7059H111.765V85.8824H80V84.7059ZM76.4706 85.8824H112.941V87.0588H76.4706V85.8824ZM74.1176 87.0588H111.765V88.2353H74.1176V87.0588ZM71.7647 88.2353H115.294V89.4118H71.7647V88.2353ZM69.4118 89.4118H117.647V90.5882H69.4118V89.4118ZM67.0588 90.5882H117.647V91.7647H67.0588V90.5882ZM65.8824 91.7647H117.647V92.9412H65.8824V91.7647ZM64.7059 92.9412H112.941V94.1177H64.7059V92.9412ZM115.294 92.9412H116.471V94.1177H115.294V92.9412ZM63.5294 94.1177H111.765V95.2941H63.5294V94.1177ZM62.3529 95.2941H114.118V96.4706H62.3529V95.2941ZM61.1765 96.4706H115.294V97.6471H61.1765V96.4706ZM60 97.6471H115.294V98.8235H60V97.6471ZM60 98.8235H115.294V100H60V98.8235ZM60 100H115.294V101.176H60V100ZM61.1765 101.176H111.765V102.353H61.1765V101.176ZM112.941 101.176H115.294V102.353H112.941V101.176ZM62.3529 102.353H112.941V103.529H62.3529V102.353ZM114.118 102.353H116.471V103.529H114.118V102.353ZM63.5294 103.529H111.765V104.706H63.5294V103.529ZM115.294 103.529H116.471V104.706H115.294V103.529ZM64.7059 104.706H112.941V105.882H64.7059V104.706ZM76.4706 105.882H115.294V107.059H76.4706V105.882ZM80 107.059H116.471V108.235H80V107.059ZM80 108.235H117.647V109.412H80V108.235ZM80 109.412H120V110.588H80V109.412ZM80 110.588H121.176V111.765H80V110.588ZM77.6471 111.765H123.529V112.941H77.6471V111.765ZM77.6471 112.941H116.471V114.118H77.6471V112.941ZM121.176 112.941H125.882V114.118H121.176V112.941ZM78.8235 114.118H114.118V115.294H78.8235V114.118ZM124.706 114.118H128.235V115.294H124.706V114.118ZM78.8235 115.294H110.588V116.471H78.8235V115.294ZM78.8235 116.471H110.588V117.647H78.8235V116.471ZM78.8235 117.647H110.588V118.824H78.8235V117.647ZM77.6471 118.824H110.588V120H77.6471V118.824ZM80 120H109.412V121.176H80V120ZM78.8235 121.176H109.412V122.353H78.8235V121.176ZM77.6471 122.353H108.235V123.529H77.6471V122.353ZM78.8235 123.529H108.235V124.706H78.8235V123.529ZM78.8235 124.706H108.235V125.882H78.8235V124.706ZM76.4706 125.882H107.059V127.059H76.4706V125.882ZM76.4706 127.059H78.8235V128.235H76.4706V127.059ZM81.1765 127.059H107.059V128.235H81.1765V127.059ZM82.3529 128.235H105.882V129.412H82.3529V128.235ZM82.3529 129.412H105.882V130.588H82.3529V129.412ZM81.1765 130.588H105.882V131.765H81.1765V130.588ZM82.3529 131.765H85.8824V132.941H82.3529V131.765ZM87.0588 131.765H105.882V132.941H87.0588V131.765ZM83.5294 132.941H85.8824V134.118H83.5294V132.941ZM88.2353 132.941H102.353V134.118H88.2353V132.941ZM83.5294 134.118H100V135.294H83.5294V134.118ZM83.5294 135.294H87.0588V136.471H83.5294V135.294ZM88.2353 135.294H96.4706V136.471H88.2353V135.294ZM84.7059 136.471H85.8824V137.647H84.7059V136.471ZM89.4118 136.471H96.4706V137.647H89.4118V136.471ZM84.7059 137.647H85.8824V138.824H84.7059V137.647ZM90.5882 137.647H96.4706V138.824H90.5882V137.647ZM91.7647 138.824H97.6471V140H91.7647V138.824ZM92.9412 140H97.6471V141.176H92.9412V140ZM94.1176 141.176H97.6471V142.353H94.1176V141.176Z" fill="#7FFF00"/>
<path d="M95.2941 62.353H96.4705V63.5294H95.2941V62.353Z" fill="#7FFF00"/>
<path d="M102.353 62.353H103.529V63.5294H102.353V62.353Z" fill="#7FFF00"/>
<path d="M117.647 62.353H121.176V65.8824H118.823V67.0588H117.647V63.5294V62.353Z" fill="#7FFF00"/>
<path d="M31.7646 72.9412H32.9411V74.1177H31.7646V72.9412Z" fill="#7FFF00"/>
<path d="M177.647 72.9412H178.823V74.1177H177.647V72.9412Z" fill="#7FFF00"/>
<path d="M128.235 83.5294H129.412V85.8824H127.059V84.7059H128.235V83.5294Z" fill="#7FFF00"/>
<path d="M112.941 84.7059H114.118V85.8824H112.941V84.7059Z" fill="#7FFF00"/>
<path d="M180 84.7059H182.353V87.0588H178.823V85.8824H180V84.7059Z" fill="#7FFF00"/>
<path d="M136.471 85.8824H138.824V87.0588H136.471V85.8824Z" fill="#7FFF00"/>
<path d="M127.059 87.0588H128.235V88.2353H127.059V87.0588Z" fill="#7FFF00"/>
<path d="M128.235 88.2353H129.412V89.4118H128.235V88.2353Z" fill="#7FFF00"/>
<path d="M171.765 88.2353H175.294V89.4118H171.765V88.2353Z" fill="#7FFF00"/>
<path d="M121.176 90.5882H122.353V91.7647H121.176V90.5882Z" fill="#7FFF00"/>
<path d="M156.471 91.7647H157.647V92.9412H156.471V91.7647Z" fill="#7FFF00"/>
<path d="M161.176 91.7647H164.706V94.1177H163.529V95.2941H157.647V94.1177H160V92.9412H161.176V91.7647Z" fill="#7FFF00"/>
<path d="M117.647 94.1176H120V97.6471H117.647V96.4706H116.471V95.2941H117.647V94.1176Z" fill="#7FFF00"/>
<path d="M150.588 96.4706H152.941V97.6471H151.765V98.8235H150.588V100H147.059V97.6471H150.588V96.4706Z" fill="#7FFF00"/>
<path d="M140 101.176H144.706V102.353H141.176V103.529H140V104.706H135.294V105.882H131.765V107.059H130.588V104.706H132.941V103.529H137.647V102.353H140V101.176Z" fill="#7FFF00"/>
<path d="M116.471 105.882H118.824V107.059H116.471V105.882Z" fill="#7FFF00"/>
<path d="M121.176 107.059H122.353V108.235H121.176V107.059Z" fill="#7FFF00"/>
<path d="M127.059 107.059H129.412V108.235H128.235V109.412H124.706V108.235H127.059V107.059Z" fill="#7FFF00"/>
<path d="M128.235 115.294H131.765V116.471H136.471V117.647H138.823V118.824H134.118V117.647H130.588V116.471H128.235V115.294Z" fill="#7FFF00"/>
<path d="M76.4706 120H77.6471V121.176H76.4706V120Z" fill="#7FFF00"/>
<path d="M75.2941 121.176H76.4705V122.353H75.2941V121.176Z" fill="#7FFF00"/>
<path d="M103.529 135.294H105.882V136.471H107.059V137.647H105.882V138.824H104.706V137.647H103.529V138.824H102.353V137.647H101.176V136.471H103.529V135.294Z" fill="#7FFF00"/>
<path d="M81.1764 141.176H82.3529V142.353H81.1764V141.176Z" fill="#7FFF00"/>
<path d="M88.2352 141.176H89.4117V143.529H87.0587V142.353H88.2352V141.176Z" fill="#7FFF00"/>
<path d="M85.8823 143.529H87.0588V144.706H85.8823V143.529Z" fill="#7FFF00"/>
<path d="M110.588 143.529H115.294V144.706H116.47V147.059H117.647V148.235H118.823V149.412H116.47V148.235H114.118V149.412H112.941V148.235H110.588V144.706V143.529Z" fill="#7FFF00"/>
<path d="M84.7058 144.706H85.8823V145.882H87.0587V147.059H85.8823V149.412H83.5293V150.588H82.3529V151.765H83.5293V154.118H81.1764V147.059H83.5293V145.882H84.7058V144.706Z" fill="#7FFF00"/>
<path d="M95.294 147.059H97.647V148.235H98.8234V150.588H97.647V151.765H95.294V150.588H94.1176V149.412H95.294V148.235V147.059Z" fill="#7FFF00"/>
<path d="M118.823 149.412H120V150.588H122.353V151.765H123.529V155.294H120V154.118H118.823V150.588V149.412Z" fill="#7FFF00"/>
<path d="M83.5293 154.118H84.7058V155.294H87.0587V156.471H88.2352V158.824H87.0587V161.176H83.5293V155.294V154.118Z" fill="#7FFF00"/>
<path d="M81.1764 161.176H82.3529V162.353H81.1764V161.176Z" fill="#7FFF00"/>
<path d="M83.5293 175.294H84.7058V177.647H83.5293V176.471V175.294Z" fill="#7FFF00"/>
<path d="M87.0587 184.706H89.4117V188.235H87.0587V185.882V184.706Z" fill="#7FFF00"/>
<path d="M83.5293 187.059H85.8822V188.235H84.7058V189.412H83.5293V188.235V187.059Z" fill="#7FFF00"/>
</svg>
