<svg width="226" height="158" viewBox="0 0 226 158" fill="none" xmlns="http://www.w3.org/2000/svg">
<g id="Clip path group">
<mask id="mask0_470_6938" style="mask-type:luminance" maskUnits="userSpaceOnUse" x="0" y="0" width="226" height="158">
<g id="0241217a06">
<path id="Vector" d="M0 0.400024H225.2V157.591H0V0.400024Z" fill="white"/>
</g>
</mask>
<g mask="url(#mask0_470_6938)">
<g id="Group">
<path id="Vector_2" d="M215.262 69.4813C209.859 69.4813 205.478 73.8625 205.478 79.2656V118.397C205.478 129.184 196.697 137.966 185.906 137.966H170.391L126.359 93.9406L163.472 56.8313C167.294 53.0094 167.294 46.8188 163.472 42.9969C159.653 39.175 153.453 39.175 149.634 42.9969L112.522 80.1063L94.9781 62.5656C91.3094 58.8969 84.8125 58.8969 81.1438 62.5656L20.3 123.4C19.8688 121.794 19.5688 120.138 19.5688 118.397V40.1313C19.5688 29.3469 28.35 20.5656 39.1375 20.5656H146.769C152.172 20.5656 156.553 16.1844 156.553 10.7813C156.553 5.37813 152.172 1 146.769 1H39.1375C17.5594 1 0 18.5531 0 40.1313V118.397C0 139.975 17.5594 157.531 39.1375 157.531H185.906C207.488 157.531 225.047 139.975 225.047 118.397V79.2656C225.047 73.8625 220.666 69.4813 215.262 69.4813ZM34.1375 137.234L88.0625 83.3156L142.719 137.966H39.1375C37.4 137.966 35.7406 137.663 34.1375 137.234Z" fill="white" fill-opacity="0.8"/>
</g>
</g>
</g>
</svg>
