<svg width="200" height="200" viewBox="0 0 200 200" fill="none" xmlns="http://www.w3.org/2000/svg">
<path d="M166.25 11.25H167.5V12.5H166.25V11.25Z" fill="#FF00FF"/>
<path d="M168.75 13.75H170V15H168.75V13.75Z" fill="#FF00FF"/>
<path d="M162.5 15H163.75V16.25H162.5V15Z" fill="#FF00FF"/>
<path d="M161.25 16.25H162.5V17.5H161.25V16.25Z" fill="#FF00FF"/>
<path d="M163.75 16.25H167.5V17.5H163.75V16.25Z" fill="#FF00FF"/>
<path d="M160 18.75H162.5V20H160V18.75Z" fill="#FF00FF"/>
<path d="M158.75 20H160V21.25H158.75V20Z" fill="#FF00FF"/>
<path d="M158.75 22.5H160V23.75H158.75V22.5Z" fill="#FF00FF"/>
<path d="M156.25 23.75H158.75V25H157.5V26.25H156.25V27.5H155V28.75H152.5V27.5H153.75V26.25H155V25H156.25V23.75Z" fill="#FF00FF"/>
<path d="M145 30H146.25V32.5H143.75V31.25H145V30Z" fill="#FF00FF"/>
<path d="M150 30H151.25V31.25H150V30Z" fill="#FF00FF"/>
<path d="M148.75 31.25H150V32.5H148.75V31.25Z" fill="#FF00FF"/>
<path d="M176.25 31.25H177.5V32.5H176.25V31.25Z" fill="#FF00FF"/>
<path d="M120 33.75H121.25V35H120V33.75Z" fill="#FF00FF"/>
<path d="M93.75 35H95V37.5H87.5V36.25H93.75V35Z" fill="#FF00FF"/>
<path d="M83.75 36.25H85V38.75H82.5V37.5H83.75V36.25Z" fill="#FF00FF"/>
<path d="M118.75 36.25H120V37.5H122.5V36.25H123.75V38.75H122.5V42.5H121.25V38.75H118.75V37.5V36.25Z" fill="#FF00FF"/>
<path d="M137.5 37.5H138.75V38.75H137.5V37.5Z" fill="#FF00FF"/>
<path d="M117.5 38.75H118.75V40H117.5V38.75Z" fill="#FF00FF"/>
<path d="M136.25 38.75H137.5V40H136.25V38.75Z" fill="#FF00FF"/>
<path d="M135 40H136.25V41.25H135V40Z" fill="#FF00FF"/>
<path d="M133.75 41.25H135V42.5H133.75V41.25Z" fill="#FF00FF"/>
<path d="M120 42.5H121.25V50H123.75V51.25H122.5V52.5H121.25V51.25H118.75V47.5H120V43.75V42.5Z" fill="#FF00FF"/>
<path d="M131.25 42.5H133.75V43.75H131.25V42.5Z" fill="#FF00FF"/>
<path d="M162.5 42.5H163.75V43.75H162.5V42.5Z" fill="#FF00FF"/>
<path d="M130 43.75H131.25V45H130V43.75Z" fill="#FF00FF"/>
<path d="M128.75 45H130V46.25H128.75V45Z" fill="#FF00FF"/>
<path d="M127.5 46.25H128.75V47.5H127.5V46.25Z" fill="#FF00FF"/>
<path d="M125 47.5H127.5V48.75H125V47.5Z" fill="#FF00FF"/>
<path d="M123.75 48.75H125V50H123.75V48.75Z" fill="#FF00FF"/>
<path d="M132.5 57.5H133.75V58.75H132.5V57.5Z" fill="#FF00FF"/>
<path d="M155 57.5H156.25V58.75H155V57.5Z" fill="#FF00FF"/>
<path d="M73.75 67.5H76.25V68.75H73.75V67.5Z" fill="#FF00FF"/>
<path d="M76.25 68.75H77.5V70H76.25V68.75Z" fill="#FF00FF"/>
<path d="M77.5 70H78.75V71.25H77.5V70Z" fill="#FF00FF"/>
<path d="M78.75 71.25H80V73.75H78.75V72.5V71.25Z" fill="#FF00FF"/>
<path d="M101.25 72.5H102.5V73.75H101.25V72.5Z" fill="#FF00FF"/>
<path d="M157.5 73.75H158.75V75H157.5V73.75Z" fill="#FF00FF"/>
<path d="M80 75H81.25V76.25H80V75Z" fill="#FF00FF"/>
<path d="M152.5 75H153.75V76.25H152.5V75Z" fill="#FF00FF"/>
<path d="M160 75H161.25V76.25H160V75Z" fill="#FF00FF"/>
<path d="M100 76.25H101.25V77.5H100V76.25Z" fill="#FF00FF"/>
<path d="M148.75 76.25H150V77.5H148.75V76.25Z" fill="#FF00FF"/>
<path d="M162.5 76.25H163.75V77.5H162.5V76.25Z" fill="#FF00FF"/>
<path d="M81.25 77.5H82.5V80H81.25V78.75V77.5Z" fill="#FF00FF"/>
<path d="M147.5 77.5H148.75V78.75H147.5V77.5Z" fill="#FF00FF"/>
<path d="M165 77.5H166.25V78.75H165V77.5Z" fill="#FF00FF"/>
<path d="M146.25 78.75H147.5V80H146.25V78.75Z" fill="#FF00FF"/>
<path d="M98.75 80H100V82.5H98.75V81.25V80Z" fill="#FF00FF"/>
<path d="M145 80H146.25V81.25H145V80Z" fill="#FF00FF"/>
<path d="M167.5 80H168.75V81.25H167.5V80Z" fill="#FF00FF"/>
<path d="M168.75 82.5H170V83.75H168.75V82.5Z" fill="#FF00FF"/>
<path d="M57.5 83.75H58.75V86.25H57.5V85V83.75Z" fill="#FF00FF"/>
<path d="M83.75 83.75H85V85H83.75V83.75Z" fill="#FF00FF"/>
<path d="M100 83.75H101.25V85H100V83.75Z" fill="#FF00FF"/>
<path d="M142.5 83.75H143.75V85H142.5V83.75Z" fill="#FF00FF"/>
<path d="M102.5 85H103.75V87.5H101.25V86.25H102.5V85Z" fill="#FF00FF"/>
<path d="M105 85H106.25V87.5H105V86.25V85Z" fill="#FF00FF"/>
<path d="M141.25 85H142.5V86.25H141.25V85Z" fill="#FF00FF"/>
<path d="M170 85H171.25V86.25H170V85Z" fill="#FF00FF"/>
<path d="M85 86.25H86.25V87.5H85V86.25Z" fill="#FF00FF"/>
<path d="M53.75 87.5H56.25V88.75H53.75V87.5Z" fill="#FF00FF"/>
<path d="M86.25 87.5H87.5V88.75H88.75V90H86.25V88.75V87.5Z" fill="#FF00FF"/>
<path d="M98.75 87.5H101.25V90H100V88.75H98.75V87.5Z" fill="#FF00FF"/>
<path d="M70 88.75H71.25V91.25H70V90V88.75Z" fill="#FF00FF"/>
<path d="M91.25 88.75H92.5V90H91.25V88.75Z" fill="#FF00FF"/>
<path d="M93.75 88.75H95V90H96.25V91.25H97.5V92.5H95V91.25H93.75V90V88.75Z" fill="#FF00FF"/>
<path d="M138.75 88.75H140V90H138.75V88.75Z" fill="#FF00FF"/>
<path d="M55 90H56.25V91.25H55V90Z" fill="#FF00FF"/>
<path d="M88.75 90H91.25V92.5H90V91.25H88.75V90Z" fill="#FF00FF"/>
<path d="M98.75 90H100V91.25H98.75V90Z" fill="#FF00FF"/>
<path d="M137.5 90H138.75V91.25H137.5V90Z" fill="#FF00FF"/>
<path d="M76.25 91.25H77.5V98.75H76.25V92.5V91.25Z" fill="#FF00FF"/>
<path d="M78.75 91.25H80V92.5H78.75V91.25Z" fill="#FF00FF"/>
<path d="M136.25 91.25H137.5V92.5H136.25V91.25Z" fill="#FF00FF"/>
<path d="M170 91.25H171.25V92.5H170V91.25Z" fill="#FF00FF"/>
<path d="M100 92.5H101.25V93.75H100V92.5Z" fill="#FF00FF"/>
<path d="M123.75 92.5H126.25V93.75H125V95H123.75V93.75V92.5Z" fill="#FF00FF"/>
<path d="M135 92.5H136.25V93.75H135V92.5Z" fill="#FF00FF"/>
<path d="M88.75 93.75H90V95H88.75V93.75Z" fill="#FF00FF"/>
<path d="M168.75 93.75H170V95H168.75V93.75Z" fill="#FF00FF"/>
<path d="M86.25 95H87.5V96.25H86.25V95Z" fill="#FF00FF"/>
<path d="M90 95H93.75V96.25H90V95Z" fill="#FF00FF"/>
<path d="M101.25 95H102.5V96.25H101.25V95Z" fill="#FF00FF"/>
<path d="M135 95H136.25V97.5H135V96.25V95Z" fill="#FF00FF"/>
<path d="M167.5 95H168.75V96.25H167.5V95Z" fill="#FF00FF"/>
<path d="M81.25 96.25H82.5V97.5H81.25V96.25Z" fill="#FF00FF"/>
<path d="M83.75 96.25H85V98.75H82.5V97.5H83.75V96.25Z" fill="#FF00FF"/>
<path d="M100 96.25H101.25V97.5H100V96.25Z" fill="#FF00FF"/>
<path d="M166.25 96.25H167.5V97.5H166.25V96.25Z" fill="#FF00FF"/>
<path d="M45 97.5H46.25V98.75H47.5V100H45V98.75V97.5Z" fill="#FF00FF"/>
<path d="M98.75 97.5H100V98.75H98.75V97.5Z" fill="#FF00FF"/>
<path d="M133.75 97.5H135V98.75H133.75V97.5Z" fill="#FF00FF"/>
<path d="M161.25 97.5H163.75V98.75H161.25V97.5Z" fill="#FF00FF"/>
<path d="M97.5 100H98.75V102.5H97.5V101.25V100Z" fill="#FF00FF"/>
<path d="M160 100H161.25V101.25H160V100Z" fill="#FF00FF"/>
<path d="M116.25 101.25H117.5V102.5H116.25V101.25Z" fill="#FF00FF"/>
<path d="M133.75 101.25H135V102.5H133.75V101.25Z" fill="#FF00FF"/>
<path d="M115 102.5H116.25V105H115V103.75V102.5Z" fill="#FF00FF"/>
<path d="M92.5 103.75H93.75V105H92.5V103.75Z" fill="#FF00FF"/>
<path d="M98.75 103.75H100V106.25H98.75V105V103.75Z" fill="#FF00FF"/>
<path d="M133.75 103.75H135V105H133.75V103.75Z" fill="#FF00FF"/>
<path d="M90 105H92.5V106.25H93.75V107.5H91.25V106.25H90V105Z" fill="#FF00FF"/>
<path d="M108.75 105H110V106.25H108.75V105Z" fill="#FF00FF"/>
<path d="M113.75 105H115V106.25H113.75V105Z" fill="#FF00FF"/>
<path d="M88.75 106.25H90V107.5H88.75V106.25Z" fill="#FF00FF"/>
<path d="M111.25 106.25H112.5V107.5H111.25V106.25Z" fill="#FF00FF"/>
<path d="M155 106.25H156.25V107.5H155V106.25Z" fill="#FF00FF"/>
<path d="M97.5 107.5H98.75V108.75H97.5V107.5Z" fill="#FF00FF"/>
<path d="M106.25 107.5H107.5V108.75H106.25V107.5Z" fill="#FF00FF"/>
<path d="M108.75 107.5H110V110H108.75V108.75V107.5Z" fill="#FF00FF"/>
<path d="M115 107.5H116.25V108.75H115V107.5Z" fill="#FF00FF"/>
<path d="M143.75 107.5H145V108.75H143.75V107.5Z" fill="#FF00FF"/>
<path d="M150 107.5H151.25V108.75H150V107.5Z" fill="#FF00FF"/>
<path d="M86.25 108.75H87.5V110H86.25V108.75Z" fill="#FF00FF"/>
<path d="M140 108.75H141.25V110H140V108.75Z" fill="#FF00FF"/>
<path d="M107.5 110H108.75V111.25H107.5V110Z" fill="#FF00FF"/>
<path d="M115 110H117.5V111.25H115V110Z" fill="#FF00FF"/>
<path d="M138.75 110H140V111.25H138.75V110Z" fill="#FF00FF"/>
<path d="M86.25 111.25H87.5V113.75H86.25V112.5V111.25Z" fill="#FF00FF"/>
<path d="M112.5 111.25H113.75V113.75H112.5V112.5V111.25Z" fill="#FF00FF"/>
<path d="M117.5 111.25H118.75V113.75H117.5V112.5V111.25Z" fill="#FF00FF"/>
<path d="M166.25 111.25H167.5V113.75H165V112.5H166.25V111.25Z" fill="#FF00FF"/>
<path d="M97.5 112.5H98.75V115H97.5V113.75V112.5Z" fill="#FF00FF"/>
<path d="M116.25 113.75H117.5V116.25H116.25V115V113.75Z" fill="#FF00FF"/>
<path d="M122.5 113.75H123.75V115H122.5V113.75Z" fill="#FF00FF"/>
<path d="M136.25 113.75H137.5V118.75H136.25V116.25H135V115H136.25V113.75Z" fill="#FF00FF"/>
<path d="M163.75 113.75H165V115H163.75V113.75Z" fill="#FF00FF"/>
<path d="M88.75 115H90V116.25H88.75V115Z" fill="#FF00FF"/>
<path d="M121.25 115H122.5V116.25H121.25V115Z" fill="#FF00FF"/>
<path d="M165 115H166.25V116.25H165V115Z" fill="#FF00FF"/>
<path d="M87.5 116.25H88.75V117.5H87.5V116.25Z" fill="#FF00FF"/>
<path d="M101.25 116.25H102.5V117.5H101.25V116.25Z" fill="#FF00FF"/>
<path d="M118.75 116.25H120V117.5H118.75V116.25Z" fill="#FF00FF"/>
<path d="M162.5 116.25H165V117.5H162.5V116.25Z" fill="#FF00FF"/>
<path d="M86.25 117.5H87.5V118.75H86.25V117.5Z" fill="#FF00FF"/>
<path d="M98.75 117.5H100V120H98.75V118.75V117.5Z" fill="#FF00FF"/>
<path d="M132.5 117.5H133.75V118.75H132.5V117.5Z" fill="#FF00FF"/>
<path d="M85 118.75H86.25V120H85V118.75Z" fill="#FF00FF"/>
<path d="M131.25 118.75H132.5V122.5H131.25V120V118.75Z" fill="#FF00FF"/>
<path d="M82.5 120H85V121.25H82.5V120Z" fill="#FF00FF"/>
<path d="M100 120H101.25V121.25H100V120Z" fill="#FF00FF"/>
<path d="M106.25 120H113.75V121.25H106.25V120Z" fill="#FF00FF"/>
<path d="M137.5 120H138.75V122.5H137.5V121.25V120Z" fill="#FF00FF"/>
<path d="M105 121.25H106.25V122.5H105V121.25Z" fill="#FF00FF"/>
<path d="M118.75 121.25H120V122.5H118.75V121.25Z" fill="#FF00FF"/>
<path d="M135 121.25H136.25V126.25H135V122.5V121.25Z" fill="#FF00FF"/>
<path d="M28.75 122.5H30V123.75H28.75V122.5Z" fill="#FF00FF"/>
<path d="M80 122.5H81.25V123.75H80V122.5Z" fill="#FF00FF"/>
<path d="M106.25 122.5H107.5V123.75H106.25V122.5Z" fill="#FF00FF"/>
<path d="M113.75 122.5H115V123.75H113.75V122.5Z" fill="#FF00FF"/>
<path d="M121.25 122.5H122.5V123.75H121.25V122.5Z" fill="#FF00FF"/>
<path d="M176.25 122.5H178.75V123.75H176.25V122.5Z" fill="#FF00FF"/>
<path d="M78.75 123.75H80V125H78.75V123.75Z" fill="#FF00FF"/>
<path d="M107.5 123.75H108.75V125H107.5V123.75Z" fill="#FF00FF"/>
<path d="M115 123.75H116.25V125H115V123.75Z" fill="#FF00FF"/>
<path d="M132.5 123.75H133.75V125H132.5V123.75Z" fill="#FF00FF"/>
<path d="M138.75 123.75H140V127.5H138.75V125V123.75Z" fill="#FF00FF"/>
<path d="M63.75 125H65V126.25H63.75V125Z" fill="#FF00FF"/>
<path d="M67.5 125H68.75V126.25H67.5V125Z" fill="#FF00FF"/>
<path d="M70 125H71.25V126.25H70V125Z" fill="#FF00FF"/>
<path d="M87.5 125H88.75V127.5H90V128.75H87.5V126.25V125Z" fill="#FF00FF"/>
<path d="M98.75 125H100V126.25H98.75V125Z" fill="#FF00FF"/>
<path d="M108.75 125H110V126.25H108.75V125Z" fill="#FF00FF"/>
<path d="M111.25 125H112.5V126.25H111.25V125Z" fill="#FF00FF"/>
<path d="M118.75 125H120V126.25H118.75V125Z" fill="#FF00FF"/>
<path d="M50 126.25H51.25V127.5H50V126.25Z" fill="#FF00FF"/>
<path d="M65 126.25H66.25V127.5H65V126.25Z" fill="#FF00FF"/>
<path d="M71.25 126.25H72.5V127.5H71.25V126.25Z" fill="#FF00FF"/>
<path d="M100 126.25H101.25V127.5H100V126.25Z" fill="#FF00FF"/>
<path d="M48.75 127.5H50V128.75H48.75V127.5Z" fill="#FF00FF"/>
<path d="M61.25 127.5H62.5V128.75H61.25V127.5Z" fill="#FF00FF"/>
<path d="M66.25 127.5H67.5V128.75H66.25V127.5Z" fill="#FF00FF"/>
<path d="M70 127.5H71.25V128.75H70V127.5Z" fill="#FF00FF"/>
<path d="M72.5 127.5H73.75V128.75H72.5V127.5Z" fill="#FF00FF"/>
<path d="M76.25 127.5H77.5V128.75H76.25V127.5Z" fill="#FF00FF"/>
<path d="M96.25 127.5H97.5V128.75H96.25V127.5Z" fill="#FF00FF"/>
<path d="M101.25 127.5H102.5V128.75H101.25V127.5Z" fill="#FF00FF"/>
<path d="M130 127.5H131.25V128.75H130V127.5Z" fill="#FF00FF"/>
<path d="M132.5 127.5H135V128.75H133.75V130H132.5V128.75V127.5Z" fill="#FF00FF"/>
<path d="M47.5 128.75H48.75V130H47.5V128.75Z" fill="#FF00FF"/>
<path d="M62.5 128.75H63.75V130H62.5V128.75Z" fill="#FF00FF"/>
<path d="M127.5 128.75H128.75V130H127.5V128.75Z" fill="#FF00FF"/>
<path d="M63.75 130H65V132.5H63.75V131.25V130Z" fill="#FF00FF"/>
<path d="M87.5 130H88.75V131.25H87.5V130Z" fill="#FF00FF"/>
<path d="M131.25 130H132.5V131.25H131.25V130Z" fill="#FF00FF"/>
<path d="M48.75 131.25H50V132.5H48.75V131.25Z" fill="#FF00FF"/>
<path d="M53.75 131.25H55V132.5H53.75V131.25Z" fill="#FF00FF"/>
<path d="M67.5 131.25H68.75V132.5H67.5V131.25Z" fill="#FF00FF"/>
<path d="M105 131.25H106.25V133.75H105V132.5V131.25Z" fill="#FF00FF"/>
<path d="M107.5 131.25H108.75V132.5H107.5V131.25Z" fill="#FF00FF"/>
<path d="M126.25 131.25H127.5V132.5H126.25V131.25Z" fill="#FF00FF"/>
<path d="M130 131.25H131.25V133.75H130V132.5V131.25Z" fill="#FF00FF"/>
<path d="M62.5 132.5H63.75V133.75H62.5V132.5Z" fill="#FF00FF"/>
<path d="M75 132.5H76.25V135H73.75V133.75H75V132.5Z" fill="#FF00FF"/>
<path d="M50 133.75H51.25V135H50V133.75Z" fill="#FF00FF"/>
<path d="M60 133.75H61.25V135H60V133.75Z" fill="#FF00FF"/>
<path d="M66.25 133.75H67.5V136.25H66.25V135V133.75Z" fill="#FF00FF"/>
<path d="M71.25 133.75H72.5V135H71.25V133.75Z" fill="#FF00FF"/>
<path d="M100 133.75H102.5V135H100V133.75Z" fill="#FF00FF"/>
<path d="M108.75 133.75H111.25V136.25H108.75V135V133.75Z" fill="#FF00FF"/>
<path d="M112.5 133.75H113.75V135H112.5V133.75Z" fill="#FF00FF"/>
<path d="M55 135H56.25V136.25H55V135Z" fill="#FF00FF"/>
<path d="M58.75 135H60V137.5H58.75V136.25V135Z" fill="#FF00FF"/>
<path d="M126.25 135H127.5V136.25H126.25V135Z" fill="#FF00FF"/>
<path d="M56.25 136.25H57.5V138.75H55V137.5H56.25V136.25Z" fill="#FF00FF"/>
<path d="M73.75 136.25H75V137.5H73.75V136.25Z" fill="#FF00FF"/>
<path d="M77.5 136.25H78.75V137.5H77.5V136.25Z" fill="#FF00FF"/>
<path d="M90 136.25H91.25V138.75H90V137.5V136.25Z" fill="#FF00FF"/>
<path d="M130 136.25H131.25V137.5H130V136.25Z" fill="#FF00FF"/>
<path d="M66.25 137.5H67.5V140H66.25V138.75V137.5Z" fill="#FF00FF"/>
<path d="M71.25 137.5H73.75V138.75H71.25V137.5Z" fill="#FF00FF"/>
<path d="M125 137.5H126.25V138.75H125V137.5Z" fill="#FF00FF"/>
<path d="M128.75 137.5H130V138.75H128.75V137.5Z" fill="#FF00FF"/>
<path d="M52.5 138.75H53.75V140H52.5V138.75Z" fill="#FF00FF"/>
<path d="M58.75 138.75H61.25V140H58.75V138.75Z" fill="#FF00FF"/>
<path d="M78.75 138.75H80V140H78.75V138.75Z" fill="#FF00FF"/>
<path d="M87.5 138.75H88.75V140H87.5V138.75Z" fill="#FF00FF"/>
<path d="M12.5 140H13.75V141.25H12.5V140Z" fill="#FF00FF"/>
<path d="M42.5 141.25H43.75V142.5H42.5V141.25Z" fill="#FF00FF"/>
<path d="M62.5 141.25H63.75V142.5H62.5V141.25Z" fill="#FF00FF"/>
<path d="M65 141.25H66.25V142.5H65V141.25Z" fill="#FF00FF"/>
<path d="M82.5 141.25H83.75V142.5H82.5V141.25Z" fill="#FF00FF"/>
<path d="M88.75 141.25H91.25V143.75H90V142.5H88.75V141.25Z" fill="#FF00FF"/>
<path d="M66.25 142.5H67.5V143.75H66.25V142.5Z" fill="#FF00FF"/>
<path d="M83.75 142.5H85V143.75H83.75V142.5Z" fill="#FF00FF"/>
<path d="M123.75 145H125V146.25H123.75V145Z" fill="#FF00FF"/>
<path d="M61.25 148.75H62.5V150H61.25V148.75Z" fill="#FF00FF"/>
<path d="M90 148.75H91.25V150H90V148.75Z" fill="#FF00FF"/>
<path d="M122.5 148.75H123.75V150H122.5V148.75Z" fill="#FF00FF"/>
<path d="M96.25 150H97.5V151.25H96.25V150Z" fill="#FF00FF"/>
<path d="M97.5 151.25H98.75V152.5H97.5V151.25Z" fill="#FF00FF"/>
<path d="M120 151.25H121.25V152.5H120V151.25Z" fill="#FF00FF"/>
<path d="M98.75 152.5H100V153.75H98.75V152.5Z" fill="#FF00FF"/>
<path d="M118.75 152.5H120V153.75H118.75V152.5Z" fill="#FF00FF"/>
<path d="M101.25 153.75H102.5V155H101.25V153.75Z" fill="#FF00FF"/>
<path d="M117.5 153.75H118.75V155H117.5V153.75Z" fill="#FF00FF"/>
<path d="M72.5 155H75V156.25H73.75V157.5H71.25V156.25H72.5V155Z" fill="#FF00FF"/>
<path d="M102.5 155H103.75V156.25H102.5V155Z" fill="#FF00FF"/>
<path d="M105 157.5H106.25V158.75H105V157.5Z" fill="#FF00FF"/>
<path d="M106.25 158.75H107.5V160H106.25V158.75Z" fill="#FF00FF"/>
<path d="M116.25 158.75H118.75V160H116.25V158.75Z" fill="#FF00FF"/>
<path d="M108.75 160H111.25V161.25H108.75V160Z" fill="#FF00FF"/>
<path d="M118.75 160H120V161.25H118.75V160Z" fill="#FF00FF"/>
<path d="M62.5 161.25H63.75V162.5H62.5V161.25Z" fill="#FF00FF"/>
<path d="M111.25 161.25H112.5V162.5H111.25V161.25Z" fill="#FF00FF"/>
<path d="M120 161.25H121.25V162.5H120V161.25Z" fill="#FF00FF"/>
<path d="M112.5 162.5H113.75V163.75H112.5V162.5Z" fill="#FF00FF"/>
<path d="M115 162.5H116.25V163.75H115V162.5Z" fill="#FF00FF"/>
<path d="M121.25 162.5H122.5V163.75H121.25V162.5Z" fill="#FF00FF"/>
<path d="M125 166.25H126.25V167.5H125V166.25Z" fill="#FF00FF"/>
<path d="M131.25 166.25H132.5V168.75H131.25V167.5V166.25Z" fill="#FF00FF"/>
<path d="M130 172.5H131.25V173.75H130V172.5Z" fill="#FF00FF"/>
<path d="M66.25 176.25H67.5V177.5H66.25V176.25Z" fill="#FF00FF"/>
<path d="M65 177.5H66.25V178.75H65V177.5Z" fill="#FF00FF"/>
<path d="M68.75 177.5H70V180H68.75V178.75V177.5Z" fill="#FF00FF"/>
<path d="M75 186.25H76.25V187.5H75V186.25Z" fill="#FF00FF"/>
<path d="M183.75 186.25H185V187.5H183.75V186.25Z" fill="#FF00FF"/>
<path d="M167.5 11.25H170V13.75H168.75V17.5H167.5V16.25H163.75V13.75H165V12.5H167.5V11.25Z" fill="#FF00FF"/>
<path d="M162.5 16.25H163.75V17.5H162.5V16.25Z" fill="#FF00FF"/>
<path d="M161.25 17.5H162.5V18.75H161.25V17.5Z" fill="#FF00FF"/>
<path d="M160 20H161.25V21.25H160V20Z" fill="#FF00FF"/>
<path d="M158.75 21.25H160V22.5H158.75V21.25Z" fill="#FF00FF"/>
<path d="M157.5 22.5H158.75V23.75H157.5V22.5Z" fill="#FF00FF"/>
<path d="M151.25 28.75H152.5V30H151.25V28.75Z" fill="#FF00FF"/>
<path d="M146.25 30H150V31.25H148.75V32.5H146.25V31.25V30Z" fill="#FF00FF"/>
<path d="M85 36.25H87.5V37.5H85V36.25Z" fill="#FF00FF"/>
<path d="M118.75 38.75H120V40H118.75V38.75Z" fill="#FF00FF"/>
<path d="M118.75 51.25H121.25V52.5H118.75V51.25Z" fill="#FF00FF"/>
<path d="M152.5 57.5H155V58.75H156.25V61.25H153.75V60H152.5V58.75V57.5Z" fill="#FF00FF"/>
<path d="M153.75 75H160V76.25H153.75V75ZM150 76.25H162.5V77.5H150V76.25ZM148.75 77.5H165V78.75H148.75V77.5ZM147.5 78.75H167.5V80H147.5V78.75ZM146.25 80H167.5V81.25H146.25V80ZM145 81.25H168.75V82.5H145V81.25ZM143.75 82.5H168.75V83.75H143.75V82.5ZM143.75 83.75H170V85H143.75V83.75ZM142.5 85H170V86.25H142.5V85ZM141.25 86.25H171.25V87.5H141.25V86.25ZM140 87.5H171.25V88.75H140V87.5ZM140 88.75H171.25V90H140V88.75ZM138.75 90H171.25V91.25H138.75V90ZM137.5 91.25H170V92.5H137.5V91.25ZM136.25 92.5H170V93.75H136.25V92.5ZM135 93.75H168.75V95H135V93.75ZM136.25 95H167.5V96.25H136.25V95ZM136.25 96.25H166.25V97.5H136.25V96.25ZM135 97.5H161.25V98.75H135V97.5ZM133.75 98.75H161.25V100H133.75V98.75ZM133.75 100H160V101.25H133.75V100ZM135 101.25H160V102.5H135V101.25ZM135 102.5H160V103.75H135V102.5ZM135 103.75H158.75V105H135V103.75ZM132.5 105H157.5V106.25H132.5V105ZM131.25 106.25H155V107.5H131.25V106.25ZM130 107.5H142.5V108.75H130V107.5ZM145 107.5H150V108.75H145V107.5ZM128.75 108.75H140V110H128.75V108.75ZM127.5 110H138.75V111.25H127.5V110ZM126.25 111.25H138.75V112.5H126.25V111.25ZM125 112.5H137.5V113.75H125V112.5ZM123.75 113.75H136.25V115H123.75V113.75ZM122.5 115H135V116.25H122.5V115ZM120 116.25H133.75V117.5H120V116.25ZM110 105H112.5V106.25H110V105ZM107.5 106.25H111.25V107.5H107.5V106.25ZM110 107.5H111.25V108.75H110V107.5ZM110 108.75H111.25V110H110V108.75ZM108.75 110H112.5V111.25H108.75V110ZM106.25 111.25H112.5V112.5H106.25V111.25ZM105 112.5H112.5V113.75H105V112.5ZM103.75 113.75H116.25V115H103.75V113.75ZM102.5 115H116.25V116.25H102.5V115ZM102.5 116.25H117.5V117.5H102.5V116.25ZM101.25 117.5H132.5V118.75H101.25V117.5ZM101.25 118.75H131.25V120H101.25V118.75ZM101.25 120H106.25V121.25H101.25V120ZM113.75 120H131.25V121.25H113.75V120ZM92.5 88.75H93.75V90H92.5V88.75ZM91.25 90H93.75V91.25H91.25V90ZM91.25 91.25H95V92.5H91.25V91.25ZM88.75 91.25H90V92.5H88.75V91.25ZM88.75 92.5H97.5V93.75H88.75V92.5ZM97.5 91.25H100V92.5H97.5V91.25ZM97.5 92.5H100V93.75H97.5V92.5ZM90 93.75H101.25V95H90V93.75ZM93.75 95H101.25V96.25H93.75V95ZM93.75 96.25H100V97.5H93.75V96.25ZM93.75 97.5H98.75V98.75H93.75V97.5ZM93.75 98.75H98.75V100H93.75V98.75ZM93.75 100H97.5V101.25H93.75V100ZM93.75 101.25H97.5V102.5H93.75V101.25ZM93.75 102.5H98.75V103.75H93.75V102.5ZM93.75 103.75H98.75V105H93.75V103.75ZM92.5 105H98.75V106.25H92.5V105ZM93.75 106.25H98.75V107.5H93.75V106.25ZM90 106.25H91.25V107.5H90V106.25ZM90 107.5H97.5V108.75H90V107.5ZM90 108.75H97.5V110H90V108.75ZM90 110H97.5V111.25H90V110ZM90 111.25H97.5V112.5H90V111.25ZM90 112.5H97.5V113.75H90V112.5ZM90 113.75H97.5V115H90V113.75ZM90 115H98.75V116.25H90V115ZM88.75 116.25H98.75V117.5H88.75V116.25ZM87.5 117.5H98.75V118.75H87.5V117.5ZM86.25 118.75H98.75V120H86.25V118.75ZM85 120H100V121.25H85V120ZM81.25 121.25H105V122.5H81.25V121.25ZM115 121.25H118.75V122.5H115V121.25ZM122.5 121.25H131.25V122.5H122.5V121.25ZM81.25 122.5H106.25V123.75H81.25V122.5ZM115 122.5H117.5V123.75H115V122.5ZM122.5 122.5H132.5V123.75H122.5V122.5ZM80 123.75H107.5V125H80V123.75ZM121.25 123.75H132.5V125H121.25V123.75ZM78.75 125H87.5V126.25H78.75V125ZM100 125H108.75V126.25H100V125ZM120 125H133.75V126.25H120V125ZM77.5 126.25H87.5V127.5H77.5V126.25ZM101.25 126.25H112.5V127.5H101.25V126.25ZM113.75 123.75H115V125H113.75V123.75ZM112.5 125H115V126.25H112.5V125ZM112.5 126.25H135V127.5H112.5V126.25ZM77.5 127.5H87.5V128.75H77.5V127.5ZM102.5 127.5H130V128.75H102.5V127.5ZM71.25 127.5H72.5V128.75H71.25V127.5ZM71.25 128.75H88.75V130H71.25V128.75ZM103.75 128.75H127.5V130H103.75V128.75ZM71.25 130H87.5V131.25H71.25V130ZM105 130H127.5V131.25H105V130ZM71.25 131.25H87.5V132.5H71.25V131.25ZM108.75 131.25H126.25V132.5H108.75V131.25ZM71.25 132.5H75V133.75H71.25V132.5ZM76.25 132.5H87.5V133.75H76.25V132.5ZM107.5 132.5H126.25V133.75H107.5V132.5ZM72.5 133.75H73.75V135H72.5V133.75ZM76.25 133.75H87.5V135H76.25V133.75ZM102.5 132.5H105V133.75H102.5V132.5ZM102.5 133.75H108.75V135H102.5V133.75ZM111.25 133.75H112.5V135H111.25V133.75ZM113.75 133.75H126.25V135H113.75V133.75ZM72.5 135H87.5V136.25H72.5V135ZM98.75 133.75H100V135H98.75V133.75ZM91.25 135H108.75V136.25H91.25V135ZM111.25 135H126.25V136.25H111.25V135ZM70 136.25H73.75V137.5H70V136.25ZM78.75 136.25H87.5V137.5H78.75V136.25ZM91.25 136.25H126.25V137.5H91.25V136.25ZM70 137.5H71.25V138.75H70V137.5ZM78.75 137.5H87.5V138.75H78.75V137.5ZM91.25 137.5H125V138.75H91.25V137.5ZM80 138.75H87.5V140H80V138.75ZM91.25 138.75H125V140H91.25V138.75ZM80 140H88.75V141.25H80V140ZM91.25 140H125V141.25H91.25V140ZM83.75 141.25H88.75V142.5H83.75V141.25ZM91.25 141.25H125V142.5H91.25V141.25ZM85 142.5H90V143.75H85V142.5ZM91.25 142.5H125V143.75H91.25V142.5ZM85 143.75H125V145H85V143.75ZM86.25 145H123.75V146.25H86.25V145ZM87.5 146.25H123.75V147.5H87.5V146.25ZM88.75 147.5H123.75V148.75H88.75V147.5ZM91.25 148.75H122.5V150H91.25V148.75ZM97.5 150H122.5V151.25H97.5V150ZM98.75 151.25H120V152.5H98.75V151.25ZM100 152.5H118.75V153.75H100V152.5ZM102.5 153.75H117.5V155H102.5V153.75ZM103.75 155H117.5V156.25H103.75V155ZM105 156.25H117.5V157.5H105V156.25ZM106.25 157.5H117.5V158.75H106.25V157.5ZM107.5 158.75H116.25V160H107.5V158.75ZM111.25 160H116.25V161.25H111.25V160ZM112.5 161.25H116.25V162.5H112.5V161.25ZM113.75 162.5H115V163.75H113.75V162.5Z" fill="#FF00FF"/>
<path d="M100 77.5H101.25V83.75H100V86.25H98.75V82.5H100V78.75V77.5Z" fill="#FF00FF"/>
<path d="M85 85H86.25V86.25H85V85Z" fill="#FF00FF"/>
<path d="M103.75 85H105V86.25H103.75V85Z" fill="#FF00FF"/>
<path d="M55 88.75H56.25V90H55V88.75Z" fill="#FF00FF"/>
<path d="M98.75 88.75H100V90H98.75V88.75Z" fill="#FF00FF"/>
<path d="M87.5 90H88.75V91.25H87.5V90Z" fill="#FF00FF"/>
<path d="M87.5 93.75H88.75V95H87.5V93.75Z" fill="#FF00FF"/>
<path d="M122.5 93.75H123.75V95H122.5V93.75Z" fill="#FF00FF"/>
<path d="M85 96.25H86.25V97.5H85V96.25Z" fill="#FF00FF"/>
<path d="M46.25 97.5H47.5V98.75H46.25V97.5Z" fill="#FF00FF"/>
<path d="M115 108.75H116.25V110H115V108.75Z" fill="#FF00FF"/>
<path d="M86.25 110H87.5V111.25H86.25V110Z" fill="#FF00FF"/>
<path d="M165 113.75H166.25V115H165V113.75Z" fill="#FF00FF"/>
<path d="M162.5 115H165V116.25H162.5V115Z" fill="#FF00FF"/>
<path d="M67.5 123.75H68.75V125H67.5V123.75Z" fill="#FF00FF"/>
<path d="M62.5 125H63.75V126.25H65V127.5H66.25V128.75H68.75V131.25H67.5V133.75H66.25V136.25H67.5V137.5H66.25V140H61.25V138.75H57.5V137.5H60V135H61.25V133.75H63.75V132.5H65V130H63.75V128.75H62.5V127.5H61.25V126.25H62.5V125Z" fill="#FF00FF"/>
<path d="M68.75 125H70V126.25H71.25V127.5H68.75V126.25V125Z" fill="#FF00FF"/>
<path d="M50 127.5H52.5V128.75H55V131.25H53.75V133.75H52.5V135H51.25V133.75H50V131.25H47.5V130H48.75V128.75H50V127.5Z" fill="#FF00FF"/>
<path d="M131.25 135H132.5V136.25H131.25V135Z" fill="#FF00FF"/>
<path d="M53.75 136.25H56.25V137.5H55V138.75H52.5V137.5H53.75V136.25Z" fill="#FF00FF"/>
<path d="M51.25 138.75H52.5V140H51.25V138.75Z" fill="#FF00FF"/>
<path d="M13.75 140H15V141.25H13.75V140Z" fill="#FF00FF"/>
<path d="M12.5 141.25H13.75V142.5H12.5V141.25Z" fill="#FF00FF"/>
<path d="M63.75 141.25H65V142.5H66.25V143.75H60V142.5H63.75V141.25Z" fill="#FF00FF"/>
<path d="M63.75 161.25H65V162.5H63.75V161.25Z" fill="#FF00FF"/>
<path d="M122.5 163.75H123.75V165H122.5V163.75Z" fill="#FF00FF"/>
<path d="M123.75 165H125V166.25H123.75V165Z" fill="#FF00FF"/>
<path d="M130 166.25H131.25V168.75H130V167.5V166.25Z" fill="#FF00FF"/>
<path d="M131.25 173.75H132.5V175H131.25V173.75Z" fill="#FF00FF"/>
<path d="M66.25 177.5H68.75V181.25H67.5V182.5H65V178.75H66.25V177.5Z" fill="#FF00FF"/>
<path d="M163.75 12.5H165V13.75H163.75V12.5Z" fill="#FF00FF"/>
<path d="M168.75 15H170V16.25H168.75V15Z" fill="#FF00FF"/>
<path d="M162.5 17.5H163.75V18.75H162.5V17.5Z" fill="#FF00FF"/>
<path d="M157.5 21.25H158.75V22.5H157.5V21.25Z" fill="#FF00FF"/>
<path d="M160 21.25H161.25V22.5H160V21.25Z" fill="#FF00FF"/>
<path d="M150 28.75H151.25V30H150V28.75Z" fill="#FF00FF"/>
<path d="M152.5 28.75H153.75V30H152.5V28.75Z" fill="#FF00FF"/>
<path d="M142.5 31.25H143.75V33.75H142.5V35H141.25V36.25H140V37.5H137.5V36.25H138.75V35H140V33.75H141.25V32.5H142.5V31.25Z" fill="#FF00FF"/>
<path d="M121.25 32.5H122.5V33.75H121.25V32.5Z" fill="#FF00FF"/>
<path d="M135 33.75H136.25V35H135V33.75Z" fill="#FF00FF"/>
<path d="M151.25 33.75H152.5V35H151.25V33.75Z" fill="#FF00FF"/>
<path d="M95 35H96.25V37.5H95V36.25V35Z" fill="#FF00FF"/>
<path d="M118.75 35H121.25V36.25H118.75V35Z" fill="#FF00FF"/>
<path d="M121.25 36.25H122.5V37.5H121.25V36.25Z" fill="#FF00FF"/>
<path d="M85 37.5H86.25V38.75H85V37.5Z" fill="#FF00FF"/>
<path d="M136.25 37.5H137.5V38.75H136.25V37.5Z" fill="#FF00FF"/>
<path d="M68.75 38.75H70V40H68.75V38.75Z" fill="#FF00FF"/>
<path d="M135 38.75H136.25V40H135V38.75Z" fill="#FF00FF"/>
<path d="M133.75 40H135V41.25H133.75V40Z" fill="#FF00FF"/>
<path d="M132.5 41.25H133.75V42.5H132.5V41.25Z" fill="#FF00FF"/>
<path d="M160 42.5H161.25V43.75H160V42.5Z" fill="#FF00FF"/>
<path d="M131.25 43.75H132.5V45H131.25V43.75Z" fill="#FF00FF"/>
<path d="M118.75 46.25H120V47.5H118.75V46.25Z" fill="#FF00FF"/>
<path d="M126.25 46.25H127.5V47.5H126.25V46.25Z" fill="#FF00FF"/>
<path d="M122.5 48.75H123.75V50H122.5V48.75Z" fill="#FF00FF"/>
<path d="M118.75 52.5H120V53.75H118.75V52.5Z" fill="#FF00FF"/>
<path d="M156.25 58.75H157.5V60H156.25V58.75Z" fill="#FF00FF"/>
<path d="M152.5 60H153.75V61.25H152.5V60Z" fill="#FF00FF"/>
<path d="M57.5 67.5H58.75V68.75H57.5V67.5Z" fill="#FF00FF"/>
<path d="M75 68.75H76.25V70H75V68.75Z" fill="#FF00FF"/>
<path d="M77.5 68.75H78.75V70H77.5V68.75Z" fill="#FF00FF"/>
<path d="M102.5 70H103.75V71.25H102.5V70Z" fill="#FF00FF"/>
<path d="M23.75 71.25H25V72.5H23.75V71.25Z" fill="#FF00FF"/>
<path d="M101.25 71.25H102.5V72.5H101.25V71.25Z" fill="#FF00FF"/>
<path d="M80 73.75H81.25V75H80V73.75Z" fill="#FF00FF"/>
<path d="M101.25 73.75H102.5V75H101.25V73.75Z" fill="#FF00FF"/>
<path d="M100 75H101.25V76.25H100V75Z" fill="#FF00FF"/>
<path d="M151.25 75H152.5V76.25H151.25V75Z" fill="#FF00FF"/>
<path d="M161.25 75H162.5V76.25H161.25V75Z" fill="#FF00FF"/>
<path d="M80 76.25H81.25V77.5H80V76.25Z" fill="#FF00FF"/>
<path d="M163.75 76.25H165V77.5H163.75V76.25Z" fill="#FF00FF"/>
<path d="M82.5 80H83.75V82.5H82.5V81.25V80Z" fill="#FF00FF"/>
<path d="M143.75 81.25H145V82.5H143.75V81.25Z" fill="#FF00FF"/>
<path d="M168.75 81.25H170V82.5H168.75V81.25Z" fill="#FF00FF"/>
<path d="M58.75 83.75H60V85H58.75V83.75Z" fill="#FF00FF"/>
<path d="M103.75 83.75H105V85H103.75V83.75Z" fill="#FF00FF"/>
<path d="M170 83.75H171.25V85H170V83.75Z" fill="#FF00FF"/>
<path d="M83.75 85H85V86.25H83.75V85Z" fill="#FF00FF"/>
<path d="M97.5 85H98.75V91.25H97.5V86.25V85Z" fill="#FF00FF"/>
<path d="M100 85H101.25V86.25H100V85Z" fill="#FF00FF"/>
<path d="M103.75 86.25H105V87.5H103.75V86.25Z" fill="#FF00FF"/>
<path d="M140 86.25H141.25V87.5H140V86.25Z" fill="#FF00FF"/>
<path d="M101.25 87.5H102.5V88.75H101.25V87.5Z" fill="#FF00FF"/>
<path d="M53.75 88.75H55V90H53.75V88.75Z" fill="#FF00FF"/>
<path d="M90 88.75H91.25V90H90V88.75Z" fill="#FF00FF"/>
<path d="M77.5 90H78.75V92.5H77.5V91.25V90Z" fill="#FF00FF"/>
<path d="M87.5 91.25H88.75V92.5H87.5V91.25Z" fill="#FF00FF"/>
<path d="M170 92.5H171.25V93.75H170V92.5Z" fill="#FF00FF"/>
<path d="M46.25 93.75H47.5V96.25H46.25V95V93.75Z" fill="#FF00FF"/>
<path d="M101.25 93.75H102.5V95H101.25V93.75Z" fill="#FF00FF"/>
<path d="M121.25 93.75H122.5V95H121.25V93.75Z" fill="#FF00FF"/>
<path d="M85 95H86.25V96.25H85V95Z" fill="#FF00FF"/>
<path d="M163.75 97.5H165V98.75H163.75V97.5Z" fill="#FF00FF"/>
<path d="M116.25 100H118.75V101.25H116.25V100Z" fill="#FF00FF"/>
<path d="M160 101.25H161.25V102.5H160V101.25Z" fill="#FF00FF"/>
<path d="M133.75 102.5H135V103.75H133.75V102.5Z" fill="#FF00FF"/>
<path d="M111.25 103.75H112.5V105H111.25V103.75Z" fill="#FF00FF"/>
<path d="M158.75 103.75H160V105H158.75V103.75Z" fill="#FF00FF"/>
<path d="M157.5 105H158.75V106.25H157.5V105Z" fill="#FF00FF"/>
<path d="M98.75 106.25H100V107.5H98.75V106.25Z" fill="#FF00FF"/>
<path d="M106.25 106.25H107.5V107.5H106.25V106.25Z" fill="#FF00FF"/>
<path d="M113.75 106.25H116.25V107.5H113.75V106.25Z" fill="#FF00FF"/>
<path d="M88.75 107.5H90V108.75H88.75V107.5Z" fill="#FF00FF"/>
<path d="M111.25 107.5H112.5V110H111.25V108.75V107.5Z" fill="#FF00FF"/>
<path d="M142.5 107.5H143.75V108.75H142.5V107.5Z" fill="#FF00FF"/>
<path d="M151.25 107.5H152.5V108.75H151.25V107.5Z" fill="#FF00FF"/>
<path d="M82.5 110H83.75V111.25H82.5V110Z" fill="#FF00FF"/>
<path d="M167.5 110H168.75V111.25H167.5V110Z" fill="#FF00FF"/>
<path d="M97.5 111.25H98.75V112.5H97.5V111.25Z" fill="#FF00FF"/>
<path d="M105 111.25H106.25V112.5H105V111.25Z" fill="#FF00FF"/>
<path d="M125 111.25H126.25V112.5H125V111.25Z" fill="#FF00FF"/>
<path d="M103.75 112.5H105V113.75H103.75V112.5Z" fill="#FF00FF"/>
<path d="M123.75 112.5H125V113.75H123.75V112.5Z" fill="#FF00FF"/>
<path d="M86.25 113.75H88.75V115H86.25V113.75Z" fill="#FF00FF"/>
<path d="M102.5 113.75H103.75V115H102.5V113.75Z" fill="#FF00FF"/>
<path d="M117.5 113.75H118.75V115H117.5V113.75Z" fill="#FF00FF"/>
<path d="M162.5 113.75H163.75V115H162.5V113.75Z" fill="#FF00FF"/>
<path d="M161.25 115H162.5V116.25H161.25V115Z" fill="#FF00FF"/>
<path d="M98.75 116.25H100V117.5H98.75V116.25Z" fill="#FF00FF"/>
<path d="M117.5 116.25H118.75V117.5H117.5V116.25Z" fill="#FF00FF"/>
<path d="M133.75 116.25H135V117.5H133.75V116.25Z" fill="#FF00FF"/>
<path d="M136.25 118.75H138.75V120H136.25V118.75Z" fill="#FF00FF"/>
<path d="M121.25 121.25H122.5V122.5H121.25V121.25Z" fill="#FF00FF"/>
<path d="M117.5 122.5H118.75V123.75H117.5V122.5Z" fill="#FF00FF"/>
<path d="M137.5 122.5H140V123.75H137.5V122.5Z" fill="#FF00FF"/>
<path d="M28.75 123.75H30V125H28.75V123.75Z" fill="#FF00FF"/>
<path d="M68.75 123.75H70V125H68.75V123.75Z" fill="#FF00FF"/>
<path d="M112.5 123.75H113.75V125H112.5V123.75Z" fill="#FF00FF"/>
<path d="M120 123.75H121.25V125H120V123.75Z" fill="#FF00FF"/>
<path d="M61.25 125H62.5V126.25H61.25V125Z" fill="#FF00FF"/>
<path d="M77.5 125H78.75V126.25H77.5V125Z" fill="#FF00FF"/>
<path d="M92.5 125H95V126.25H92.5V125Z" fill="#FF00FF"/>
<path d="M115 125H116.25V126.25H115V125Z" fill="#FF00FF"/>
<path d="M117.5 125H118.75V126.25H117.5V125Z" fill="#FF00FF"/>
<path d="M133.75 125H135V126.25H133.75V125Z" fill="#FF00FF"/>
<path d="M51.25 126.25H52.5V127.5H51.25V126.25Z" fill="#FF00FF"/>
<path d="M67.5 126.25H68.75V127.5H67.5V126.25Z" fill="#FF00FF"/>
<path d="M52.5 127.5H55V128.75H52.5V127.5Z" fill="#FF00FF"/>
<path d="M73.75 127.5H75V128.75H73.75V127.5Z" fill="#FF00FF"/>
<path d="M131.25 127.5H132.5V128.75H131.25V127.5Z" fill="#FF00FF"/>
<path d="M140 127.5H141.25V128.75H140V127.5Z" fill="#FF00FF"/>
<path d="M55 128.75H56.25V130H55V128.75Z" fill="#FF00FF"/>
<path d="M88.75 128.75H90V130H88.75V128.75Z" fill="#FF00FF"/>
<path d="M102.5 128.75H103.75V130H102.5V128.75Z" fill="#FF00FF"/>
<path d="M103.75 130H105V131.25H103.75V130Z" fill="#FF00FF"/>
<path d="M87.5 131.25H88.75V132.5H87.5V131.25Z" fill="#FF00FF"/>
<path d="M106.25 131.25H107.5V133.75H106.25V132.5V131.25Z" fill="#FF00FF"/>
<path d="M61.25 132.5H62.5V133.75H61.25V132.5Z" fill="#FF00FF"/>
<path d="M101.25 132.5H102.5V133.75H101.25V132.5Z" fill="#FF00FF"/>
<path d="M126.25 132.5H127.5V133.75H126.25V132.5Z" fill="#FF00FF"/>
<path d="M52.5 133.75H53.75V135H52.5V133.75Z" fill="#FF00FF"/>
<path d="M92.5 133.75H93.75V135H92.5V133.75Z" fill="#FF00FF"/>
<path d="M97.5 133.75H98.75V135H97.5V133.75Z" fill="#FF00FF"/>
<path d="M131.25 133.75H132.5V135H131.25V133.75Z" fill="#FF00FF"/>
<path d="M56.25 135H57.5V136.25H56.25V135Z" fill="#FF00FF"/>
<path d="M71.25 135H72.5V136.25H71.25V135Z" fill="#FF00FF"/>
<path d="M90 135H91.25V136.25H90V135Z" fill="#FF00FF"/>
<path d="M132.5 135H133.75V136.25H132.5V135Z" fill="#FF00FF"/>
<path d="M52.5 136.25H53.75V137.5H52.5V136.25Z" fill="#FF00FF"/>
<path d="M67.5 136.25H68.75V137.5H67.5V136.25Z" fill="#FF00FF"/>
<path d="M75 136.25H77.5V137.5H75V136.25Z" fill="#FF00FF"/>
<path d="M128.75 136.25H130V137.5H128.75V136.25Z" fill="#FF00FF"/>
<path d="M131.25 136.25H132.5V137.5H131.25V136.25Z" fill="#FF00FF"/>
<path d="M51.25 137.5H52.5V138.75H51.25V137.5Z" fill="#FF00FF"/>
<path d="M68.75 137.5H70V138.75H68.75V137.5Z" fill="#FF00FF"/>
<path d="M77.5 137.5H78.75V138.75H77.5V137.5Z" fill="#FF00FF"/>
<path d="M57.5 138.75H58.75V140H57.5V138.75Z" fill="#FF00FF"/>
<path d="M90 138.75H91.25V141.25H90V140V138.75Z" fill="#FF00FF"/>
<path d="M125 138.75H126.25V141.25H125V140V138.75Z" fill="#FF00FF"/>
<path d="M63.75 140H66.25V141.25H63.75V140Z" fill="#FF00FF"/>
<path d="M78.75 140H80V141.25H78.75V140Z" fill="#FF00FF"/>
<path d="M11.25 141.25H12.5V142.5H11.25V141.25Z" fill="#FF00FF"/>
<path d="M13.75 141.25H15V142.5H13.75V141.25Z" fill="#FF00FF"/>
<path d="M61.25 141.25H62.5V142.5H61.25V141.25Z" fill="#FF00FF"/>
<path d="M81.25 141.25H82.5V142.5H81.25V141.25Z" fill="#FF00FF"/>
<path d="M60 143.75H66.25V145H60V143.75Z" fill="#FF00FF"/>
<path d="M155 145H156.25V146.25H155V145Z" fill="#FF00FF"/>
<path d="M86.25 146.25H87.5V147.5H86.25V146.25Z" fill="#FF00FF"/>
<path d="M123.75 146.25H125V147.5H123.75V146.25Z" fill="#FF00FF"/>
<path d="M87.5 147.5H88.75V148.75H87.5V147.5Z" fill="#FF00FF"/>
<path d="M62.5 148.75H63.75V150H62.5V148.75Z" fill="#FF00FF"/>
<path d="M95 150H96.25V151.25H95V150Z" fill="#FF00FF"/>
<path d="M100 153.75H101.25V155H100V153.75Z" fill="#FF00FF"/>
<path d="M117.5 155H118.75V156.25H117.5V155Z" fill="#FF00FF"/>
<path d="M71.25 157.5H72.5V158.75H71.25V157.5Z" fill="#FF00FF"/>
<path d="M117.5 157.5H118.75V158.75H117.5V157.5Z" fill="#FF00FF"/>
<path d="M62.5 160H63.75V161.25H62.5V160Z" fill="#FF00FF"/>
<path d="M107.5 160H108.75V161.25H107.5V160Z" fill="#FF00FF"/>
<path d="M140 160H141.25V161.25H140V160Z" fill="#FF00FF"/>
<path d="M158.75 160H160V161.25H158.75V160Z" fill="#FF00FF"/>
<path d="M123.75 163.75H125V165H123.75V163.75Z" fill="#FF00FF"/>
<path d="M122.5 165H123.75V166.25H122.5V165Z" fill="#FF00FF"/>
<path d="M130 165H132.5V166.25H130V165Z" fill="#FF00FF"/>
<path d="M123.75 166.25H125V167.5H123.75V166.25Z" fill="#FF00FF"/>
<path d="M125 167.5H127.5V170H126.25V168.75H125V167.5Z" fill="#FF00FF"/>
<path d="M130 171.25H131.25V172.5H130V171.25Z" fill="#FF00FF"/>
<path d="M131.25 172.5H132.5V173.75H131.25V172.5Z" fill="#FF00FF"/>
<path d="M130 173.75H131.25V175H130V173.75Z" fill="#FF00FF"/>
<path d="M131.25 175H132.5V176.25H131.25V175Z" fill="#FF00FF"/>
<path d="M67.5 176.25H68.75V177.5H67.5V176.25Z" fill="#FF00FF"/>
<path d="M63.75 180H65V182.5H63.75V181.25V180Z" fill="#FF00FF"/>
<path d="M67.5 181.25H68.75V182.5H67.5V181.25Z" fill="#FF00FF"/>
<path d="M65 182.5H66.25V183.75H65V182.5Z" fill="#FF00FF"/>
<path d="M162.5 13.75H163.75V15H162.5V13.75Z" fill="#FF00FF"/>
<path d="M160 17.5H161.25V18.75H160V17.5Z" fill="#FF00FF"/>
<path d="M167.5 17.5H168.75V18.75H167.5V17.5Z" fill="#FF00FF"/>
<path d="M161.25 20H162.5V21.25H161.25V20Z" fill="#FF00FF"/>
<path d="M156.25 22.5H157.5V23.75H156.25V22.5Z" fill="#FF00FF"/>
<path d="M105 27.5H106.25V28.75H105V27.5Z" fill="#FF00FF"/>
<path d="M143.75 30H145V31.25H143.75V30Z" fill="#FF00FF"/>
<path d="M151.25 30H152.5V31.25H151.25V30Z" fill="#FF00FF"/>
<path d="M147.5 32.5H148.75V33.75H147.5V32.5Z" fill="#FF00FF"/>
<path d="M92.5 35H93.75V36.25H92.5V35Z" fill="#FF00FF"/>
<path d="M82.5 36.25H83.75V37.5H82.5V36.25Z" fill="#FF00FF"/>
<path d="M68.75 37.5H71.25V40H70V38.75H68.75V37.5Z" fill="#FF00FF"/>
<path d="M81.25 37.5H82.5V38.75H81.25V37.5Z" fill="#FF00FF"/>
<path d="M86.25 37.5H87.5V38.75H86.25V37.5Z" fill="#FF00FF"/>
<path d="M117.5 37.5H118.75V38.75H117.5V37.5Z" fill="#FF00FF"/>
<path d="M122.5 38.75H123.75V40H122.5V38.75Z" fill="#FF00FF"/>
<path d="M120 41.25H121.25V42.5H120V41.25Z" fill="#FF00FF"/>
<path d="M163.75 41.25H165V42.5H163.75V41.25Z" fill="#FF00FF"/>
<path d="M121.25 42.5H122.5V43.75H121.25V42.5Z" fill="#FF00FF"/>
<path d="M130 45H131.25V46.25H130V45Z" fill="#FF00FF"/>
<path d="M125 48.75H126.25V50H125V48.75Z" fill="#FF00FF"/>
<path d="M120 52.5H121.25V53.75H120V52.5Z" fill="#FF00FF"/>
<path d="M151.25 57.5H152.5V58.75H151.25V57.5Z" fill="#FF00FF"/>
<path d="M58.75 67.5H60V68.75H58.75V67.5Z" fill="#FF00FF"/>
<path d="M76.25 67.5H77.5V68.75H76.25V67.5Z" fill="#FF00FF"/>
<path d="M112.5 67.5H113.75V68.75H112.5V67.5Z" fill="#FF00FF"/>
<path d="M157.5 68.75H158.75V70H157.5V68.75Z" fill="#FF00FF"/>
<path d="M155 73.75H157.5V75H155V73.75Z" fill="#FF00FF"/>
<path d="M158.75 73.75H160V75H158.75V73.75Z" fill="#FF00FF"/>
<path d="M81.25 76.25H82.5V77.5H81.25V76.25Z" fill="#FF00FF"/>
<path d="M80 77.5H81.25V78.75H80V77.5Z" fill="#FF00FF"/>
<path d="M98.75 78.75H100V80H98.75V78.75Z" fill="#FF00FF"/>
<path d="M167.5 78.75H168.75V80H167.5V78.75Z" fill="#FF00FF"/>
<path d="M82.5 82.5H85V83.75H82.5V82.5Z" fill="#FF00FF"/>
<path d="M51.25 83.75H52.5V85H51.25V83.75Z" fill="#FF00FF"/>
<path d="M97.5 83.75H98.75V85H97.5V83.75Z" fill="#FF00FF"/>
<path d="M105 83.75H106.25V85H105V83.75Z" fill="#FF00FF"/>
<path d="M58.75 85H60V86.25H58.75V85Z" fill="#FF00FF"/>
<path d="M86.25 85H87.5V87.5H86.25V86.25V85Z" fill="#FF00FF"/>
<path d="M98.75 86.25H100V87.5H98.75V86.25Z" fill="#FF00FF"/>
<path d="M85 87.5H86.25V88.75H85V87.5Z" fill="#FF00FF"/>
<path d="M92.5 87.5H93.75V88.75H92.5V87.5Z" fill="#FF00FF"/>
<path d="M171.25 87.5H172.5V90H171.25V88.75V87.5Z" fill="#FF00FF"/>
<path d="M56.25 88.75H57.5V91.25H56.25V90V88.75Z" fill="#FF00FF"/>
<path d="M11.25 90H12.5V91.25H11.25V90Z" fill="#FF00FF"/>
<path d="M78.75 90H80V91.25H78.75V90Z" fill="#FF00FF"/>
<path d="M100 90H101.25V92.5H100V91.25V90Z" fill="#FF00FF"/>
<path d="M87.5 92.5H88.75V93.75H87.5V92.5Z" fill="#FF00FF"/>
<path d="M122.5 92.5H123.75V93.75H122.5V92.5Z" fill="#FF00FF"/>
<path d="M86.25 93.75H87.5V95H86.25V93.75Z" fill="#FF00FF"/>
<path d="M81.25 95H82.5V96.25H81.25V95Z" fill="#FF00FF"/>
<path d="M121.25 95H123.75V96.25H121.25V95Z" fill="#FF00FF"/>
<path d="M82.5 96.25H83.75V97.5H82.5V96.25Z" fill="#FF00FF"/>
<path d="M86.25 96.25H87.5V97.5H86.25V96.25Z" fill="#FF00FF"/>
<path d="M85 97.5H86.25V98.75H85V97.5Z" fill="#FF00FF"/>
<path d="M62.5 98.75H63.75V100H62.5V98.75Z" fill="#FF00FF"/>
<path d="M76.25 98.75H77.5V100H76.25V98.75Z" fill="#FF00FF"/>
<path d="M92.5 102.5H93.75V103.75H92.5V102.5Z" fill="#FF00FF"/>
<path d="M116.25 102.5H117.5V103.75H116.25V102.5Z" fill="#FF00FF"/>
<path d="M110 103.75H111.25V105H110V103.75Z" fill="#FF00FF"/>
<path d="M113.75 103.75H115V105H113.75V103.75Z" fill="#FF00FF"/>
<path d="M107.5 105H108.75V106.25H107.5V105Z" fill="#FF00FF"/>
<path d="M115 105H116.25V106.25H115V105Z" fill="#FF00FF"/>
<path d="M131.25 105H132.5V106.25H131.25V105Z" fill="#FF00FF"/>
<path d="M63.75 106.25H65V107.5H63.75V106.25Z" fill="#FF00FF"/>
<path d="M85 106.25H86.25V107.5H85V106.25Z" fill="#FF00FF"/>
<path d="M130 106.25H131.25V107.5H130V106.25Z" fill="#FF00FF"/>
<path d="M86.25 107.5H87.5V108.75H86.25V107.5Z" fill="#FF00FF"/>
<path d="M107.5 107.5H108.75V108.75H107.5V107.5Z" fill="#FF00FF"/>
<path d="M128.75 107.5H130V108.75H128.75V107.5Z" fill="#FF00FF"/>
<path d="M152.5 107.5H153.75V108.75H152.5V107.5Z" fill="#FF00FF"/>
<path d="M88.75 108.75H90V110H88.75V108.75Z" fill="#FF00FF"/>
<path d="M127.5 108.75H128.75V110H127.5V108.75Z" fill="#FF00FF"/>
<path d="M141.25 108.75H142.5V110H141.25V108.75Z" fill="#FF00FF"/>
<path d="M112.5 110H113.75V111.25H112.5V110Z" fill="#FF00FF"/>
<path d="M126.25 110H127.5V111.25H126.25V110Z" fill="#FF00FF"/>
<path d="M116.25 111.25H117.5V113.75H116.25V112.5V111.25Z" fill="#FF00FF"/>
<path d="M167.5 111.25H168.75V112.5H167.5V111.25Z" fill="#FF00FF"/>
<path d="M137.5 112.5H138.75V113.75H137.5V112.5Z" fill="#FF00FF"/>
<path d="M166.25 113.75H167.5V115H166.25V113.75Z" fill="#FF00FF"/>
<path d="M70 115H71.25V116.25H70V115Z" fill="#FF00FF"/>
<path d="M87.5 115H88.75V116.25H87.5V115Z" fill="#FF00FF"/>
<path d="M101.25 115H102.5V116.25H101.25V115Z" fill="#FF00FF"/>
<path d="M120 115H121.25V116.25H120V115Z" fill="#FF00FF"/>
<path d="M137.5 117.5H138.75V118.75H137.5V117.5Z" fill="#FF00FF"/>
<path d="M162.5 117.5H163.75V118.75H162.5V117.5Z" fill="#FF00FF"/>
<path d="M100 118.75H101.25V120H100V118.75Z" fill="#FF00FF"/>
<path d="M81.25 120H82.5V121.25H81.25V120Z" fill="#FF00FF"/>
<path d="M28.75 121.25H30V122.5H28.75V121.25Z" fill="#FF00FF"/>
<path d="M120 121.25H121.25V122.5H120V121.25Z" fill="#FF00FF"/>
<path d="M27.5 122.5H28.75V125H27.5V123.75V122.5Z" fill="#FF00FF"/>
<path d="M51.25 122.5H53.75V123.75H51.25V122.5Z" fill="#FF00FF"/>
<path d="M62.5 123.75H63.75V125H62.5V123.75Z" fill="#FF00FF"/>
<path d="M91.25 125H92.5V126.25H91.25V125Z" fill="#FF00FF"/>
<path d="M110 125H111.25V126.25H110V125Z" fill="#FF00FF"/>
<path d="M116.25 125H117.5V126.25H116.25V125Z" fill="#FF00FF"/>
<path d="M135 126.25H136.25V127.5H135V126.25Z" fill="#FF00FF"/>
<path d="M140 126.25H141.25V127.5H140V126.25Z" fill="#FF00FF"/>
<path d="M68.75 127.5H70V128.75H68.75V127.5Z" fill="#FF00FF"/>
<path d="M90 127.5H91.25V128.75H90V127.5Z" fill="#FF00FF"/>
<path d="M138.75 127.5H140V128.75H138.75V127.5Z" fill="#FF00FF"/>
<path d="M70 128.75H71.25V130H70V128.75Z" fill="#FF00FF"/>
<path d="M70 131.25H71.25V133.75H70V132.5V131.25Z" fill="#FF00FF"/>
<path d="M103.75 131.25H105V132.5H103.75V131.25Z" fill="#FF00FF"/>
<path d="M128.75 131.25H130V132.5H128.75V131.25Z" fill="#FF00FF"/>
<path d="M87.5 132.5H90V133.75H87.5V132.5Z" fill="#FF00FF"/>
<path d="M98.75 132.5H101.25V133.75H98.75V132.5Z" fill="#FF00FF"/>
<path d="M58.75 133.75H60V135H58.75V133.75Z" fill="#FF00FF"/>
<path d="M91.25 133.75H92.5V135H91.25V133.75Z" fill="#FF00FF"/>
<path d="M93.75 133.75H95V135H93.75V133.75Z" fill="#FF00FF"/>
<path d="M126.25 133.75H127.5V135H126.25V133.75Z" fill="#FF00FF"/>
<path d="M130 133.75H131.25V135H130V133.75Z" fill="#FF00FF"/>
<path d="M53.75 135H55V136.25H53.75V135Z" fill="#FF00FF"/>
<path d="M133.75 135H135V136.25H136.25V137.5H132.5V136.25H133.75V135Z" fill="#FF00FF"/>
<path d="M87.5 137.5H88.75V138.75H87.5V137.5Z" fill="#FF00FF"/>
<path d="M13.75 138.75H15V140H13.75V138.75Z" fill="#FF00FF"/>
<path d="M53.75 138.75H55V140H53.75V138.75Z" fill="#FF00FF"/>
<path d="M15 140H16.25V141.25H15V140Z" fill="#FF00FF"/>
<path d="M125 141.25H126.25V142.5H125V141.25Z" fill="#FF00FF"/>
<path d="M58.75 142.5H60V145H58.75V143.75V142.5Z" fill="#FF00FF"/>
<path d="M85 145H86.25V146.25H85V145Z" fill="#FF00FF"/>
<path d="M88.75 148.75H90V150H88.75V148.75Z" fill="#FF00FF"/>
<path d="M93.75 150H95V151.25H93.75V150Z" fill="#FF00FF"/>
<path d="M122.5 150H123.75V151.25H122.5V150Z" fill="#FF00FF"/>
<path d="M75 155H76.25V156.25H75V155Z" fill="#FF00FF"/>
<path d="M117.5 156.25H118.75V157.5H117.5V156.25Z" fill="#FF00FF"/>
<path d="M155 156.25H156.25V157.5H155V156.25Z" fill="#FF00FF"/>
<path d="M63.75 160H65V161.25H63.75V160Z" fill="#FF00FF"/>
<path d="M116.25 160H117.5V161.25H116.25V160Z" fill="#FF00FF"/>
<path d="M122.5 162.5H123.75V163.75H122.5V162.5Z" fill="#FF00FF"/>
<path d="M142.5 162.5H145V163.75H142.5V162.5Z" fill="#FF00FF"/>
<path d="M113.75 163.75H115V165H113.75V163.75Z" fill="#FF00FF"/>
<path d="M121.25 163.75H122.5V165H121.25V163.75Z" fill="#FF00FF"/>
<path d="M12.5 167.5H13.75V168.75H12.5V167.5Z" fill="#FF00FF"/>
<path d="M130 168.75H131.25V170H130V168.75Z" fill="#FF00FF"/>
<path d="M103.75 176.25H105V177.5H103.75V176.25Z" fill="#FF00FF"/>
<path d="M63.75 178.75H65V180H63.75V178.75Z" fill="#FF00FF"/>
<path d="M68.75 180H70V181.25H68.75V180Z" fill="#FF00FF"/>
<path d="M66.25 182.5H67.5V183.75H66.25V182.5Z" fill="#FF00FF"/>
<path d="M75 187.5H76.25V188.75H75V187.5Z" fill="#FF00FF"/>
<path d="M183.75 187.5H185V188.75H183.75V187.5Z" fill="#FF00FF"/>
</svg>
