<svg width="200" height="200" viewBox="0 0 200 200" fill="none" xmlns="http://www.w3.org/2000/svg">
<path d="M92.9414 22.3529H94.1179V23.5294H92.9414V22.3529Z" fill="#7F007F"/>
<path d="M94.1177 25.8824H95.2941V27.0588H94.1177V25.8824Z" fill="#7F007F"/>
<path d="M101.177 35.2941H102.353V37.6471H101.177V36.4706V35.2941Z" fill="#7F007F"/>
<path d="M114.118 56.4706H115.294V57.6471H114.118V56.4706Z" fill="#7F007F"/>
<path d="M56.4707 57.647H57.6472V58.8235H56.4707V57.647Z" fill="#7F007F"/>
<path d="M92.9414 78.8235H94.1179V80H92.9414V78.8235Z" fill="#7F007F"/>
<path d="M88.2354 81.1765H89.4118V83.5294H88.2354V82.3529V81.1765Z" fill="#7F007F"/>
<path d="M121.177 85.8824H122.353V87.0588H121.177V85.8824Z" fill="#7F007F"/>
<path d="M92.9414 88.2353H94.1179V89.4118H92.9414V88.2353Z" fill="#7F007F"/>
<path d="M128.235 89.4118H129.412V90.5882H128.235V89.4118Z" fill="#7F007F"/>
<path d="M127.059 91.7647H128.235V94.1177H127.059V92.9412V91.7647Z" fill="#7F007F"/>
<path d="M135.294 91.7647H136.471V94.1177H135.294V92.9412V91.7647Z" fill="#7F007F"/>
<path d="M137.647 91.7647H138.824V92.9412H137.647V91.7647Z" fill="#7F007F"/>
<path d="M117.647 92.9412H118.824V94.1176H117.647V92.9412Z" fill="#7F007F"/>
<path d="M138.824 92.9412H140V94.1176H138.824V92.9412Z" fill="#7F007F"/>
<path d="M110.588 94.1176H111.765V95.2941H110.588V94.1176Z" fill="#7F007F"/>
<path d="M122.353 94.1176H123.529V95.2941H122.353V94.1176Z" fill="#7F007F"/>
<path d="M114.118 95.2941H116.471V96.4706H114.118V95.2941Z" fill="#7F007F"/>
<path d="M94.1177 96.4706H95.2941V97.6471H94.1177V96.4706Z" fill="#7F007F"/>
<path d="M120 96.4706H121.176V97.6471H120V96.4706Z" fill="#7F007F"/>
<path d="M132.941 97.6471H134.118V98.8235H132.941V97.6471Z" fill="#7F007F"/>
<path d="M137.647 97.6471H138.824V98.8235H137.647V97.6471Z" fill="#7F007F"/>
<path d="M118.824 98.8235H120V100H118.824V98.8235Z" fill="#7F007F"/>
<path d="M118.824 101.176H120V102.353H118.824V101.176Z" fill="#7F007F"/>
<path d="M105.883 103.529H107.059V104.706H105.883V103.529Z" fill="#7F007F"/>
<path d="M140 103.529H141.176V104.706H140V103.529Z" fill="#7F007F"/>
<path d="M111.765 104.706H112.941V105.882H111.765V104.706Z" fill="#7F007F"/>
<path d="M121.177 104.706H122.353V105.882H121.177V104.706Z" fill="#7F007F"/>
<path d="M118.824 105.882H120V108.235H118.824V107.059V105.882Z" fill="#7F007F"/>
<path d="M123.53 105.882H124.706V107.059H123.53V105.882Z" fill="#7F007F"/>
<path d="M115.294 107.059H116.471V108.235H115.294V107.059Z" fill="#7F007F"/>
<path d="M125.883 107.059H127.059V108.235H125.883V107.059Z" fill="#7F007F"/>
<path d="M103.53 108.235H104.706V109.412H103.53V108.235Z" fill="#7F007F"/>
<path d="M112.941 109.412H114.118V110.588H112.941V109.412Z" fill="#7F007F"/>
<path d="M115.294 109.412H116.471V110.588H115.294V109.412Z" fill="#7F007F"/>
<path d="M118.824 109.412H120V110.588H118.824V109.412Z" fill="#7F007F"/>
<path d="M121.177 109.412H124.706V110.588H125.882V111.765H121.177V110.588V109.412Z" fill="#7F007F"/>
<path d="M108.235 110.588H110.588V111.765H109.412V112.941H108.235V111.765V110.588Z" fill="#7F007F"/>
<path d="M128.235 110.588H130.588V111.765H128.235V110.588Z" fill="#7F007F"/>
<path d="M140 110.588H141.176V111.765H140V110.588Z" fill="#7F007F"/>
<path d="M143.53 110.588H144.706V111.765H143.53V110.588Z" fill="#7F007F"/>
<path d="M105.883 111.765H107.059V112.941H105.883V111.765Z" fill="#7F007F"/>
<path d="M125.883 111.765H127.059V112.941H125.883V111.765Z" fill="#7F007F"/>
<path d="M131.765 111.765H132.941V112.941H131.765V111.765Z" fill="#7F007F"/>
<path d="M118.824 112.941H120V114.118H118.824V112.941Z" fill="#7F007F"/>
<path d="M124.706 112.941H125.883V114.118H124.706V112.941Z" fill="#7F007F"/>
<path d="M127.059 112.941H129.412V114.118H127.059V112.941Z" fill="#7F007F"/>
<path d="M130.588 112.941H131.765V114.118H130.588V112.941Z" fill="#7F007F"/>
<path d="M123.53 114.118H124.706V115.294H123.53V114.118Z" fill="#7F007F"/>
<path d="M129.412 114.118H130.588V115.294H129.412V114.118Z" fill="#7F007F"/>
<path d="M114.118 115.294H115.294V116.471H114.118V115.294Z" fill="#7F007F"/>
<path d="M143.53 115.294H144.706V116.471H143.53V115.294Z" fill="#7F007F"/>
<path d="M112.941 116.471H114.118V117.647H112.941V116.471Z" fill="#7F007F"/>
<path d="M118.824 116.471H120V117.647H118.824V116.471Z" fill="#7F007F"/>
<path d="M137.647 116.471H140V117.647H137.647V116.471Z" fill="#7F007F"/>
<path d="M103.53 117.647H105.882V118.824H103.53V117.647Z" fill="#7F007F"/>
<path d="M120 117.647H121.176V118.824H120V117.647Z" fill="#7F007F"/>
<path d="M125.883 117.647H127.059V120H125.883V118.824V117.647Z" fill="#7F007F"/>
<path d="M128.235 117.647H129.412V118.824H128.235V117.647Z" fill="#7F007F"/>
<path d="M130.588 117.647H131.765V118.824H130.588V117.647Z" fill="#7F007F"/>
<path d="M135.294 117.647H136.471V118.824H135.294V117.647Z" fill="#7F007F"/>
<path d="M122.353 118.824H123.529V120H122.353V118.824Z" fill="#7F007F"/>
<path d="M118.824 120H120V122.353H118.824V121.176V120Z" fill="#7F007F"/>
<path d="M127.059 120H128.235V121.176H127.059V120Z" fill="#7F007F"/>
<path d="M131.765 120H132.941V121.176H131.765V120Z" fill="#7F007F"/>
<path d="M136.471 120H140V121.176H136.471V120Z" fill="#7F007F"/>
<path d="M141.177 120H142.353V121.176H141.177V120Z" fill="#7F007F"/>
<path d="M122.353 121.176H123.529V123.529H122.353V122.353V121.176Z" fill="#7F007F"/>
<path d="M130.588 121.176H131.765V122.353H130.588V121.176Z" fill="#7F007F"/>
<path d="M143.53 121.176H144.706V122.353H143.53V121.176Z" fill="#7F007F"/>
<path d="M148.235 121.176H149.412V122.353H148.235V121.176Z" fill="#7F007F"/>
<path d="M111.765 122.353H112.941V123.529H111.765V122.353Z" fill="#7F007F"/>
<path d="M116.471 122.353H118.824V124.706H116.471V123.529V122.353Z" fill="#7F007F"/>
<path d="M132.941 122.353H134.118V123.529H132.941V122.353Z" fill="#7F007F"/>
<path d="M123.53 123.529H125.882V124.706H123.53V123.529Z" fill="#7F007F"/>
<path d="M125.883 124.706H127.059V125.882H125.883V124.706Z" fill="#7F007F"/>
<path d="M128.235 124.706H129.412V125.882H128.235V124.706Z" fill="#7F007F"/>
<path d="M132.941 124.706H134.118V125.882H132.941V124.706Z" fill="#7F007F"/>
<path d="M140 124.706H141.176V125.882H140V124.706Z" fill="#7F007F"/>
<path d="M142.353 124.706H143.529V125.882H142.353V124.706Z" fill="#7F007F"/>
<path d="M144.706 124.706H145.883V125.882H144.706V124.706Z" fill="#7F007F"/>
<path d="M118.824 125.882H121.177V127.059H118.824V125.882Z" fill="#7F007F"/>
<path d="M124.706 125.882H125.883V128.235H124.706V127.059V125.882Z" fill="#7F007F"/>
<path d="M129.412 125.882H130.588V129.412H129.412V127.059V125.882Z" fill="#7F007F"/>
<path d="M134.118 127.059H137.647V128.235H138.824V129.412H136.471V128.235H134.118V127.059Z" fill="#7F007F"/>
<path d="M118.824 129.412H120V130.588H118.824V129.412Z" fill="#7F007F"/>
<path d="M125.883 129.412H127.059V130.588H125.883V129.412Z" fill="#7F007F"/>
<path d="M128.235 129.412H129.412V130.588H128.235V129.412Z" fill="#7F007F"/>
<path d="M114.118 130.588H115.294V131.765H114.118V130.588Z" fill="#7F007F"/>
<path d="M145.883 130.588H147.059V131.765H145.883V130.588Z" fill="#7F007F"/>
<path d="M127.059 131.765H129.412V132.941H128.236V134.118H125.883V132.941H127.059V131.765Z" fill="#7F007F"/>
<path d="M148.235 131.765H149.412V132.941H148.235V131.765Z" fill="#7F007F"/>
<path d="M120 132.941H121.176V134.118H120V132.941Z" fill="#7F007F"/>
<path d="M154.118 132.941H155.294V134.118H154.118V132.941Z" fill="#7F007F"/>
<path d="M121.177 134.118H122.353V135.294H121.177V134.118Z" fill="#7F007F"/>
<path d="M150.588 134.118H151.765V135.294H150.588V134.118Z" fill="#7F007F"/>
<path d="M152.941 134.118H154.118V135.294H152.941V134.118Z" fill="#7F007F"/>
<path d="M127.059 136.471H129.412V137.647H127.059V136.471Z" fill="#7F007F"/>
<path d="M124.706 137.647H125.883V138.824H124.706V137.647Z" fill="#7F007F"/>
<path d="M156.471 137.647H157.647V138.824H156.471V137.647Z" fill="#7F007F"/>
<path d="M125.883 138.824H127.059V140H125.883V138.824Z" fill="#7F007F"/>
<path d="M151.765 140H154.118V141.176H152.941V142.353H151.765V141.176V140Z" fill="#7F007F"/>
<path d="M155.294 140H156.471V141.176H155.294V140Z" fill="#7F007F"/>
<path d="M128.235 141.176H129.412V142.353H128.235V141.176Z" fill="#7F007F"/>
<path d="M124.706 142.353H125.883V143.529H124.706V142.353Z" fill="#7F007F"/>
<path d="M129.412 142.353H130.588V143.529H129.412V142.353Z" fill="#7F007F"/>
<path d="M128.235 143.529H129.412V145.882H128.235V144.706V143.529Z" fill="#7F007F"/>
<path d="M144.706 144.706H145.883V145.882H144.706V144.706Z" fill="#7F007F"/>
<path d="M147.059 144.706H148.236V147.059H145.883V145.882H147.059V144.706Z" fill="#7F007F"/>
<path d="M121.177 145.882H122.353V147.059H121.177V145.882Z" fill="#7F007F"/>
<path d="M129.412 145.882H130.588V148.235H129.412V147.059V145.882Z" fill="#7F007F"/>
<path d="M125.883 147.059H127.059V148.235H125.883V147.059Z" fill="#7F007F"/>
<path d="M132.941 147.059H134.118V148.235H132.941V147.059Z" fill="#7F007F"/>
<path d="M152.941 147.059H154.118V149.412H152.941V148.235V147.059Z" fill="#7F007F"/>
<path d="M127.059 148.235H128.235V149.412H127.059V148.235Z" fill="#7F007F"/>
<path d="M131.765 148.235H132.941V149.412H131.765V148.235Z" fill="#7F007F"/>
<path d="M135.294 149.412H136.471V150.588H135.294V149.412Z" fill="#7F007F"/>
<path d="M143.53 149.412H144.706V150.588H143.53V149.412Z" fill="#7F007F"/>
<path d="M148.235 149.412H149.412V150.588H148.235V149.412Z" fill="#7F007F"/>
<path d="M151.765 149.412H152.941V150.588H151.765V149.412Z" fill="#7F007F"/>
<path d="M121.177 150.588H123.529V151.765H121.177V150.588Z" fill="#7F007F"/>
<path d="M127.059 150.588H128.235V151.765H127.059V150.588Z" fill="#7F007F"/>
<path d="M149.412 150.588H151.765V151.765H149.412V150.588Z" fill="#7F007F"/>
<path d="M156.471 150.588H157.647V151.765H156.471V150.588Z" fill="#7F007F"/>
<path d="M129.412 152.941H130.588V154.118H129.412V152.941Z" fill="#7F007F"/>
<path d="M134.118 152.941H136.471V154.118H134.118V152.941Z" fill="#7F007F"/>
<path d="M154.118 152.941H155.294V155.294H154.118V154.118V152.941Z" fill="#7F007F"/>
<path d="M156.471 152.941H157.647V155.294H156.471V154.118V152.941Z" fill="#7F007F"/>
<path d="M123.53 154.118H125.882V155.294H123.53V154.118Z" fill="#7F007F"/>
<path d="M130.588 154.118H131.765V155.294H130.588V154.118Z" fill="#7F007F"/>
<path d="M144.706 154.118H145.883V155.294H144.706V154.118Z" fill="#7F007F"/>
<path d="M132.941 155.294H134.118V156.471H132.941V155.294Z" fill="#7F007F"/>
<path d="M152.941 155.294H154.118V158.824H151.765V156.471H152.941V155.294Z" fill="#7F007F"/>
<path d="M134.118 156.471H135.294V157.647H134.118V156.471Z" fill="#7F007F"/>
<path d="M148.235 156.471H149.412V157.647H148.235V156.471Z" fill="#7F007F"/>
<path d="M129.412 158.824H130.588V160H129.412V158.824Z" fill="#7F007F"/>
<path d="M148.235 158.824H149.412V160H148.235V158.824Z" fill="#7F007F"/>
<path d="M150.588 158.824H151.765V160H150.588V158.824Z" fill="#7F007F"/>
<path d="M155.294 158.824H156.471V160H155.294V158.824Z" fill="#7F007F"/>
<path d="M132.941 160H134.118V161.176H132.941V160Z" fill="#7F007F"/>
<path d="M154.118 160H155.294V161.176H154.118V160Z" fill="#7F007F"/>
<path d="M140 162.353H141.176V163.529H140V162.353Z" fill="#7F007F"/>
<path d="M149.412 162.353H150.588V163.529H149.412V162.353Z" fill="#7F007F"/>
<path d="M152.941 162.353H154.118V163.529H152.941V162.353Z" fill="#7F007F"/>
<path d="M132.941 163.529H134.118V164.706H132.941V163.529Z" fill="#7F007F"/>
<path d="M138.824 163.529H140V164.706H138.824V163.529Z" fill="#7F007F"/>
<path d="M151.765 163.529H152.941V164.706H151.765V163.529Z" fill="#7F007F"/>
<path d="M145.883 164.706H147.059V165.882H145.883V164.706Z" fill="#7F007F"/>
<path d="M150.588 164.706H151.765V165.882H150.588V164.706Z" fill="#7F007F"/>
<path d="M142.353 165.882H143.529V167.059H142.353V165.882Z" fill="#7F007F"/>
<path d="M149.412 165.882H150.588V167.059H149.412V165.882Z" fill="#7F007F"/>
<path d="M141.177 167.059H142.353V168.235H141.177V167.059Z" fill="#7F007F"/>
<path d="M147.059 167.059H149.412V168.235H147.059V167.059Z" fill="#7F007F"/>
<path d="M152.941 167.059H155.294V168.235H152.941V167.059Z" fill="#7F007F"/>
<path d="M149.412 168.235H150.588V169.412H149.412V168.235Z" fill="#7F007F"/>
<path d="M138.824 170.588H141.177V171.765H138.824V170.588Z" fill="#7F007F"/>
<path d="M149.412 170.588H150.588V171.765H149.412V170.588Z" fill="#7F007F"/>
<path d="M170.588 170.588H171.765V171.765H170.588V170.588Z" fill="#7F007F"/>
<path d="M144.706 175.294H147.059V176.471H144.706V175.294Z" fill="#7F007F"/>
<path d="M151.765 175.294H152.941V176.471H151.765V175.294Z" fill="#7F007F"/>
<path d="M148.235 176.471H149.412V177.647H148.235V176.471Z" fill="#7F007F"/>
<path d="M138.824 178.824H141.177V180H138.824V178.824Z" fill="#7F007F"/>
<path d="M154.118 180H155.294V181.176H154.118V180Z" fill="#7F007F"/>
<path d="M108.235 76.4706H109.412V77.6471H108.235V76.4706Z" fill="#7F007F"/>
<path d="M81.1765 81.1765H82.353V82.3529H81.1765V81.1765Z" fill="#7F007F"/>
<path d="M91.7646 83.5294H92.9411V84.7059H91.7646V83.5294Z" fill="#7F007F"/>
<path d="M92.9412 87.0588H95.2941V88.2353H96.4706V89.4118H94.1176V88.2353H92.9412V87.0588Z" fill="#7F007F"/>
<path d="M122.353 92.9412H123.529V94.1176H122.353V92.9412Z" fill="#7F007F"/>
<path d="M124.706 92.9412H125.882V94.1176H124.706V92.9412Z" fill="#7F007F"/>
<path d="M136.471 92.9412H138.824V95.2941H137.647V94.1176H136.471V92.9412Z" fill="#7F007F"/>
<path d="M112.941 94.1176H114.118V95.2941H112.941V94.1176Z" fill="#7F007F"/>
<path d="M94.1177 95.2941H95.2941V96.4706H94.1177V95.2941Z" fill="#7F007F"/>
<path d="M114.118 96.4706H116.471V97.6471H115.294V98.8235H114.118V97.6471V96.4706Z" fill="#7F007F"/>
<path d="M136.471 98.8235H137.647V100H136.471V98.8235Z" fill="#7F007F"/>
<path d="M115.294 102.353H116.471V103.529H115.294V102.353Z" fill="#7F007F"/>
<path d="M141.177 103.529H142.353V105.882H141.177V104.706V103.529Z" fill="#7F007F"/>
<path d="M120 104.706H121.176V105.882H122.353V108.235H123.529V109.412H121.176V107.059H120V105.882V104.706Z" fill="#7F007F"/>
<path d="M137.647 104.706H138.824V105.882H137.647V104.706Z" fill="#7F007F"/>
<path d="M129.412 105.882H130.588V107.059H129.412V105.882Z" fill="#7F007F"/>
<path d="M117.647 108.235H120V109.412H117.647V108.235Z" fill="#7F007F"/>
<path d="M120 109.412H121.176V110.588H120V109.412Z" fill="#7F007F"/>
<path d="M125.882 109.412H129.412V110.588H128.235V112.941H127.059V111.765H125.882V110.588V109.412Z" fill="#7F007F"/>
<path d="M107.059 110.588H108.235V112.941H107.059V111.765V110.588Z" fill="#7F007F"/>
<path d="M118.823 110.588H120V111.765H118.823V110.588Z" fill="#7F007F"/>
<path d="M141.177 110.588H142.353V111.765H141.177V110.588Z" fill="#7F007F"/>
<path d="M130.588 111.765H131.765V112.941H130.588V111.765Z" fill="#7F007F"/>
<path d="M120 112.941H121.176V114.118H120V112.941Z" fill="#7F007F"/>
<path d="M128.235 114.118H129.412V115.294H128.235V114.118Z" fill="#7F007F"/>
<path d="M130.588 114.118H131.765V116.471H130.588V118.824H129.412V115.294H130.588V114.118Z" fill="#7F007F"/>
<path d="M110.588 115.294H112.941V117.647H114.118V118.824H115.294V120H116.471V122.353H115.294V121.176H114.118V120H112.941V118.824H109.412V116.471H110.588V115.294Z" fill="#7F007F"/>
<path d="M121.177 115.294H122.353V116.471H121.177V115.294Z" fill="#7F007F"/>
<path d="M124.706 115.294H127.059V117.647H124.706V116.471V115.294Z" fill="#7F007F"/>
<path d="M141.177 115.294H143.529V118.824H142.353V117.647H141.177V116.471V115.294Z" fill="#7F007F"/>
<path d="M92.9412 116.471H94.1176V117.647H92.9412V116.471Z" fill="#7F007F"/>
<path d="M134.118 116.471H135.294V117.647H134.118V116.471Z" fill="#7F007F"/>
<path d="M115.294 117.647H117.647V118.824H115.294V117.647Z" fill="#7F007F"/>
<path d="M127.059 117.647H128.235V118.824H127.059V117.647Z" fill="#7F007F"/>
<path d="M137.647 117.647H140V118.824H138.824V120H137.647V118.824V117.647Z" fill="#7F007F"/>
<path d="M120 118.824H122.353V120H123.529V121.176H122.353V122.353H120V120V118.824Z" fill="#7F007F"/>
<path d="M130.588 118.824H132.941V120H130.588V118.824Z" fill="#7F007F"/>
<path d="M128.235 120H129.412V124.706H125.882V121.176H128.235V120Z" fill="#7F007F"/>
<path d="M117.647 121.176H118.824V122.353H117.647V121.176Z" fill="#7F007F"/>
<path d="M131.765 121.176H132.941V122.353H131.765V121.176ZM130.588 122.353H132.941V123.529H130.588V122.353ZM130.588 123.529H132.941V124.706H130.588V123.529ZM129.412 124.706H131.765V125.882H129.412V124.706ZM130.588 125.882H131.765V127.059H130.588V125.882ZM130.588 127.059H132.941V128.235H130.588V127.059ZM136.471 123.529H137.647V124.706H136.471V123.529ZM136.471 124.706H140V125.882H136.471V124.706ZM132.941 125.882H141.177V127.059H132.941V125.882ZM132.941 127.059H134.118V128.235H132.941V127.059ZM138.824 127.059H141.177V128.235H138.824V127.059ZM130.588 128.235H136.471V129.412H130.588V128.235ZM138.824 128.235H143.53V129.412H138.824V128.235ZM142.353 121.176H143.53V122.353H142.353V121.176ZM142.353 122.353H144.706V123.529H142.353V122.353ZM142.353 123.529H144.706V124.706H142.353V123.529ZM143.53 124.706H144.706V125.882H143.53V124.706ZM143.53 125.882H144.706V127.059H143.53V125.882ZM143.53 127.059H144.706V128.235H143.53V127.059ZM143.53 128.235H145.882V129.412H143.53V128.235ZM129.412 129.412H145.882V130.588H129.412V129.412ZM128.235 130.588H145.882V131.765H128.235V130.588ZM129.412 131.765H148.235V132.941H129.412V131.765ZM128.235 132.941H149.412V134.118H128.235V132.941ZM128.235 134.118H150.588V135.294H128.235V134.118ZM128.235 135.294H150.588V136.471H128.235V135.294ZM129.412 136.471H150.588V137.647H129.412V136.471ZM117.647 124.706H118.824V125.882H117.647V124.706ZM116.471 125.882H118.824V127.059H116.471V125.882ZM117.647 127.059H121.177V128.235H117.647V127.059ZM118.824 128.235H121.177V129.412H118.824V128.235ZM120 129.412H122.353V130.588H120V129.412ZM120 130.588H122.353V131.765H120V130.588ZM120 131.765H123.53V132.941H120V131.765ZM121.177 132.941H125.882V134.118H121.177V132.941ZM122.353 134.118H127.059V135.294H122.353V134.118ZM122.353 135.294H127.059V136.471H122.353V135.294ZM123.53 136.471H127.059V137.647H123.53V136.471ZM123.53 137.647H124.706V138.824H123.53V137.647ZM125.882 137.647H151.765V138.824H125.882V137.647ZM127.059 138.824H151.765V140H127.059V138.824ZM128.235 140H151.765V141.176H128.235V140ZM129.412 141.176H151.765V142.353H129.412V141.176ZM130.588 142.353H148.235V143.529H130.588V142.353ZM150.588 142.353H151.765V143.529H150.588V142.353ZM130.588 143.529H145.882V144.706H130.588V143.529ZM150.588 143.529H151.765V144.706H150.588V143.529ZM130.588 144.706H144.706V145.882H130.588V144.706ZM148.235 144.706H152.941V145.882H148.235V144.706ZM130.588 145.882H131.765V147.059H130.588V145.882ZM132.941 145.882H145.882V147.059H132.941V145.882ZM148.235 145.882H152.941V147.059H148.235V145.882ZM134.118 147.059H152.941V148.235H134.118V147.059ZM134.118 148.235H148.235V149.412H134.118V148.235ZM150.588 148.235H152.941V149.412H150.588V148.235ZM136.471 149.412H143.53V150.588H136.471V149.412ZM145.882 149.412H148.235V150.588H145.882V149.412ZM150.588 149.412H151.765V150.588H150.588V149.412ZM136.471 150.588H144.706V151.765H136.471V150.588ZM147.059 150.588H149.412V151.765H147.059V150.588ZM136.471 151.765H145.882V152.941H136.471V151.765ZM147.059 151.765H150.588V152.941H147.059V151.765ZM136.471 152.941H144.706V154.118H136.471V152.941ZM147.059 152.941H150.588V154.118H147.059V152.941ZM135.294 154.118H144.706V155.294H135.294V154.118ZM134.118 155.294H147.059V156.471H134.118V155.294ZM135.294 156.471H148.235V157.647H135.294V156.471ZM135.294 157.647H149.412V158.824H135.294V157.647ZM135.294 158.824H148.235V160H135.294V158.824ZM136.471 160H147.059V161.176H136.471V160ZM136.471 161.176H147.059V162.353H136.471V161.176ZM137.647 162.353H140V163.529H137.647V162.353ZM141.177 162.353H144.706V163.529H141.177V162.353ZM145.882 162.353H147.059V163.529H145.882V162.353Z" fill="#7F007F"/>
<path d="M135.294 121.176H137.647V122.353H135.294V121.176Z" fill="#7F007F"/>
<path d="M121.177 124.706H122.353V125.882H121.177V124.706Z" fill="#7F007F"/>
<path d="M141.177 124.706H142.353V125.882H141.177V124.706Z" fill="#7F007F"/>
<path d="M125.882 125.882H127.059V127.059H125.882V125.882Z" fill="#7F007F"/>
<path d="M124.706 128.235H125.882V129.412H124.706V128.235Z" fill="#7F007F"/>
<path d="M115.294 130.588H116.471V131.765H115.294V130.588Z" fill="#7F007F"/>
<path d="M110.588 132.941H111.765V134.118H110.588V132.941Z" fill="#7F007F"/>
<path d="M118.823 132.941H120V134.118H118.823V132.941Z" fill="#7F007F"/>
<path d="M155.294 132.941H156.471V136.471H154.118V134.118H155.294V132.941Z" fill="#7F007F"/>
<path d="M157.647 137.647H158.824V141.176H156.471V138.824H157.647V137.647Z" fill="#7F007F"/>
<path d="M154.118 140H155.294V141.176H154.118V140Z" fill="#7F007F"/>
<path d="M155.294 141.176H156.471V142.353H155.294V141.176Z" fill="#7F007F"/>
<path d="M122.353 143.529H128.235V145.882H129.412V149.412H132.941V150.588H130.588V151.765H129.412V154.118H128.235V150.588H127.059V149.412H128.235V148.235H127.059V147.059H123.529V145.882H122.353V144.706V143.529Z" fill="#7F007F"/>
<path d="M121.177 147.059H122.353V148.235H121.177V147.059Z" fill="#7F007F"/>
<path d="M158.824 148.235H160V149.412H158.824V148.235Z" fill="#7F007F"/>
<path d="M121.177 149.412H123.529V150.588H121.177V149.412Z" fill="#7F007F"/>
<path d="M124.706 150.588H125.882V154.118H124.706V151.765V150.588Z" fill="#7F007F"/>
<path d="M131.765 151.765H135.294V152.941H134.118V154.118H132.941V152.941H131.765V151.765Z" fill="#7F007F"/>
<path d="M152.941 151.765H154.118V155.294H152.941V152.941V151.765Z" fill="#7F007F"/>
<path d="M156.471 151.765H157.647V152.941H156.471V151.765Z" fill="#7F007F"/>
<path d="M154.118 155.294H155.294V156.471H154.118V155.294Z" fill="#7F007F"/>
<path d="M132.941 157.647H134.118V160H132.941V158.824V157.647Z" fill="#7F007F"/>
<path d="M150.588 157.647H151.765V158.824H150.588V157.647Z" fill="#7F007F"/>
<path d="M151.765 158.824H152.941V160H154.118V162.353H152.941V163.529H150.588V162.353H149.412V161.176H150.588V160H151.765V158.824Z" fill="#7F007F"/>
<path d="M154.118 158.824H155.294V160H154.118V158.824Z" fill="#7F007F"/>
<path d="M129.412 160H130.588V161.176H129.412V160Z" fill="#7F007F"/>
<path d="M148.235 164.706H149.412V167.059H147.059V165.882H148.235V164.706Z" fill="#7F007F"/>
<path d="M155.294 164.706H156.471V165.882H155.294V164.706Z" fill="#7F007F"/>
<path d="M138.823 167.059H140V169.412H138.823V168.235V167.059Z" fill="#7F007F"/>
<path d="M142.353 167.059H144.706V168.235H142.353V167.059Z" fill="#7F007F"/>
<path d="M149.412 167.059H150.588V168.235H149.412V167.059Z" fill="#7F007F"/>
<path d="M144.706 168.235H148.235V169.412H144.706V168.235ZM145.882 169.412H150.588V170.588H145.882V169.412ZM150.588 168.235H151.765V169.412H150.588V168.235ZM150.588 169.412H151.765V170.588H150.588V169.412ZM144.706 170.588H149.412V171.765H144.706V170.588ZM150.588 170.588H151.765V171.765H150.588V170.588ZM145.882 171.765H151.765V172.941H145.882V171.765ZM149.412 172.941H151.765V174.118H149.412V172.941ZM149.412 174.118H151.765V175.294H149.412V174.118ZM150.588 175.294H151.765V176.471H150.588V175.294Z" fill="#7F007F"/>
<path d="M152.941 168.235H154.118V169.412H152.941V168.235Z" fill="#7F007F"/>
<path d="M155.294 169.412H157.647V170.588H155.294V169.412Z" fill="#7F007F"/>
<path d="M171.765 170.588H172.941V171.765H171.765V170.588Z" fill="#7F007F"/>
<path d="M138.823 171.765H140V172.941H138.823V171.765Z" fill="#7F007F"/>
<path d="M167.059 178.824H168.235V180H167.059V178.824Z" fill="#7F007F"/>
</svg>
