<svg width="200" height="200" viewBox="0 0 200 200" fill="none" xmlns="http://www.w3.org/2000/svg">
<path d="M120 10H121.25V11.25H122.5V12.5H120V11.25V10Z" fill="#FFFF00"/>
<path d="M55 12.5H56.25V13.75H55V12.5Z" fill="#FFFF00"/>
<path d="M55 15H56.25V16.25H55V15Z" fill="#FFFF00"/>
<path d="M107.5 20H108.75V21.25H107.5V20Z" fill="#FFFF00"/>
<path d="M58.75 22.5H60V23.75H58.75V22.5Z" fill="#FFFF00"/>
<path d="M61.25 27.5H62.5V28.75H61.25V27.5Z" fill="#FFFF00"/>
<path d="M62.5 28.75H63.75V31.25H62.5V30V28.75Z" fill="#FFFF00"/>
<path d="M97.5 40H98.75V41.25H97.5V40Z" fill="#FFFF00"/>
<path d="M90 42.5H91.25V43.75H90V42.5Z" fill="#FFFF00"/>
<path d="M71.25 45H72.5V46.25H71.25V45Z" fill="#FFFF00"/>
<path d="M73.75 46.25H75V47.5H73.75V46.25Z" fill="#FFFF00"/>
<path d="M75 47.5H76.25V48.75H75V47.5Z" fill="#FFFF00"/>
<path d="M90 47.5H91.25V48.75H90V47.5Z" fill="#FFFF00"/>
<path d="M97.5 47.5H98.75V48.75H97.5V47.5Z" fill="#FFFF00"/>
<path d="M107.5 47.5H108.75V48.75H107.5V47.5Z" fill="#FFFF00"/>
<path d="M56.25 48.75H57.5V50H56.25V48.75Z" fill="#FFFF00"/>
<path d="M76.25 48.75H77.5V50H76.25V48.75Z" fill="#FFFF00"/>
<path d="M96.25 48.75H97.5V50H96.25V48.75Z" fill="#FFFF00"/>
<path d="M106.25 48.75H107.5V50H106.25V48.75Z" fill="#FFFF00"/>
<path d="M95 50H96.25V51.25H95V50Z" fill="#FFFF00"/>
<path d="M106.25 51.25H107.5V52.5H106.25V51.25Z" fill="#FFFF00"/>
<path d="M93.75 52.5H95V55H93.75V53.75V52.5Z" fill="#FFFF00"/>
<path d="M108.75 53.75H111.25V55H108.75V53.75Z" fill="#FFFF00"/>
<path d="M72.5 55H73.75V56.25H72.5V55Z" fill="#FFFF00"/>
<path d="M92.5 55H93.75V56.25H92.5V55Z" fill="#FFFF00"/>
<path d="M73.75 57.5H75V58.75H73.75V57.5Z" fill="#FFFF00"/>
<path d="M76.25 61.25H77.5V62.5H76.25V61.25Z" fill="#FFFF00"/>
<path d="M62.5 63.75H63.75V65H62.5V63.75Z" fill="#FFFF00"/>
<path d="M76.25 63.75H77.5V65H76.25V63.75Z" fill="#FFFF00"/>
<path d="M58.75 65H60V66.25H58.75V65Z" fill="#FFFF00"/>
<path d="M63.75 65H66.25V66.25H63.75V65Z" fill="#FFFF00"/>
<path d="M71.25 66.25H72.5V67.5H71.25V66.25Z" fill="#FFFF00"/>
<path d="M72.5 67.5H73.75V68.75H72.5V67.5Z" fill="#FFFF00"/>
<path d="M77.5 67.5H78.75V68.75H77.5V67.5Z" fill="#FFFF00"/>
<path d="M62.5 68.75H65V70H62.5V68.75Z" fill="#FFFF00"/>
<path d="M61.25 70H62.5V71.25H61.25V70Z" fill="#FFFF00"/>
<path d="M73.75 70H75V71.25H73.75V70Z" fill="#FFFF00"/>
<path d="M62.5 71.25H63.75V72.5H62.5V71.25Z" fill="#FFFF00"/>
<path d="M86.25 71.25H87.5V72.5H86.25V71.25Z" fill="#FFFF00"/>
<path d="M91.25 71.25H92.5V72.5H91.25V71.25Z" fill="#FFFF00"/>
<path d="M106.25 71.25H107.5V72.5H106.25V71.25Z" fill="#FFFF00"/>
<path d="M91.25 73.75H92.5V75H91.25V73.75Z" fill="#FFFF00"/>
<path d="M105 73.75H106.25V75H105V73.75Z" fill="#FFFF00"/>
<path d="M63.75 75H65V76.25H63.75V75Z" fill="#FFFF00"/>
<path d="M72.5 75H73.75V76.25H72.5V75Z" fill="#FFFF00"/>
<path d="M87.5 75H88.75V76.25H87.5V75Z" fill="#FFFF00"/>
<path d="M90 75H91.25V76.25H90V75Z" fill="#FFFF00"/>
<path d="M106.25 75H107.5V76.25H106.25V75Z" fill="#FFFF00"/>
<path d="M108.75 75H110V76.25H108.75V75Z" fill="#FFFF00"/>
<path d="M112.5 75H113.75V76.25H112.5V75Z" fill="#FFFF00"/>
<path d="M65 76.25H66.25V77.5H65V76.25Z" fill="#FFFF00"/>
<path d="M71.25 76.25H72.5V77.5H71.25V76.25Z" fill="#FFFF00"/>
<path d="M81.25 76.25H83.75V77.5H81.25V76.25Z" fill="#FFFF00"/>
<path d="M113.75 76.25H115V77.5H113.75V76.25Z" fill="#FFFF00"/>
<path d="M68.75 77.5H70V78.75H68.75V77.5Z" fill="#FFFF00"/>
<path d="M106.25 77.5H107.5V78.75H106.25V77.5Z" fill="#FFFF00"/>
<path d="M117.5 77.5H118.75V78.75H117.5V77.5Z" fill="#FFFF00"/>
<path d="M71.25 78.75H73.75V80H71.25V78.75Z" fill="#FFFF00"/>
<path d="M83.75 78.75H85V80H83.75V78.75Z" fill="#FFFF00"/>
<path d="M123.75 78.75H125V80H123.75V78.75Z" fill="#FFFF00"/>
<path d="M126.25 78.75H127.5V80H126.25V78.75Z" fill="#FFFF00"/>
<path d="M83.75 82.5H85V83.75H83.75V82.5Z" fill="#FFFF00"/>
<path d="M85 85H86.25V86.25H85V85Z" fill="#FFFF00"/>
<path d="M87.5 87.5H88.75V88.75H87.5V87.5Z" fill="#FFFF00"/>
<path d="M101.25 87.5H102.5V88.75H101.25V87.5Z" fill="#FFFF00"/>
<path d="M86.25 88.75H87.5V90H86.25V88.75Z" fill="#FFFF00"/>
<path d="M88.75 90H90V91.25H88.75V90Z" fill="#FFFF00"/>
<path d="M92.5 90H93.75V91.25H92.5V90Z" fill="#FFFF00"/>
<path d="M103.75 90H105V91.25H103.75V90Z" fill="#FFFF00"/>
<path d="M87.5 91.25H88.75V92.5H87.5V91.25Z" fill="#FFFF00"/>
<path d="M91.25 96.25H92.5V97.5H91.25V96.25Z" fill="#FFFF00"/>
<path d="M103.75 96.25H105V97.5H103.75V96.25Z" fill="#FFFF00"/>
<path d="M90 97.5H91.25V98.75H90V97.5Z" fill="#FFFF00"/>
<path d="M93.75 97.5H95V98.75H93.75V97.5Z" fill="#FFFF00"/>
<path d="M92.5 98.75H93.75V100H92.5V98.75Z" fill="#FFFF00"/>
<path d="M97.5 100H98.75V102.5H97.5V101.25V100Z" fill="#FFFF00"/>
<path d="M93.75 101.25H95V102.5H93.75V101.25Z" fill="#FFFF00"/>
<path d="M92.5 103.75H93.75V105H92.5V103.75Z" fill="#FFFF00"/>
<path d="M102.5 103.75H103.75V105H102.5V103.75Z" fill="#FFFF00"/>
<path d="M98.75 105H100V106.25H98.75V105Z" fill="#FFFF00"/>
<path d="M100 106.25H101.25V108.75H100V107.5V106.25Z" fill="#FFFF00"/>
<path d="M95 110H96.25V111.25H95V110Z" fill="#FFFF00"/>
<path d="M97.5 110H98.75V111.25H97.5V110Z" fill="#FFFF00"/>
<path d="M96.25 112.5H97.5V113.75H96.25V112.5Z" fill="#FFFF00"/>
<path d="M98.75 112.5H100V113.75H98.75V112.5Z" fill="#FFFF00"/>
<path d="M100 115H101.25V116.25H100V115Z" fill="#FFFF00"/>
<path d="M101.25 117.5H102.5V118.75H101.25V117.5Z" fill="#FFFF00"/>
<path d="M133.75 117.5H135V118.75H133.75V117.5Z" fill="#FFFF00"/>
<path d="M98.75 118.75H100V120H98.75V118.75Z" fill="#FFFF00"/>
<path d="M135 118.75H136.25V120H135V118.75Z" fill="#FFFF00"/>
<path d="M88.75 123.75H90V125H88.75V123.75Z" fill="#FFFF00"/>
<path d="M123.75 123.75H125V125H123.75V123.75Z" fill="#FFFF00"/>
<path d="M90 125H91.25V126.25H90V125Z" fill="#FFFF00"/>
<path d="M101.25 125H102.5V126.25H101.25V125Z" fill="#FFFF00"/>
<path d="M107.5 130H108.75V131.25H107.5V130Z" fill="#FFFF00"/>
<path d="M103.75 131.25H105V132.5H103.75V131.25Z" fill="#FFFF00"/>
<path d="M83.75 132.5H85V133.75H83.75V132.5Z" fill="#FFFF00"/>
<path d="M97.5 132.5H98.75V133.75H97.5V132.5Z" fill="#FFFF00"/>
<path d="M108.75 132.5H110V133.75H108.75V132.5Z" fill="#FFFF00"/>
<path d="M122.5 132.5H123.75V133.75H122.5V132.5Z" fill="#FFFF00"/>
<path d="M105 133.75H106.25V135H105V133.75Z" fill="#FFFF00"/>
<path d="M81.25 136.25H82.5V137.5H81.25V136.25Z" fill="#FFFF00"/>
<path d="M106.25 136.25H107.5V137.5H106.25V136.25Z" fill="#FFFF00"/>
<path d="M97.5 140H98.75V141.25H97.5V140Z" fill="#FFFF00"/>
<path d="M105 140H106.25V141.25H105V140Z" fill="#FFFF00"/>
<path d="M93.75 141.25H95V142.5H93.75V141.25Z" fill="#FFFF00"/>
<path d="M108.75 141.25H110V143.75H107.5V142.5H108.75V141.25Z" fill="#FFFF00"/>
<path d="M112.5 141.25H113.75V142.5H112.5V141.25Z" fill="#FFFF00"/>
<path d="M118.75 141.25H120V142.5H118.75V141.25Z" fill="#FFFF00"/>
<path d="M113.75 143.75H115V145H113.75V143.75Z" fill="#FFFF00"/>
<path d="M110 145H111.25V148.75H110V146.25V145Z" fill="#FFFF00"/>
<path d="M115 145H116.25V146.25H115V145Z" fill="#FFFF00"/>
<path d="M118.75 148.75H120V150H118.75V148.75Z" fill="#FFFF00"/>
<path d="M120 150H121.25V151.25H120V150Z" fill="#FFFF00"/>
<path d="M126.25 150H127.5V151.25H126.25V150Z" fill="#FFFF00"/>
<path d="M110 151.25H111.25V152.5H110V151.25Z" fill="#FFFF00"/>
<path d="M125 151.25H126.25V152.5H125V151.25Z" fill="#FFFF00"/>
<path d="M127.5 152.5H128.75V153.75H127.5V152.5Z" fill="#FFFF00"/>
<path d="M128.75 153.75H130V155H128.75V153.75Z" fill="#FFFF00"/>
<path d="M105 157.5H106.25V158.75H105V157.5Z" fill="#FFFF00"/>
<path d="M105 160H106.25V161.25H105V160Z" fill="#FFFF00"/>
<path d="M128.75 160H130V162.5H128.75V161.25V160Z" fill="#FFFF00"/>
<path d="M112.5 162.5H113.75V163.75H112.5V162.5Z" fill="#FFFF00"/>
<path d="M116.25 163.75H117.5V165H116.25V163.75Z" fill="#FFFF00"/>
<path d="M120 166.25H121.25V167.5H120V166.25Z" fill="#FFFF00"/>
<path d="M126.25 166.25H127.5V167.5H126.25V166.25Z" fill="#FFFF00"/>
<path d="M131.25 166.25H132.5V167.5H131.25V166.25Z" fill="#FFFF00"/>
<path d="M116.25 170H117.5V171.25H116.25V170Z" fill="#FFFF00"/>
<path d="M123.75 170H127.5V171.25H123.75V170Z" fill="#FFFF00"/>
<path d="M132.5 170H135V171.25H132.5V170Z" fill="#FFFF00"/>
<path d="M140 176.25H142.5V177.5H140V176.25Z" fill="#FFFF00"/>
<path d="M118.75 177.5H120V180H118.75V178.75V177.5Z" fill="#FFFF00"/>
<path d="M133.75 177.5H135V178.75H133.75V177.5Z" fill="#FFFF00"/>
<path d="M136.25 177.5H138.75V180H137.5V178.75H136.25V177.5Z" fill="#FFFF00"/>
<path d="M115 180H116.25V181.25H115V180Z" fill="#FFFF00"/>
<path d="M120 181.25H121.25V182.5H120V181.25Z" fill="#FFFF00"/>
<path d="M121.25 182.5H122.5V183.75H121.25V182.5Z" fill="#FFFF00"/>
<path d="M135 182.5H136.25V185H135V183.75V182.5Z" fill="#FFFF00"/>
<path d="M123.75 183.75H125V185H123.75V183.75Z" fill="#FFFF00"/>
<path d="M127.5 183.75H128.75V185H127.5V183.75Z" fill="#FFFF00"/>
<path d="M136.25 186.25H137.5V187.5H136.25V186.25Z" fill="#FFFF00"/>
<path d="M143.75 186.25H145V187.5H143.75V186.25Z" fill="#FFFF00"/>
<path d="M137.5 187.5H138.75V188.75H137.5V187.5Z" fill="#FFFF00"/>
<path d="M142.5 187.5H143.75V188.75H142.5V187.5Z" fill="#FFFF00"/>
<path d="M121.25 10H122.5V11.25H121.25V10Z" fill="#FFFF00"/>
<path d="M92.5 40H93.75V41.25H92.5V40Z" fill="#FFFF00"/>
<path d="M91.25 41.25H92.5V42.5H91.25V41.25Z" fill="#FFFF00"/>
<path d="M70 45H71.25V46.25H70V45Z" fill="#FFFF00"/>
<path d="M68.75 46.25H70V47.5H68.75V46.25Z" fill="#FFFF00"/>
<path d="M68.75 48.75H70V50H68.75V48.75Z" fill="#FFFF00"/>
<path d="M91.25 48.75H92.5V50H91.25V48.75Z" fill="#FFFF00"/>
<path d="M106.25 50H107.5V51.25H106.25V50Z" fill="#FFFF00"/>
<path d="M70 51.25H71.25V52.5H70V51.25Z" fill="#FFFF00"/>
<path d="M92.5 52.5H93.75V53.75H92.5V52.5Z" fill="#FFFF00"/>
<path d="M107.5 52.5H108.75V53.75H107.5V52.5Z" fill="#FFFF00"/>
<path d="M73.75 55H75V56.25H73.75V55Z" fill="#FFFF00"/>
<path d="M75 58.75H76.25V61.25H75V60V58.75Z" fill="#FFFF00"/>
<path d="M76.25 62.5H77.5V63.75H76.25V62.5Z" fill="#FFFF00"/>
<path d="M77.5 65H78.75V67.5H77.5V66.25V65Z" fill="#FFFF00"/>
<path d="M57.5 66.25H58.75V67.5H57.5V66.25Z" fill="#FFFF00"/>
<path d="M70 66.25H71.25V67.5H70V66.25Z" fill="#FFFF00"/>
<path d="M65 67.5H66.25V68.75H65V67.5Z" fill="#FFFF00"/>
<path d="M78.75 68.75H80V71.25H78.75V70V68.75Z" fill="#FFFF00"/>
<path d="M88.75 70H91.25V71.25H88.75V70Z" fill="#FFFF00"/>
<path d="M73.75 71.25H75V73.75H73.75V72.5V71.25Z" fill="#FFFF00"/>
<path d="M80 71.25H81.25V73.75H80V72.5V71.25Z" fill="#FFFF00"/>
<path d="M107.5 71.25H108.75V72.5H107.5V71.25Z" fill="#FFFF00"/>
<path d="M86.25 72.5H87.5V73.75H86.25V72.5Z" fill="#FFFF00"/>
<path d="M91.25 72.5H92.5V73.75H91.25V72.5Z" fill="#FFFF00"/>
<path d="M105 72.5H106.25V73.75H105V72.5Z" fill="#FFFF00"/>
<path d="M81.25 73.75H82.5V75H81.25V73.75Z" fill="#FFFF00"/>
<path d="M112.5 76.25H113.75V77.5H112.5V76.25Z" fill="#FFFF00"/>
<path d="M82.5 78.75H83.75V80H82.5V78.75Z" fill="#FFFF00"/>
<path d="M95 78.75H96.25V80H97.5V81.25H95V80V78.75Z" fill="#FFFF00"/>
<path d="M106.25 78.75H107.5V80H106.25V78.75Z" fill="#FFFF00"/>
<path d="M83.75 81.25H85V82.5H83.75V81.25Z" fill="#FFFF00"/>
<path d="M130 81.25H131.25V82.5H130V81.25Z" fill="#FFFF00"/>
<path d="M85 82.5H86.25V83.75H85V82.5Z" fill="#FFFF00"/>
<path d="M86.25 85H87.5V86.25H86.25V85Z" fill="#FFFF00"/>
<path d="M86.25 87.5H87.5V88.75H86.25V87.5Z" fill="#FFFF00"/>
<path d="M95 87.5H96.25V88.75H95V87.5Z" fill="#FFFF00"/>
<path d="M93.75 88.75H95V90H93.75V88.75Z" fill="#FFFF00"/>
<path d="M102.5 88.75H103.75V90H102.5V88.75Z" fill="#FFFF00"/>
<path d="M88.75 91.25H90V92.5H88.75V91.25Z" fill="#FFFF00"/>
<path d="M88.75 93.75H91.25V95H88.75V93.75Z" fill="#FFFF00"/>
<path d="M92.5 95H93.75V96.25H92.5V95Z" fill="#FFFF00"/>
<path d="M102.5 97.5H103.75V98.75H102.5V97.5Z" fill="#FFFF00"/>
<path d="M101.25 98.75H102.5V100H101.25V98.75Z" fill="#FFFF00"/>
<path d="M91.25 100H92.5V101.25H91.25V100Z" fill="#FFFF00"/>
<path d="M102.5 101.25H103.75V102.5H102.5V101.25Z" fill="#FFFF00"/>
<path d="M97.5 102.5H98.75V103.75H97.5V102.5Z" fill="#FFFF00"/>
<path d="M95 105H96.25V106.25H95V105Z" fill="#FFFF00"/>
<path d="M93.75 106.25H95V107.5H93.75V106.25Z" fill="#FFFF00"/>
<path d="M96.25 107.5H97.5V108.75H96.25V107.5Z" fill="#FFFF00"/>
<path d="M102.5 107.5H103.75V108.75H102.5V107.5Z" fill="#FFFF00"/>
<path d="M101.25 108.75H102.5V110H101.25V108.75Z" fill="#FFFF00"/>
<path d="M97.5 115H98.75V116.25H97.5V115Z" fill="#FFFF00"/>
<path d="M120 120H121.25V121.25H120V120Z" fill="#FFFF00"/>
<path d="M100 121.25H101.25V122.5H100V121.25Z" fill="#FFFF00"/>
<path d="M122.5 121.25H123.75V122.5H122.5V121.25Z" fill="#FFFF00"/>
<path d="M120 125H121.25V126.25H120V125Z" fill="#FFFF00"/>
<path d="M122.5 125H123.75V126.25H122.5V125Z" fill="#FFFF00"/>
<path d="M105 126.25H106.25V127.5H105V126.25Z" fill="#FFFF00"/>
<path d="M113.75 126.25H115V127.5H113.75V126.25Z" fill="#FFFF00"/>
<path d="M102.5 127.5H103.75V128.75H102.5V127.5Z" fill="#FFFF00"/>
<path d="M82.5 132.5H83.75V133.75H82.5V132.5Z" fill="#FFFF00"/>
<path d="M120 132.5H121.25V133.75H120V132.5Z" fill="#FFFF00"/>
<path d="M81.25 133.75H82.5V135H81.25V133.75Z" fill="#FFFF00"/>
<path d="M85 133.75H86.25V136.25H85V135V133.75Z" fill="#FFFF00"/>
<path d="M125 135H126.25V136.25H125V135Z" fill="#FFFF00"/>
<path d="M107.5 137.5H108.75V138.75H107.5V137.5Z" fill="#FFFF00"/>
<path d="M92.5 140H93.75V141.25H92.5V140Z" fill="#FFFF00"/>
<path d="M106.25 140H107.5V141.25H106.25V140Z" fill="#FFFF00"/>
<path d="M108.75 140H110V141.25H108.75V140Z" fill="#FFFF00"/>
<path d="M95 141.25H96.25V142.5H95V141.25Z" fill="#FFFF00"/>
<path d="M120 142.5H121.25V145H120V143.75V142.5Z" fill="#FFFF00"/>
<path d="M110 143.75H111.25V145H110V143.75Z" fill="#FFFF00"/>
<path d="M117.5 147.5H118.75V148.75H117.5V147.5Z" fill="#FFFF00"/>
<path d="M122.5 150H123.75V151.25H122.5V150Z" fill="#FFFF00"/>
<path d="M126.25 151.25H127.5V152.5H126.25V151.25Z" fill="#FFFF00"/>
<path d="M108.75 152.5H110V153.75H108.75V152.5Z" fill="#FFFF00"/>
<path d="M106.25 155H107.5V156.25H106.25V155Z" fill="#FFFF00"/>
<path d="M128.75 155H130V156.25H128.75V155Z" fill="#FFFF00"/>
<path d="M105 158.75H106.25V160H105V158.75Z" fill="#FFFF00"/>
<path d="M128.75 158.75H130V160H128.75V158.75Z" fill="#FFFF00"/>
<path d="M110 162.5H111.25V163.75H110V162.5Z" fill="#FFFF00"/>
<path d="M115 162.5H116.25V163.75H115V162.5Z" fill="#FFFF00"/>
<path d="M128.75 162.5H130V163.75H128.75V162.5Z" fill="#FFFF00"/>
<path d="M126.25 163.75H127.5V166.25H126.25V165V163.75Z" fill="#FFFF00"/>
<path d="M120 165H121.25V166.25H120V165Z" fill="#FFFF00"/>
<path d="M125 167.5H126.25V168.75H125V167.5Z" fill="#FFFF00"/>
<path d="M117.5 168.75H118.75V170H117.5V168.75Z" fill="#FFFF00"/>
<path d="M128.75 171.25H130V172.5H128.75V171.25Z" fill="#FFFF00"/>
<path d="M133.75 171.25H135V172.5H133.75V171.25Z" fill="#FFFF00"/>
<path d="M130 172.5H131.25V173.75H130V172.5Z" fill="#FFFF00"/>
<path d="M131.25 173.75H132.5V175H131.25V173.75Z" fill="#FFFF00"/>
<path d="M135 175H136.25V177.5H135V176.25V175Z" fill="#FFFF00"/>
<path d="M118.75 176.25H120V177.5H118.75V176.25Z" fill="#FFFF00"/>
<path d="M136.25 180H137.5V181.25H136.25V180Z" fill="#FFFF00"/>
<path d="M143.75 181.25H145V182.5H143.75V181.25Z" fill="#FFFF00"/>
<path d="M125 183.75H127.5V185H125V183.75Z" fill="#FFFF00"/>
<path d="M117.5 11.25H118.75V12.5H117.5V11.25Z" fill="#FFFF00"/>
<path d="M55 13.75H56.25V15H55V13.75Z" fill="#FFFF00"/>
<path d="M93.75 40H97.5V41.25H98.75V47.5H97.5V48.75H96.25V50H95V52.5H92.5V48.75H91.25V47.5H90V43.75H91.25V42.5H92.5V41.25H93.75V40Z" fill="#FFFF00"/>
<path d="M70 46.25H73.75V47.5H75V48.75H76.25V50H77.5V53.75H76.25V55H72.5V53.75H71.25V51.25H70V48.75H68.75V47.5H70V46.25Z" fill="#FFFF00"/>
<path d="M108.75 47.5H112.5V48.75H113.75V52.5H112.5V53.75H108.75V52.5H107.5V48.75H108.75V47.5Z" fill="#FFFF00"/>
<path d="M92.5 53.75H93.75V55H92.5V53.75Z" fill="#FFFF00"/>
<path d="M73.75 56.25H75V57.5H73.75V56.25Z" fill="#FFFF00"/>
<path d="M58.75 66.25H61.25V68.75H57.5V67.5H58.75V66.25Z" fill="#FFFF00"/>
<path d="M65 66.25H70V67.5H72.5V68.75H73.75V75H72.5V76.25H71.25V77.5H66.25V76.25H65V75H63.75V71.25H62.5V70H65V68.75H66.25V67.5H65V66.25Z" fill="#FFFF00"/>
<path d="M87.5 71.25H91.25V75H90V76.25H88.75V75H87.5V72.5V71.25Z" fill="#FFFF00"/>
<path d="M106.25 72.5H110V75H108.75V76.25H107.5V75H106.25V73.75V72.5Z" fill="#FFFF00"/>
<path d="M57.5 75H58.75V76.25H57.5V75Z" fill="#FFFF00"/>
<path d="M81.25 75H82.5V76.25H81.25V75Z" fill="#FFFF00"/>
<path d="M82.5 77.5H83.75V78.75H82.5V77.5Z" fill="#FFFF00"/>
<path d="M125 78.75H126.25V81.25H125V80V78.75Z" fill="#FFFF00"/>
<path d="M83.75 80H85V81.25H83.75V80Z" fill="#FFFF00"/>
<path d="M130 80H132.5V82.5H131.25V81.25H130V80Z" fill="#FFFF00"/>
<path d="M85 83.75H86.25V85H85V83.75Z" fill="#FFFF00"/>
<path d="M86.25 86.25H87.5V87.5H86.25V86.25Z" fill="#FFFF00"/>
<path d="M96.25 87.5H101.25V88.75H102.5V90H103.75V91.25H105V96.25H103.75V97.5H102.5V98.75H101.25V100H102.5V102.5H103.75V103.75H102.5V108.75H101.25V106.25H100V105H98.75V100H96.25V98.75H95V97.5H93.75V95H92.5V91.25H93.75V90H95V88.75H96.25V87.5Z" fill="#FFFF00"/>
<path d="M87.5 88.75H88.75V91.25H87.5V90V88.75Z" fill="#FFFF00"/>
<path d="M88.75 92.5H90V93.75H88.75V92.5Z" fill="#FFFF00"/>
<path d="M90 95H91.25V97.5H90V96.25V95Z" fill="#FFFF00"/>
<path d="M91.25 97.5H92.5V100H91.25V98.75V97.5Z" fill="#FFFF00"/>
<path d="M92.5 100H93.75V102.5H95V106.25H93.75V103.75H92.5V101.25V100Z" fill="#FFFF00"/>
<path d="M95 106.25H96.25V108.75H97.5V111.25H98.75V113.75H100V116.25H101.25V118.75H102.5V121.25H103.75V123.75H105V127.5H106.25V128.75H107.5V131.25H108.75V133.75H110V136.25H111.25V137.5H112.5V142.5H113.75V145H115V146.25H117.5V148.75H118.75V150H120V151.25H123.75V150H126.25V151.25H125V152.5H126.25V153.75H127.5V155H128.75V156.25H130V158.75H128.75V163.75H126.25V167.5H125V168.75H123.75V171.25H128.75V172.5H130V173.75H131.25V175H133.75V176.25H135V177.5H133.75V180H132.5V181.25H131.25V182.5H130V183.75H122.5V182.5H121.25V181.25H120V176.25H118.75V175H117.5V173.75H116.25V171.25H117.5V170H118.75V167.5H121.25V165H117.5V163.75H116.25V162.5H112.5V163.75H111.25V162.5H107.5V161.25H106.25V156.25H107.5V153.75H110V152.5H111.25V143.75H110V140H108.75V137.5H107.5V136.25H106.25V133.75H105V131.25H103.75V127.5H102.5V125H101.25V121.25H100V118.75H98.75V115H97.5V112.5H96.25V110H95V107.5V106.25Z" fill="#FFFF00"/>
<path d="M133.75 118.75H135V120H133.75V118.75Z" fill="#FFFF00"/>
<path d="M121.25 120H122.5V122.5H123.75V125H122.5V126.25H121.25V125H120V121.25H121.25V120Z" fill="#FFFF00"/>
<path d="M112.5 123.75H116.25V126.25H112.5V125V123.75Z" fill="#FFFF00"/>
<path d="M88.75 125H90V126.25H88.75V125Z" fill="#FFFF00"/>
<path d="M120 131.25H122.5V133.75H121.25V132.5H120V131.25Z" fill="#FFFF00"/>
<path d="M82.5 133.75H85V137.5H82.5V136.25H81.25V135H82.5V133.75Z" fill="#FFFF00"/>
<path d="M93.75 135H97.5V136.25H98.75V140H97.5V141.25H93.75V140H92.5V136.25H93.75V135Z" fill="#FFFF00"/>
<path d="M117.5 142.5H120V145H117.5V143.75V142.5Z" fill="#FFFF00"/>
<path d="M127.5 151.25H128.75V152.5H127.5V151.25Z" fill="#FFFF00"/>
<path d="M128.75 152.5H130V153.75H128.75V152.5Z" fill="#FFFF00"/>
<path d="M128.75 163.75H130V165H128.75V163.75Z" fill="#FFFF00"/>
<path d="M132.5 168.75H133.75V170H132.5V168.75Z" fill="#FFFF00"/>
<path d="M135 172.5H136.25V173.75H137.5V175H138.75V177.5H136.25V175H135V173.75V172.5Z" fill="#FFFF00"/>
<path d="M138.75 178.75H142.5V180H143.75V182.5H145V186.25H143.75V187.5H142.5V188.75H138.75V187.5H137.5V186.25H136.25V181.25H137.5V180H138.75V178.75Z" fill="#FFFF00"/>
<path d="M113.75 181.25H116.25V183.75H113.75V182.5V181.25Z" fill="#FFFF00"/>
<path d="M53.75 12.5H55V13.75H53.75V12.5Z" fill="#FFFF00"/>
<path d="M56.25 15H57.5V16.25H56.25V15Z" fill="#FFFF00"/>
<path d="M60 23.75H61.25V25H60V23.75Z" fill="#FFFF00"/>
<path d="M95 38.75H96.25V40H95V38.75Z" fill="#FFFF00"/>
<path d="M98.75 43.75H100V46.25H98.75V45V43.75Z" fill="#FFFF00"/>
<path d="M112.5 52.5H113.75V53.75H112.5V52.5Z" fill="#FFFF00"/>
<path d="M111.25 53.75H112.5V55H111.25V53.75Z" fill="#FFFF00"/>
<path d="M75 61.25H76.25V62.5H75V61.25Z" fill="#FFFF00"/>
<path d="M66.25 65H67.5V66.25H66.25V65Z" fill="#FFFF00"/>
<path d="M78.75 67.5H80V68.75H78.75V67.5Z" fill="#FFFF00"/>
<path d="M58.75 68.75H60V70H58.75V68.75Z" fill="#FFFF00"/>
<path d="M80 70H81.25V71.25H80V70Z" fill="#FFFF00"/>
<path d="M87.5 70H88.75V71.25H87.5V70Z" fill="#FFFF00"/>
<path d="M81.25 72.5H82.5V73.75H81.25V72.5Z" fill="#FFFF00"/>
<path d="M80 73.75H81.25V75H80V73.75Z" fill="#FFFF00"/>
<path d="M67.5 77.5H68.75V78.75H67.5V77.5Z" fill="#FFFF00"/>
<path d="M118.75 77.5H120V80H118.75V78.75V77.5Z" fill="#FFFF00"/>
<path d="M93.75 78.75H95V80H93.75V78.75Z" fill="#FFFF00"/>
<path d="M96.25 78.75H97.5V80H96.25V78.75Z" fill="#FFFF00"/>
<path d="M123.75 80H125V81.25H123.75V80Z" fill="#FFFF00"/>
<path d="M126.25 80H127.5V81.25H126.25V80Z" fill="#FFFF00"/>
<path d="M85 81.25H86.25V82.5H85V81.25Z" fill="#FFFF00"/>
<path d="M97.5 86.25H98.75V87.5H97.5V86.25Z" fill="#FFFF00"/>
<path d="M88.75 95H90V96.25H88.75V95Z" fill="#FFFF00"/>
<path d="M92.5 96.25H93.75V97.5H92.5V96.25Z" fill="#FFFF00"/>
<path d="M95 98.75H96.25V100H95V98.75Z" fill="#FFFF00"/>
<path d="M91.25 101.25H92.5V102.5H91.25V101.25Z" fill="#FFFF00"/>
<path d="M95 103.75H96.25V105H95V103.75Z" fill="#FFFF00"/>
<path d="M97.5 103.75H98.75V105H97.5V103.75Z" fill="#FFFF00"/>
<path d="M102.5 108.75H103.75V110H102.5V108.75Z" fill="#FFFF00"/>
<path d="M97.5 116.25H98.75V117.5H97.5V116.25Z" fill="#FFFF00"/>
<path d="M135 117.5H136.25V118.75H135V117.5Z" fill="#FFFF00"/>
<path d="M102.5 120H103.75V121.25H102.5V120Z" fill="#FFFF00"/>
<path d="M133.75 120H135V121.25H133.75V120Z" fill="#FFFF00"/>
<path d="M100 122.5H101.25V123.75H100V122.5Z" fill="#FFFF00"/>
<path d="M103.75 122.5H105V123.75H103.75V122.5Z" fill="#FFFF00"/>
<path d="M113.75 122.5H115V123.75H113.75V122.5Z" fill="#FFFF00"/>
<path d="M118.75 122.5H120V123.75H118.75V122.5Z" fill="#FFFF00"/>
<path d="M105 125H106.25V126.25H105V125Z" fill="#FFFF00"/>
<path d="M112.5 126.25H113.75V127.5H112.5V126.25Z" fill="#FFFF00"/>
<path d="M106.25 127.5H107.5V128.75H106.25V127.5Z" fill="#FFFF00"/>
<path d="M102.5 128.75H103.75V130H102.5V128.75Z" fill="#FFFF00"/>
<path d="M122.5 131.25H123.75V132.5H122.5V131.25Z" fill="#FFFF00"/>
<path d="M95 133.75H96.25V135H95V133.75Z" fill="#FFFF00"/>
<path d="M125 133.75H126.25V135H125V133.75Z" fill="#FFFF00"/>
<path d="M97.5 135H98.75V136.25H97.5V135Z" fill="#FFFF00"/>
<path d="M110 135H111.25V136.25H110V135Z" fill="#FFFF00"/>
<path d="M111.25 136.25H112.5V137.5H111.25V136.25Z" fill="#FFFF00"/>
<path d="M91.25 137.5H92.5V138.75H91.25V137.5Z" fill="#FFFF00"/>
<path d="M107.5 138.75H108.75V140H107.5V138.75Z" fill="#FFFF00"/>
<path d="M110 148.75H111.25V151.25H110V150V148.75Z" fill="#FFFF00"/>
<path d="M123.75 148.75H125V150H123.75V148.75Z" fill="#FFFF00"/>
<path d="M121.25 150H122.5V151.25H121.25V150Z" fill="#FFFF00"/>
<path d="M106.25 161.25H107.5V162.5H106.25V161.25Z" fill="#FFFF00"/>
<path d="M108.75 162.5H110V163.75H108.75V162.5Z" fill="#FFFF00"/>
<path d="M127.5 163.75H128.75V165H127.5V163.75Z" fill="#FFFF00"/>
<path d="M118.75 165H120V166.25H118.75V165Z" fill="#FFFF00"/>
<path d="M127.5 170H128.75V171.25H127.5V170Z" fill="#FFFF00"/>
<path d="M133.75 172.5H135V173.75H133.75V172.5Z" fill="#FFFF00"/>
<path d="M116.25 173.75H117.5V175H116.25V173.75Z" fill="#FFFF00"/>
<path d="M132.5 180H133.75V181.25H132.5V180Z" fill="#FFFF00"/>
<path d="M116.25 181.25H117.5V182.5H116.25V181.25Z" fill="#FFFF00"/>
<path d="M131.25 181.25H132.5V182.5H131.25V181.25Z" fill="#FFFF00"/>
<path d="M135 181.25H136.25V182.5H135V181.25Z" fill="#FFFF00"/>
<path d="M130 182.5H131.25V183.75H130V182.5Z" fill="#FFFF00"/>
<path d="M115 183.75H116.25V185H115V183.75Z" fill="#FFFF00"/>
</svg>
